<?xml version="1.0" standalone="no"?>
<!DOCTYPE svg PUBLIC "-//W3C//DTD SVG 1.1//EN" "http://www.w3.org/Graphics/SVG/1.1/DTD/svg11.dtd" >
<svg xmlns="http://www.w3.org/2000/svg">
<metadata></metadata>
<defs>
<font id="designer_notesbold" horiz-adv-x="1024" >
<font-face units-per-em="2048" ascent="1638" descent="-410" />
<missing-glyph horiz-adv-x="716" />
<glyph horiz-adv-x="2048" />
<glyph horiz-adv-x="2048" />
<glyph unicode="&#xd;" />
<glyph horiz-adv-x="632" d="M47 641q0 33 10.5 66.5t24.5 65.5t32.5 60.5t32.5 51.5q29 43 63 56t79 13q57 0 111.5 -13t97.5 -44t68.5 -79t25.5 -118q0 -51 -14.5 -79.5t-34.5 -61.5q-4 -6 -11.5 -17.5t-11.5 -17.5l2 4q-86 -133 -235 -133q-4 0 -15.5 1t-21.5 1h-25q-4 2 -12 2h-25q-4 0 -15 6.5 t-24.5 15.5t-25.5 18.5t-19 15.5l11 -13q-16 14 -29.5 40t-22 54.5t-12.5 57.5t-4 47zM264 647q0 -23 31 -33q27 2 41 28t10 50q-2 6 2 10.5t-2 8.5h-27q-27 0 -41 -18.5t-14 -45.5z" />
<glyph horiz-adv-x="768" d="M2 -88q0 4 1 16.5t1 22.5q35 111 87 211t106 198v-2q16 31 32.5 61t32.5 60q4 10 14.5 31.5t21.5 44.5t22.5 43t15.5 29q2 8 7 21.5t9 23.5v-2q4 10 6 6q0 4 4.5 16.5t8.5 18.5q6 10 15 25.5t13 17.5q4 10 12.5 30.5t18.5 42.5q20 49 48 110.5t58.5 115t63.5 89.5t66 36 q35 0 67.5 -29t32.5 -74v-14q-4 -10 -15.5 -29.5t-21.5 -38.5h2q-16 -33 -38.5 -76t-44 -83.5t-39 -74.5t-25.5 -50q-14 -27 -26.5 -48.5t-25 -41t-25.5 -39t-32 -41.5q-25 -35 -46 -80t-42 -88q-10 -23 -19.5 -45.5t-19.5 -42.5q-2 -4 -7 -13.5t-9 -17.5 q-14 -23 -27.5 -47.5t-17.5 -28.5q-2 -8 -7.5 -15t-9.5 -14q-16 -29 -32.5 -61.5t-18.5 -52.5q0 2 2 -4t4 -11q4 -10 8.5 -22t4.5 -29q0 -23 -12.5 -50.5t-32 -52t-44 -41t-49.5 -16.5q-66 0 -82 23t-16 82z" />
<glyph horiz-adv-x="823" d="M35 610q0 66 33.5 87.5t76.5 29.5v365q0 4 5.5 15t13.5 25.5t15 29t14 22.5q4 4 6 8t4 6q23 35 47 70t49 45q4 2 25.5 9t33.5 11q16 6 37 11.5t35 9.5h16q63 0 105.5 -22.5t68 -60.5t37 -87t11.5 -101q0 -45 -17.5 -68.5t-72.5 -23.5q-37 0 -58.5 11.5t-36 30t-20.5 42 t-12 47.5v-2q-4 10 -6.5 21.5t-0.5 13.5q-14 0 -29.5 -14.5t-28.5 -32.5t-21.5 -38.5t-8.5 -35.5v-313h90q10 0 26.5 -15.5t29.5 -33.5v90q0 10 11 42t15 48l-4 -12q4 6 12.5 17t18.5 21.5t22.5 18.5t24.5 8q10 0 31.5 -10t42 -24.5t36 -32t15.5 -33.5v-617q2 2 8 -3t13 -9 q-2 2 9 -12t19 -25q4 -23 -2 -51.5t-14 -38.5q-39 -49 -84 -57t-96 -8h-35l-21 18q-4 2 -12 2q-20 2 -43 6t-40 14.5t-28.5 29.5t-11.5 52q0 51 30 69t66 30q16 8 17 -2v364q-12 -2 -27.5 -5t-31 -5t-26.5 -3l-11 -1q-6 -2 -19.5 -5t-26.5 -7q-14 -4 -30 -9l-13 -28v-428 q0 -53 -35.5 -85t-82.5 -32q-12 0 -25.5 1t-26 7t-21.5 20.5t-15 41.5v92q0 29 -1 52.5t-1 33.5q0 96 6 188q0 27 2 55.5t2 57.5q-35 0 -59.5 18.5t-24.5 83.5zM532 2q4 -2 6.5 -2t6.5 -2z" />
<glyph horiz-adv-x="903" d="M37 625q0 33 9 53t24.5 32.5t36 18.5t40.5 10v367q0 2 5.5 13t13.5 25.5t15 29t14 22.5q8 12 10 14q23 35 47 71t49 46q4 0 25.5 8t33.5 13q16 4 37 10l35 10h17q57 0 96 -18.5t65 -51.5q33 29 61.5 48.5t39.5 19.5h8l15 -9q16 -9 34 -22.5t33.5 -29t15.5 -27.5 q4 -43 8 -88t9 -86v-922q-6 -16 -9.5 -32.5t-5.5 -32.5q-2 -27 -6 -51.5t-18.5 -46t-42 -40t-78.5 -30.5q-6 6 -20.5 19.5t-31 29.5t-29.5 29.5t-18 19.5q0 4 -2 12q-2 6 -2 13.5v11.5q0 37 15 49q-10 4 -11 8q-2 10 -3 34t-2 49.5t-1 49v31.5q0 84 12.5 163t28.5 163 q14 74 25.5 148.5t11.5 152.5v53v14q0 4 -1 9.5t-1 11.5q-23 -16 -65 -16q-37 0 -58.5 11t-36 29.5t-20.5 42t-12 48.5q-4 10 -6.5 20t-0.5 12q-14 0 -29.5 -14t-28.5 -32.5t-21.5 -39t-8.5 -34.5v-314h91q16 0 39.5 -27.5t31.5 -46.5v-73q-8 -2 -26.5 -5t-37 -6.5 t-33.5 -6.5l-15 -3q-6 -2 -19.5 -5t-26.5 -7q-14 -4 -30 -8l-13 -29v-428q0 -53 -35.5 -85t-82.5 -32q-12 0 -25.5 1t-26 7.5t-21.5 20.5t-15 41v92q0 29 -1 53.5t-1 34.5q0 94 6 187q0 27 2 55.5t2 56.5q-35 0 -59.5 19.5t-24.5 85.5z" />
<glyph unicode=" "  horiz-adv-x="716" />
<glyph unicode="&#x09;" horiz-adv-x="716" />
<glyph unicode="&#xa0;" horiz-adv-x="716" />
<glyph unicode="!" horiz-adv-x="387" d="M39 174q0 96 72 139q-14 18 -20.5 43t-6.5 54v841q0 4 5 18.5t13.5 30t15.5 29.5t13 21l-6 -13q12 12 29.5 22.5t31.5 10.5q4 0 15.5 -5t24 -14.5t21.5 -19.5t9 -22v10q18 -104 24.5 -212t6.5 -218q0 -47 -2 -94t-6 -93q-4 -47 -6.5 -92t-2.5 -92q0 -10 2 -26.5t7 -32.5 q4 -16 6 -34.5t2 -45.5t-17 -55q47 -18 69.5 -64.5t22.5 -95.5q0 -29 -14 -60.5t-38.5 -57.5t-59.5 -43t-76 -17q-41 16 -66.5 31.5t-41 36t-21.5 49t-6 71.5z" />
<glyph unicode="&#x22;" horiz-adv-x="610" d="M57 1434h488v-35t-1 -51.5t-1 -50v-31.5v-27q0 -41 -5.5 -88t-33.5 -88q-20 -29 -32.5 -35t-45.5 -6q-37 0 -57.5 14.5t-36.5 50.5l-4 11q-2 12 -10.5 47t-14.5 72q-4 -35 -12 -65t-17 -58q-14 -41 -38.5 -48.5t-53.5 -7.5q-27 0 -42 1t-24.5 8.5t-14.5 23.5t-11 45l2 -4 q-10 53 -22.5 138t-12.5 184z" />
<glyph unicode="#" horiz-adv-x="1189" d="M14 373q0 4 2 10l4 12q2 8 5 15q4 6 14 16t22.5 19.5t24.5 15.5t18 6h207q8 16 18.5 36.5t19.5 41t16.5 35t9.5 18.5l4 14q-39 -4 -79 -6t-50 -2q-53 0 -91 21.5t-38 87.5v14q2 6 12 18.5t23.5 24.5t26 22.5t18.5 12.5q16 0 34.5 -1t36.5 -1q86 0 174 12q4 4 9.5 14.5 t7.5 14.5q2 10 7 22.5t7 22.5q4 6 11.5 20.5t17.5 28.5q4 8 8 14t8 11q2 4 4 12t6 16q6 23 13.5 45.5t20 40t34 28.5t53.5 11q55 0 76 -20.5t21 -73.5q0 -27 -13.5 -56.5t-29.5 -60.5q-8 -14 -16.5 -27.5t-12.5 -29.5q10 0 12 2h78q2 0 12.5 28.5t22.5 63.5 q23 55 49.5 104.5t77.5 65.5q23 4 43 -5t35.5 -24.5t25.5 -34t10 -32.5q0 -25 -10 -52.5t-26 -58.5q-2 -2 -2 -3t-2 -3l-3 -2v-8h89q29 0 43 -10.5t21 -23.5t8 -28.5t1 -25.5q0 -14 -11 -37t-29.5 -44.5t-41 -34.5t-45.5 -11h-2q-16 0 -28 4h-45q-18 0 -30.5 -1t-29.5 -11 q-4 -10 -10 -22.5t-10 -22.5q-10 -16 -14.5 -29.5t-6.5 -18.5q-4 -8 -15 -36.5t-22 -51.5l2 -2h2q14 -2 24.5 -2h16.5q25 0 37.5 4t22.5 7h-2q16 6 34.5 9t65.5 3q23 0 45.5 -5t40.5 -17.5t30.5 -33t12.5 -53.5q0 -47 -31.5 -71.5t-66.5 -24.5q-20 0 -35.5 4t-32.5 8 q-14 6 -28 6q-4 0 -13.5 -1t-17.5 -1h-8q-35 -4 -83 -9t-83 -9q-10 -8 -16.5 -34.5t-9.5 -59.5t-4 -65t-1 -54q-59 0 -93 5t-50.5 19.5t-19.5 37t-3 57.5q0 37 12 73q0 4 4 21h-65q-25 0 -46.5 -1t-43.5 -11q-2 0 -8 -26t-17 -56q-8 -31 -16 -59.5t-20.5 -51t-31 -36 t-46.5 -13.5q-45 0 -65.5 19.5t-20.5 66.5q0 72 28 145h-119q-6 0 -18 7.5t-24.5 18.5t-22.5 21.5t-14 16.5q-2 6 -5 14q-2 6 -4 12.5t-2 8.5zM301 451l2 4zM500 471q23 -2 44 -3t31 -1q16 0 39 1t27 11q2 2 7 17.5t11.5 35t12.5 40t8 32.5q6 23 18 43q-16 2 -29.5 2h-25.5 q-23 0 -38 3t-11 12zM885 657h8v2l2 3z" />
<glyph unicode="$" horiz-adv-x="747" d="M18 465q0 12 7.5 29.5t19.5 35t29.5 29.5t38.5 12l20 -2q55 -27 60.5 -59.5t-0.5 -67.5q-2 -10 -3 -18q0 2 3.5 3t5.5 -1q4 -10 7 -21.5t7 -21.5v4q8 -23 13 -39t18 -29q10 55 15 119t9 123h-16q0 12 1 34.5t5 45.5q-43 35 -79 75t-68 97q-8 12 -20.5 35.5t-16.5 30.5 q6 23 14 41q6 16 10 30.5t6 18.5q29 72 74 106.5t121 46.5v129q0 33 6 50.5t18.5 25.5t30 9t41.5 1h24.5t25 -6t23.5 -20.5t21 -44.5q-4 -16 -4 -35v-39v-34.5t2 -24.5q2 -43 32 -85t65 -79h-2q10 -10 25.5 -32t37.5 -52q0 -2 1 -1t3 -3q12 -16 13 -35q2 -4 2 -8v-9 q0 -41 -33 -67.5t-68 -26.5h-26q2 -4 2 -8t2 -8q86 -80 134 -164t48 -211v-82q-6 -31 -29.5 -57.5t-55.5 -48t-66.5 -37t-65.5 -23.5q-6 -27 -20.5 -55.5t-35 -50t-48 -35.5t-62.5 -14q-12 0 -29.5 1t-33 9t-26.5 23.5t-11 45.5v15q2 4 8 26.5t6 24.5q0 20 -17.5 29.5 t-33.5 15.5q-20 6 -43 16.5t-45 26.5q-31 23 -49.5 59.5t-28.5 77.5t-14.5 82t-4.5 72zM106 821v2q2 -4 2.5 -6t2.5 -4zM293 891q0 -12 2 -19q0 10 1 19.5t1 19.5q-4 -12 -4 -20zM381 610l41 -43l43 43l-43 41zM386 765q-1 -5 1 -7l6 -4q-10 10 -4 20q-2 -4 -3 -9zM514 307 q23 16 23 43q-1 29 -11 74q-4 -33 -8 -62.5t-4 -54.5z" />
<glyph unicode="%" horiz-adv-x="1288" d="M51 778v166q0 10 3 29.5t7.5 40t7.5 38t5 19.5q4 4 15 17.5t24.5 27.5t28 26.5t20.5 18.5q12 10 36.5 25.5t49 29t44 23.5t23.5 10h205q6 0 24.5 -13t40 -31.5t42 -38t28.5 -31.5l4 -2q4 -6 16.5 -33t22.5 -47q4 -12 13 -25v-35q0 -12 -1 -23.5t-3 -23.5q29 37 60.5 79 t62 82t54 71.5t36.5 48.5l-2 -2q29 41 71.5 48t79.5 7h68q0 -8 -2 -26.5t-5.5 -38t-6.5 -37t-7 -25.5q-4 -10 -16.5 -22.5l-22.5 -22.5l-22 -23q-6 -10 -25.5 -36.5t-46.5 -61.5q-25 -33 -51.5 -70.5t-50 -69.5t-41 -56.5t-23.5 -30.5l-67 -68q-6 -4 -11.5 -10t-9.5 -10 q-6 -6 -10 -8q-4 -4 -10.5 -14.5t-16.5 -24.5q43 51 92.5 87t96.5 36q35 0 77.5 -3.5t85.5 -14.5t81 -34.5t63 -64.5v2q10 -16 17 -44t12.5 -57.5t8.5 -56t3 -43.5v-12q0 -27 -2 -65t-27 -66q-6 -6 -20.5 -21.5t-29.5 -31t-29.5 -28.5t-20.5 -20q-20 -14 -55 -25t-74 -18.5 t-76 -10.5t-59 -3q-121 0 -186.5 69.5t-65.5 188.5q0 23 7 53.5t23 61.5q-43 -61 -71 -90q-16 -16 -30.5 -35t-31.5 -41q-4 -8 -7 -15.5t-7 -13.5q-4 -10 -9 -20t-7 -15l-19 -18q-6 -6 -26.5 -34.5t-45 -60.5t-46 -60.5t-27.5 -37.5q-8 -8 -21.5 -19t-31 -19.5t-36 -10.5 t-36.5 4h2q-6 2 -16.5 10.5t-21.5 18.5t-21.5 20.5l-16.5 16.5l-4 16q-4 16 -4 23q0 23 26.5 64.5t65.5 92t83 101.5t77 88q16 16 25.5 28.5t15.5 20.5q10 14 28.5 37t36 44.5t31.5 38.5t16 19q4 6 11.5 18.5l13.5 22.5q2 4 3 6.5t3 6.5q-18 -10 -42.5 -23.5t-48.5 -25 t-42 -19.5t-27 -10h-63q-86 0 -141.5 29.5t-100.5 115.5zM252 848h18q35 0 74 12t73 35t55.5 53.5t21.5 67.5q0 10 -15.5 20.5t-29.5 10.5q-39 0 -78 -5.5t-68 -27.5q-8 -6 -21.5 -13.5t-13.5 -3.5zM799 340q8 -4 24.5 -5t28.5 -1q31 0 62.5 6t56 19.5t40 35t15.5 51.5 q0 53 -31.5 77t-85.5 24q-12 0 -29.5 -12.5t-34 -30t-29.5 -35.5t-17 -33v-96z" />
<glyph unicode="&#x26;" horiz-adv-x="1114" d="M43 305v19q0 33 2 68.5t25 70.5l166 242q-6 12 -12.5 22t-10.5 25l2 -2q-29 53 -53.5 107t-18.5 120q6 90 42 175t94.5 150.5t139.5 104.5t177 39q78 0 129 -21.5t83 -61.5t45 -96.5t13 -125.5q0 -51 -21.5 -102.5t-53 -98.5t-69.5 -88t-73 -70l2 4l-8 -10 q-14 -10 -34.5 -26.5t-40 -35t-34 -33.5t-14.5 -22v-2q8 -16 20.5 -36.5t14.5 -22.5v2l20.5 -20.5l32 -32l33.5 -33.5l27 -27q8 -6 24.5 -20t32.5 -29q20 -16 43 -37q-2 0 13.5 29t31.5 59v-2q14 27 31.5 51.5t34.5 39.5q4 2 16 10t29 18l41 29l100 -98q4 -4 -4 -37 t-22.5 -75t-32 -86t-31.5 -69l6 23q-2 -6 -8 -22.5t-17 -26.5q0 -4 -4 -4q-2 0 -2 2v-4q0 -2 -1 -3.5t-1 -3.5q4 -2 10 -6q4 -4 11.5 -8t13.5 -10q37 -23 68.5 -51.5t31.5 -81.5q0 -14 -6 -27q-4 -8 -6 -14q-8 -6 -23.5 -13.5t-32 -12.5t-31.5 -8t-23 -1l10 -4 q-47 4 -70.5 25.5t-48.5 43.5q-10 12 -22.5 21.5t-26.5 9.5q-10 0 -30.5 -13t-35.5 -24q-8 -4 -10 -6q-10 -6 -23.5 -12t-27.5 -14q-61 -35 -131 -66t-148 -31h-22q-156 37 -244 124t-88 253zM287 287q0 -53 21.5 -85t74.5 -32q12 0 51 8t82 21.5t80 30t43 30.5 q-4 6 -14.5 14.5t-18.5 16.5q-12 10 -40.5 35.5t-64.5 56.5t-72 61.5t-60 51.5q-4 -10 -11.5 -24.5t-11.5 -20.5l2 4l-16 -32t-19.5 -38t-16.5 -31.5t-7 -15.5v-10q0 -10 -1 -22.5t-1 -18.5zM371 975q2 -12 4 -27.5l4 -31t4 -27.5t4 -15q10 10 20.5 17.5t22.5 15.5 q37 29 74 59.5t66.5 65.5t49 74t19.5 82q0 16 -8 30.5t-21 14.5q-43 0 -86 -22.5t-76.5 -58.5t-55 -81t-21.5 -88v-8zM981 293v4v-4z" />
<glyph unicode="'" horiz-adv-x="350" d="M59 948l7 109q0 10 1 33.5t1 49v49v34.5q0 8 1 20t3 25q0 6 1 19t1 26.5v26v16.5h231q0 -14 -3 -43t-7 -58.5t-8 -51t-4 -25.5l2 4q-2 -10 -3 -40t-6 -67q-4 -45 -7 -87t-7 -64q-12 -49 -40.5 -53.5t-57.5 -0.5h4q-4 0 -5 1t-3 1l-47 -10q-25 16 -39.5 46t-14.5 40z" />
<glyph unicode="(" horiz-adv-x="616" d="M18 639q0 59 10.5 116.5t24.5 118.5l-2 -2q4 16 7 33t8 33q8 29 13 43t15 31q8 10 19 39v-4q2 4 6 17t10 30q4 12 6 25.5t2 21.5q2 4 6 8t6.5 7t4.5 5q4 8 14 23.5t14 25.5q20 33 46 71t56.5 69.5t68.5 53t81 21.5h6h36t30 -8t19 -25.5t7 -52.5q0 -43 -23.5 -63.5 t-45.5 -32.5q-2 0 -7 -4t-10 -6q-6 -10 -16 -22.5t-16 -22.5q-2 -12 -8.5 -27.5t-8.5 -19.5q-8 -10 -19 -21.5t-20 -19.5q-70 -98 -96 -217t-26 -238q0 -35 5 -83t16 -98t25.5 -95t32.5 -72q12 -18 35 -45t49 -55q29 -31 57.5 -65t52 -65.5t38 -59t14.5 -48.5v-27.5t-5 -29 t-20.5 -23.5t-46.5 -10q-4 0 -27.5 8t-33.5 14h2q-63 37 -121.5 80t-101.5 113q-6 12 -22.5 40t-28.5 50v-2q-4 4 -10.5 12.5t-8.5 10.5q-10 10 -18 20t-10 27q-4 16 -8.5 35.5t-6.5 29.5q0 4 1 9.5t1 9.5v10q-4 14 -10 26.5t-12 28.5l2 -2q-14 27 -25.5 53.5t-15.5 49.5 l4 -9q0 16 -2 31q-2 12 -2 25.5v21.5v4v-2l-10.5 17.5t-4.5 27.5q0 6 -1 16.5t-1 14.5z" />
<glyph unicode=")" horiz-adv-x="595" d="M33 1257q0 29 9 45.5t23.5 24.5t31 10t30.5 2q29 0 54.5 -12t48 -30.5t41 -38t30.5 -35.5l8 -9q47 -51 94.5 -108t86 -120.5t62 -133.5t23.5 -147q0 -72 -9 -141.5t-19 -133.5v8q-4 -8 -12.5 -26.5t-14.5 -28.5l6 12q0 -4 -5 -25.5t-11 -43.5q-4 -16 -7 -31.5t-5 -20.5 l2 2q-6 -23 -21.5 -65.5t-36 -93.5t-47 -103.5t-56.5 -95.5t-60.5 -69.5t-61.5 -26.5q-45 0 -70.5 15.5t-25.5 72.5q0 43 19.5 65.5t43.5 42.5h-2q8 8 14.5 13.5t8.5 7.5q76 135 122 298t46 318q0 61 -17.5 115.5t-47 105t-66.5 98.5t-78 93q-6 14 -11.5 20.5t-9.5 14.5 q-6 8 -14 16t-8 10q-4 4 -14.5 16.5t-20.5 26.5t-25.5 31t-25.5 27z" />
<glyph unicode="*" horiz-adv-x="776" d="M39 1145q-6 25 5 48.5t30.5 39.5t42 26.5t37.5 10.5q49 0 74.5 -19.5t52.5 -42.5q2 -2 3 -4t5 -4v160h21.5h30.5t28.5 -1t17.5 -1q8 0 12 -1t9 -1q10 -2 24 -12.5t27.5 -22.5t23 -23.5t9.5 -15.5v-88q23 20 45 39.5t41 36.5h43q49 0 78.5 -16.5t29.5 -75.5q0 -61 -36 -94 t-77 -62h2q-23 -14 -40 -26.5t-25 -26.5l20.5 -20.5l22.5 -22.5l63 -62q2 -2 3.5 -1t9.5 -5q25 -14 73 -61l-16 -25q-14 -20 -14 -18q0 -4 -2 -8.5t-4 -8.5q-2 -6 -7 -10q-23 -39 -38 -42t-46 -3h-12q-35 0 -59.5 14.5t-46.5 32.5v2v-78q0 -29 -12.5 -45t-29 -23t-33 -8.5 t-26.5 -1.5q-39 0 -61.5 11.5t-34.5 30t-15 42t-3 48.5q-16 -10 -34 -17.5t-42 -7.5q-16 0 -34.5 2t-34 10t-26 24.5t-10.5 45.5q0 4 5 20l4 17l131 160q-12 8 -25.5 14t-30.5 16q-47 27 -92 63t-57 93v-2z" />
<glyph unicode="+" horiz-adv-x="823" d="M8 633v139h307v262q0 29 11.5 43.5t27 21.5t32.5 8t32 1q27 0 54.5 -10.5t37.5 -50.5q14 -49 17 -106.5t3 -113.5v-71h197q6 0 18.5 -8.5t26.5 -20.5t27.5 -24.5t17.5 -20.5v-31q0 -12 -6 -32.5t-18.5 -42t-28.5 -37t-37 -15.5h-221q-16 -66 -24.5 -141.5t-4.5 -140.5 q-6 -29 -16 -43.5t-23.5 -20.5t-29 -6h-31.5q-35 0 -55.5 12.5t-29.5 33t-10 44t-1 45.5v15q0 37 3 59t7 49t6 51.5t2 46.5q0 10 -14 11q-4 0 -8.5 1t-8.5 1q-14 0 -53 14q-4 2 -6 2t-4 2t-4 2h-17h-56t-44 2q-23 10 -49.5 32.5t-26.5 37.5z" />
<glyph unicode="," horiz-adv-x="479" d="M31 -125q0 33 6 51.5t17.5 28.5t26.5 14t36 8l24 11l-4 -4q4 4 10.5 8t10.5 10q-2 2 -4 3t-4 3q-14 10 -25.5 20.5t-20 25t-11.5 36t-3 57.5q0 84 53.5 128t128.5 71h31q37 0 63.5 -20.5t43 -50t23.5 -62.5t7 -57v-19q-20 -96 -49 -167.5t-82 -143.5l2 2 q-29 -41 -63.5 -48t-71.5 -7q-18 0 -42.5 2t-48.5 11t-39 29.5t-15 59.5zM236 162l8 -6q-4 4 -4 12q-2 -2 -2 -3t-2 -3z" />
<glyph unicode="-" horiz-adv-x="913" d="M45 539q0 41 29.5 64.5t66.5 35.5h56q16 0 31.5 1t21.5 1q16 0 40.5 -1t43.5 -1h20q10 0 27.5 -5t40.5 -13q10 -4 17 -7.5t18 -3.5h6q10 0 27.5 -1t27.5 -1h41t31.5 2t32 4t41.5 9l14 2q-2 0 2 2t10 4q4 2 10.5 3t10.5 3q6 2 12 2h22q18 0 37 -4t35.5 -14.5t26.5 -29 t10 -46.5q0 -53 -33 -81t-76 -40t-87 -14t-68 -2h-35q-2 0 -11 3t-18.5 5t-18.5 4t-11 2h-113q-16 0 -28.5 2t-28.5 6q-18 4 -34 6t-13 2h-15q-10 0 -27.5 1t-33.5 1h-39l10 -2q-18 2 -40.5 5t-42 13.5t-33 30t-13.5 52.5zM465 608q18 -6 16 -4z" />
<glyph unicode="." horiz-adv-x="413" d="M41 123v16q12 43 25.5 79t36 61.5t56.5 41t87 15.5q14 0 22 -2l17 -4q6 -4 17 -16.5t23.5 -27t22.5 -27.5t12 -19v-13q0 -10 1 -21t1 -20q0 -84 -38.5 -136t-137.5 -52q-23 0 -48 7t-46.5 21.5t-36 39t-14.5 57.5z" />
<glyph unicode="/" horiz-adv-x="704" d="M13 112q1 9 4 12t8.5 4t7.5 7q4 4 4 7t2 8q2 4 2 8q23 100 61.5 195.5t79.5 185.5q18 39 37 79.5t35 79.5q4 12 12 34t17.5 45.5t17.5 44t12 28.5l-4 -23q0 -2 3 10.5t5 22.5q4 14 8.5 29.5t4.5 28.5q2 2 9 14t11 20q6 18 10 23q10 23 16.5 43t16.5 45h-2q16 49 38 110.5 t47.5 114.5t55 92t60.5 45q35 -2 70.5 -25.5t39.5 -68.5v-4q0 -2 -1 -4t-1 -6q-8 -20 -28.5 -72.5t-45 -111t-46 -110.5t-29.5 -71l2 2q-27 -59 -45.5 -95t-48.5 -85l2 2q-23 -39 -40.5 -87t-33.5 -99q-8 -23 -16.5 -47.5t-16.5 -44.5q-4 -4 -6 -14.5t-6 -22.5h2 q-4 -14 -12 -34.5t-10 -25.5q-49 -94 -48 -118q2 -12 -4 -34t-15 -46.5t-18.5 -46t-13.5 -31.5q0 -4 -2 -8t-2 -7.5t-2 -7.5q-10 -35 -25.5 -61.5t-66.5 -30.5q-8 0 -12 -2q-51 -10 -70.5 -1t-24.5 73q-6 23 -5 32z" />
<glyph unicode="0" horiz-adv-x="1130" d="M41 467q0 86 21.5 166t46.5 158l3 9t5 11q0 4 1 9t5 16l-2 -5q2 12 7 33t9 29q6 14 17.5 35.5t22.5 45t21.5 42t14.5 26.5q10 16 18 23q2 2 4.5 3t4.5 3q47 41 90 79t90 66.5t102.5 45t124.5 16.5h19q18 -6 37.5 -15.5t35.5 -17.5l37 -18q-2 2 13.5 -4t27.5 -11 q4 6 5 11.5t5 11.5q20 43 44 78t79 35q57 0 73.5 -35t16.5 -82t-10 -68.5t-24 -46.5h-2q-4 -6 -5.5 -6t-3.5 -1t-3 -4t-5 -13q6 -12 13.5 -31t14.5 -35t13 -30.5t8 -20.5q-2 4 4.5 -17.5t10.5 -39.5q4 -27 11 -55.5t9 -35.5q0 10 4 0l8 -20q0 -4 1 -26.5t1 -41.5v-57 q0 -106 -11 -207.5t-43 -193t-92 -171t-159 -145.5q12 6 0 -1t-18 -13q-53 -35 -112.5 -68t-135.5 -33q-72 0 -127 22t-113 60q0 -4 -1 -6t-1 -6q-6 -18 -13 -37.5t-19.5 -35t-33 -25.5t-54.5 -10q-57 0 -70.5 30.5t-13.5 77.5q0 51 14 74.5t35 42.5q6 8 11 17t5 26 q0 14 -10 35.5t-23 40.5q-10 18 -22 43.5t-19 52.5q-14 68 -16 112t-2 103zM258 359.5q0 -21.5 1 -42t3 -36.5q18 31 48 80t65 106q43 72 80 135.5t51 85.5q16 25 33.5 51.5t33.5 53.5v-2q29 43 57.5 90t51.5 94l4 8t2 8q2 2 3 5t3 8v4q0 6 -8 10q-10 37 -51 49 q35 -10 39 -41q-14 8 -33 10q-16 -39 -53 -52t-82 -23q-27 -6 -52.5 -14.5t-39.5 -31.5q-27 -49 -55.5 -110.5t-50 -126t-36 -130t-14.5 -122.5v-26.5v-40zM379 102q4 -6 19.5 -13t35 -11t39 -7t27.5 -3q35 0 70.5 17t67.5 44t59.5 59.5t47.5 63.5l5 14v8q10 18 19 29.5 t22 22.5l24 26q2 2 6 16.5t8.5 31t7.5 30.5t3 16q16 59 22 119t6 119q0 84 -34 166q0 -2 -1.5 -2t-1.5 -2q-2 -4 -8 -14.5t-10 -22.5q-10 -18 -19.5 -35.5t-13.5 -23.5t-20.5 -29t-33.5 -48.5t-32.5 -47t-19.5 -25.5l4 2q-10 -18 -32.5 -55t-51.5 -84t-60.5 -100.5 t-61.5 -102.5t-54.5 -91t-38.5 -67zM637 946q16 4 26.5 11.5t18.5 17.5q4 12 6 16q4 15 -2 27q-2 4 -12 8q6 -23 -2 -44t-35 -36z" />
<glyph unicode="1" horiz-adv-x="792" d="M29 932q0 47 24.5 69.5t52.5 45.5q8 6 16.5 12t14.5 10q0 4 -2 6q0 2 -1 2t-1 2v2q4 6 29 31l-78 76h158q8 6 14 11t12 9q18 -4 32.5 5.5t31.5 21.5q25 23 49.5 41t58.5 18q33 0 55.5 -15t47.5 -60v-132q0 -51 -5.5 -98t-11.5 -92q-4 -37 -8 -73t-6 -76v-41v-60t-1 -69.5 t-1 -67.5v-55q0 -16 1 -59.5t1 -90.5v-106q14 -2 35.5 -2h38.5q31 0 62.5 -1t60.5 -12q41 -14 48 -39.5t7 -52.5q0 -6 -1 -23.5t-8 -36t-21.5 -32.5t-43.5 -14h-528q-27 0 -42.5 10t-22.5 25.5t-8 32t-1 26.5l74 92h129q4 16 9 29.5t9 29.5v52q0 23 1 41t1 26q0 20 -1 55 t-1 58v22q0 2 -2 9.5t-4 16.5t-5 17.5t-3 10.5v18q0 47 6 83t10 75q6 39 11.5 74.5t5.5 68.5q0 4 -1 13.5t-1 17.5v2q-4 -14 -9 -2q-10 10 -18 21.5t-12 17.5l-29 -29l-14 -12q-23 -25 -47.5 -43.5t-65.5 -18.5q-47 0 -74.5 32t-27.5 75zM289 930l10 -12q-2 0 -2 4 q0 8 -2 14z" />
<glyph unicode="2" horiz-adv-x="980" d="M33 92q0 59 18.5 109.5t47 95.5t65.5 85t74 77q12 12 24 23.5t23 25.5h-2l39 39q98 106 193 212.5t175 229.5q4 10 11.5 32.5t11.5 37.5v2h-35q-16 0 -42 1t-38 1q-57 0 -110.5 -10.5t-100.5 -40.5q-16 -10 -32.5 -26.5t-32.5 -33.5h2q-37 -39 -75 -69.5t-77 -30.5 q-10 0 -22 4q-6 2 -11 4q-14 10 -34.5 30.5t-30.5 35.5q-6 18 0 50t16 44q37 43 92.5 90t120 86t132 62.5t130.5 19.5q16 0 52 -4t77 -9t78 -10.5t51 -7.5q47 -41 76 -76.5t29 -99.5q0 -84 -46 -165t-96 -150q-12 -18 -25 -37t-24 -35l-426 -426q-8 -12 -14 -25 q-14 -18 -21 -32q31 0 60 3t67 13l23 10q29 18 43 19q4 2 10 2h10q10 0 17 -2q6 -2 12 -2q6 -2 12 -6q10 -6 11 -9q16 -2 32.5 -5t28.5 -7q33 -6 61.5 -13t56.5 -17.5t58.5 -27t67.5 -42.5l-2 2q16 -10 24.5 -17.5t11.5 -14.5t4 -17.5t1 -28.5q0 -41 -29 -75t-88 -42 q-10 6 -33.5 19.5t-51.5 28t-53.5 26.5t-37.5 16q-10 0 -22.5 1t-20.5 1q-35 0 -73 -4t-79 -10q-39 -6 -80 -11t-88 -5q-37 0 -68.5 3t-72.5 13q-45 16 -50 38.5t-5 51.5z" />
<glyph unicode="3" horiz-adv-x="897" d="M33 934q0 63 28.5 115.5t69.5 92.5t86 68.5t78 44.5q45 23 94 30t92 7q49 0 106.5 -14t105.5 -44t81 -76t33 -111q0 -59 -12.5 -127t-46.5 -134q-4 -4 -18.5 -24.5t-24.5 -36.5q70 -66 107.5 -132.5t37.5 -168.5q0 -76 -25.5 -153.5t-74 -141t-118 -103.5t-157.5 -40 q-41 0 -111.5 16t-139 49t-119 80.5t-50.5 110.5q0 10 6 22q4 8 7 17q4 4 11 12t16 17t17.5 18.5t14.5 15.5l-2 -4l25 25h30q4 0 7 1t6 1q39 0 60 -10.5t31.5 -27t12.5 -38t2 -43.5v-23q6 -6 27.5 -10t46 -7t46 -4t27.5 -1q82 0 118 34.5t54 104.5v8t5 15l-2 -5q4 12 7 27.5 t5 20.5v16q0 41 -6 68.5t-35 50.5q-6 6 -16.5 16t-20.5 16h-16q-12 0 -28.5 -4t-35.5 -10v2q-20 -6 -40.5 -12t-41.5 -6q-39 0 -78 25.5t-39 74.5q0 33 13.5 54.5t35 36t48 23.5t53.5 17h2q14 4 27.5 8t19.5 9q31 27 70 66.5t45 82.5v4q0 2 -1 4t-1 6v29q0 4 2 16.5t6 22.5 v-4q2 4 3 11t3 5q-4 20 -22.5 32.5t-40.5 23.5q-16 2 -41 2h-29h-43t-31 -2q-35 -4 -62.5 -24.5t-53.5 -43.5h2q-20 -18 -42 -34.5t-50.5 -29t-65.5 -19.5t-90 -7z" />
<glyph unicode="4" horiz-adv-x="1021" d="M4 520q0 6 4 24.5t10 28.5q41 53 94.5 111.5t100.5 99.5l27 13q10 14 25.5 34.5t19.5 24.5l16 16q12 14 47 56.5t74 89.5t73.5 87t43.5 50h-2q18 23 49.5 52.5t73.5 56t93.5 46t108.5 19.5q0 -49 -8 -85t-21.5 -62.5t-30 -46t-32.5 -37.5q-16 -16 -30.5 -35t-20.5 -29 q-33 -68 -38 -155.5t-5 -167.5v-29v-43t2 -49v-6l18 -1q17 -1 43.5 -3t54 -5.5t46.5 -5.5q4 -2 12 -1t16 3q27 4 49.5 4t39 -9t25.5 -29.5t9 -59.5q0 -2 -1 -6t-1 -8v-45q-8 -4 -26.5 -10.5t-40 -11.5t-40 -9t-24.5 -4q-12 0 -37.5 3t-56.5 7t-61.5 8.5t-53.5 8.5 q0 -14 -1 -41t-2 -60t-3 -67.5t-4 -65.5q27 -6 53.5 -12t36.5 -8h-4q12 -2 34.5 -9.5t45 -19.5t39 -30.5t16.5 -47.5q0 -45 -33.5 -68.5t-68.5 -23.5q-43 0 -80 6q-18 2 -34.5 4t-27.5 2q-27 0 -54 -4t-58 -8q-33 -6 -65.5 -11t-73.5 -5q-45 0 -61.5 28.5t-16.5 57.5t9 47 t24.5 28.5t37 16.5t43.5 12q10 4 21.5 6t15.5 6q4 25 7.5 63t7.5 77t7 71.5t5 46.5v27h-4h-367q-63 0 -76.5 25.5t-13.5 66.5zM319 614h158q4 6 4 7v26.5t2 34.5q2 25 3 52.5t3 56.5q-41 -45 -82.5 -89.5t-87.5 -87.5zM649 416l6 2q-4 0 -2 5t-4 3v-10z" />
<glyph unicode="5" horiz-adv-x="1101" d="M53 758v43q6 6 13 14q4 6 8 12.5t8 10.5q2 2 2 -7q16 35 17 69t-1 69v30q0 16 -1 48t-1 53v16q0 -2 -1 5t-5 16v-2q-4 20 -6 28t-2 15q0 20 13.5 40.5t31.5 38t39.5 27.5t36.5 10q25 0 41 -8t30 -18q6 -6 15 -6q23 0 41 6q37 10 65 10h15q4 0 16 -3t25.5 -6t26 -5 t14.5 -2h249q16 6 44 15t40 13q4 2 24.5 4t31.5 6l43 7q16 4 32.5 10t20.5 6q31 0 46 -12.5t21.5 -28.5t6.5 -33.5v-27.5q0 -39 -14.5 -62.5t-37 -37t-50 -19.5t-54.5 -10q-4 0 -8 -1t-8 -1h4q-84 -10 -169 -13.5t-171 -5.5q-59 -2 -118.5 -3t-121.5 -5q-4 -14 -4 -26.5 v-16.5q-2 -4 -2 -16.5t2 -24.5q8 4 16.5 7t18.5 7q33 14 66.5 24.5t76.5 10.5h25q8 0 12 -2q115 -14 204 -42t149.5 -80t92 -135t31.5 -210q0 -47 -2 -98t-16 -96q-23 -68 -67 -126.5t-97 -107.5q-94 -82 -197.5 -107.5t-220.5 -25.5q-166 0 -239.5 85t-73.5 243q0 8 1 22 t4 28.5t7 27t8 16.5l99 98q41 -84 53 -127t16 -72q4 -35 12.5 -63.5t45.5 -44.5q4 -2 10 -4q4 -2 7 -2t7 -2h6q16 0 48 5t69 9q39 4 69.5 7t45.5 5q66 31 107.5 70t66 88t35 110.5t10.5 137.5v8q-6 18 -19.5 37.5t-30 38t-33.5 34t-30 25.5q-37 31 -92 40t-104 9 q-4 0 -18.5 -1t-24.5 -1h-21q2 0 -20.5 -10t-38.5 -18q-4 -2 -7 -4t-14 -13q-14 0 -10 2q-4 -2 -8 -2t-8 -2t-9 -2q-14 -10 -21 -20.5t-15 -20.5q-23 -35 -54.5 -61.5t-91.5 -26.5q-31 0 -48 11.5t-25.5 27.5t-9.5 35.5t-1 36.5zM313 1092q2 2 2 6q0 -2 -1 -3t-1 -3z" />
<glyph unicode="6" horiz-adv-x="1077" d="M35 432q0 160 51 289t137 252q43 61 95.5 118.5t115 102.5t135 72.5t154.5 27.5h25q6 0 10 -2l157 -80q18 -10 28.5 -38.5t15 -60.5t5.5 -58.5t1 -32.5q-43 0 -70 4t-45.5 10t-29.5 15.5t-21 17.5q-6 6 -14.5 12t-16.5 9h-4q-10 0 -30.5 1t-31.5 1q-10 0 -32.5 -1 t-34.5 -1h-10q4 0 0 -5q-49 -29 -102.5 -65.5t-86.5 -81.5q-10 -14 -32.5 -48t-47 -71t-46 -70.5t-29.5 -48.5q-8 -27 -18.5 -61.5t-20 -71.5t-14.5 -71.5t-5 -63.5q0 -20 5 -51t16 -59v73q0 16 3 23.5t11 15.5q4 8 12.5 20.5t12.5 16.5l-2 -4q47 78 87 129t88 81t110.5 42 t154.5 12q98 0 182 -47t131 -143v-17.5t2 -23.5t2 -24.5v-20.5q0 -12 -1 -34t-3 -36v-10q-2 -4 -7 -16.5t-11 -26t-11.5 -25.5t-9.5 -16q-100 -147 -232 -234.5t-317 -87.5q-76 0 -138 30t-112.5 79t-90 109.5t-68.5 121.5v68q0 18 -1 33.5t-1 21.5zM459 174l12 -18 q53 2 102.5 15t92.5 48l-4 -2q10 10 35.5 33.5t52 51.5t50 52.5t31.5 32.5l-2 -2q10 16 15.5 40t5.5 46q0 23 -17.5 37t-44 22.5t-54 11.5t-50.5 3q-53 0 -107.5 -29t-78.5 -74q-4 -8 -11.5 -19t-13.5 -20.5t-10 -16.5t-4 -5v-207z" />
<glyph unicode="7" horiz-adv-x="1110" d="M49 944q4 76 7 155t7 156q4 29 14.5 42.5t25 19.5t28.5 6h25h22q16 0 26.5 -6t22.5 -14h-2q10 -4 20.5 -13.5t2.5 -5.5l16 -8q-2 0 4 1t17.5 1h24h22.5h4q10 0 35.5 3t52.5 5t50.5 4t29.5 2h414q2 0 14 2t26.5 4t27.5 5.5t18 3.5h10q27 0 45 -10.5t28.5 -27t15.5 -34.5 t5 -37v-10v-17q0 -6 -2 -12q-35 -49 -71 -92t-72 -90q-35 -43 -69 -85t-67 -89l2 2q-25 -39 -50 -77t-50 -77q-23 -35 -45 -69.5t-45 -69.5q-63 -96 -119.5 -195.5t-77.5 -207.5q0 -6 -3 -21.5t-5 -34t-4 -35t-2 -22.5q-2 -8 -2 -25q-2 -27 -4 -44t-12.5 -27.5t-30 -14.5 t-55.5 -4q-18 0 -39 5t-38.5 16.5t-27.5 31t-10 48.5q0 47 11 90t28 84q4 6 8 18t8 19q2 2 6 15t11 30q8 20 15 38.5t9 22.5q47 111 105.5 209t119.5 197h-2q4 6 20.5 30.5t36 54t39 57t27.5 40.5q16 25 37 54.5t37 51.5q18 29 36.5 54.5t39.5 56.5q-2 0 -2 2h-154 q-8 -4 -15 -8t-14 -6q-20 0 -61 -1t-61 -1h-15q-12 0 -41.5 -3.5t-61.5 -5.5t-59.5 -4t-33.5 -2q-4 0 -15.5 3t-23.5 7v-188q0 -27 -12.5 -41t-28 -21.5t-30.5 -8.5t-21 -1q-49 0 -78 39t-25 80z" />
<glyph unicode="8" horiz-adv-x="927" d="M43 381v96q8 8 21.5 25.5t15.5 21.5q29 47 57.5 85t71.5 73q-18 16 -40 36.5t-22 22.5q-6 8 -12 31t-12 49.5t-11.5 53t-9.5 43.5v16q0 106 34 178t94.5 116t141.5 62.5t175 18.5q53 0 90 -13.5t65.5 -37t51 -55.5t45.5 -68v2l12 -17q23 -35 31 -70.5t8 -72.5 q0 -59 -19.5 -118.5t-48.5 -108.5v2q-6 -10 -13 -20.5t-17 -20.5q-6 -8 -11.5 -14.5t-9.5 -14.5q63 -63 106.5 -148t43.5 -178q0 -8 -1 -20t-1 -21v-8q0 -4 -6.5 -20.5t-10.5 -28.5q-4 -10 -9 -20.5t-9 -14.5q-41 -70 -84 -113.5t-92.5 -68.5t-110.5 -34t-139 -9 q-8 0 -21.5 1t-23.5 1h-17q-154 29 -233.5 128t-79.5 253zM229 328q0 -33 21.5 -57.5t53.5 -40t68 -22.5t66 -7q4 0 13.5 1t19.5 1q25 14 59 18q4 2 7.5 2t1.5 -2q8 4 14 9.5t16 11.5q20 12 42 27.5t40.5 30.5t30.5 32.5t12 32.5q0 33 -14 60.5t-35 55.5q-6 10 -18.5 24.5 t-24.5 29t-22.5 25.5t-12.5 13t-12 4.5t-22.5 4.5t-24.5 4t-19 2q-20 4 -44.5 -10.5t-47.5 -28.5q-4 -2 -11 -6t-11 -6l6 2q-66 -39 -109 -88t-43 -123zM315 897q0 -10 1 -25.5t1 -27.5v-8q4 -4 6.5 -8.5t4.5 -8.5q6 0 29.5 -6t37.5 -10h-2q31 -6 69 -9t73 -3h20 q37 33 73 84t36 94v8v10t-5 10q-10 10 -20 31l4 -6q-20 33 -41.5 59.5t-56.5 26.5t-71 -7t-75 -18q-4 -2 -10 -3t-10 -3q-20 -6 -33.5 -27.5t-20 -47t-8.5 -54t-2 -51.5z" />
<glyph unicode="9" horiz-adv-x="968" d="M29 920q0 63 27.5 118.5t71.5 101.5t98.5 80.5t105.5 53.5h-2q45 16 75.5 18t67.5 2h66q35 0 68.5 -3t74.5 -17q25 -10 42 -19.5t33.5 -21.5t33 -29.5t36.5 -42.5q2 -2 14.5 -19.5t14.5 -21.5q0 4 4 2t10 -4q33 -10 58.5 -26.5t25.5 -61.5q0 -2 -1 -5t-1 -9q0 -29 -8 -39 t-18 -19q0 -23 4 -34q-8 -16 -32 -63.5t-50.5 -99.5t-49 -98.5t-30.5 -62.5l-12 -39q-6 -16 -11 -31q-2 -8 -4 -12q-8 -16 -29.5 -56t-45 -84t-45 -82t-31.5 -52q-2 -4 -20.5 -30t-42 -57.5t-47 -65.5t-36.5 -52l-12 -16v2q-16 -27 -38.5 -47.5t-63.5 -20.5q-39 0 -75 27.5 t-36 74.5q0 16 2 25q2 8 2 12q10 10 19.5 22.5t19.5 24.5t20.5 24.5t8.5 10.5q4 4 9 14.5t9 20.5q8 16 15.5 32.5t9.5 20.5l43 41q4 10 11 21.5t11 19.5v47q4 10 14.5 21.5t20.5 21.5q2 4 4 7.5t4 7.5l-2 -9q0 2 1 2t1 -2q6 23 13.5 36.5t15.5 27.5q10 18 19.5 35.5 t7.5 21.5q4 6 11 19.5t17.5 31t21.5 37t19 33.5q-47 -18 -95 -28.5t-107 -10.5q-94 0 -164 41t-129 113q-25 33 -34 58.5t-9 60.5zM231 920q0 -23 17.5 -38.5t42 -25.5t53.5 -15t53 -5q43 0 85 16t78 45t65.5 65.5t48.5 77.5q-10 14 -29.5 34t-32.5 32q-8 -4 -18 -8t-14 -6 q-8 0 -28 -1t-38 -1h-53q-12 -4 -38 -13.5t-36 -13.5h2q-27 -10 -55.5 -23.5t-51 -31t-37 -38.5t-14.5 -50zM909 946q2 2 4 3t5 3q-5 -2 -9 -6zM924 967q2 2 2 6q0 -2 -1 -3t-1 -3z" />
<glyph unicode=":" horiz-adv-x="397" d="M45 748q0 68 39 108.5t98 40.5q25 0 52.5 -3t51 -15.5t38 -36t14.5 -66.5q0 -74 -50 -125t-120 -51q-29 0 -52.5 13.5t-39 35t-23.5 48t-8 51.5zM59 221q0 66 25 98.5t90 32.5q72 0 118 -34.5t46 -114.5q0 -70 -38 -108t-101 -38q-72 0 -106 48t-34 116z" />
<glyph unicode=";" horiz-adv-x="460" d="M51 109q0 41 8.5 78.5t26.5 67.5t50 48.5t79 18.5q59 0 100 -41t66 -97.5t36 -118t11 -102.5q0 -47 -14.5 -94t-44 -86t-72.5 -62.5t-98 -23.5t-85 19t-30 85q0 53 24.5 78t55.5 47q14 10 25.5 19.5t11.5 19.5q0 4 -10.5 10.5t-24.5 12.5q-29 16 -58.5 39.5t-56.5 81.5z M51 694q0 63 33 112.5t106 49.5q74 0 124.5 -32.5t50.5 -114.5q0 -70 -44.5 -109t-115.5 -39q-25 0 -51.5 8.5t-50 24.5t-38 40.5t-14.5 59.5z" />
<glyph unicode="&#x3c;" horiz-adv-x="882" d="M0 383q0 6 4 23q2 8 2 14q6 23 24.5 35t41.5 22h2l2 2q8 8 25.5 27.5t38 42t37 41t20.5 22.5l-4 -2q10 10 19 19.5t19 19.5q80 88 163 170t190 150q20 16 37 22q6 2 14 4q16 4 20 4q12 0 25 -4q6 -2 10 -4q12 -6 32.5 -32.5t27.5 -43.5q-2 -43 -33 -82.5t-51 -56.5 q-12 -10 -43 -35.5t-43 -35.5l-29 -29t-43 -41q-29 -27 -63.5 -59.5t-67.5 -63.5t-59.5 -56.5t-43.5 -41.5q14 -4 25.5 -6t15.5 -2q4 -2 22.5 -13.5t29.5 -21.5q4 0 15 -4.5t17 -8.5q10 -6 21.5 -9t15.5 -5q14 -6 37 -19.5t46.5 -25.5t41 -22.5t19.5 -12.5q8 -6 26.5 -22.5 t39 -38t41 -42t34.5 -36.5q12 -2 25.5 -4t25.5 -12q43 -16 48 -41t5 -54v-12q0 -23 -1 -41t-9 -33.5t-26.5 -23.5t-51.5 -8q-25 0 -42 5t-40 23l-4 4q-10 12 -36.5 39t-57.5 57.5t-57.5 57.5t-38.5 37h2q-14 12 -49 27.5t-62 27.5l4 -2q-16 8 -20 8q-10 4 -29.5 12.5 t-38 15.5t-33 13t-16.5 6q-6 0 -18.5 1t-24.5 3q-33 4 -64.5 11.5t-56 23t-40 43t-15.5 74.5z" />
<glyph unicode="=" horiz-adv-x="1087" d="M57 633q0 43 17.5 65.5t44 30.5t58.5 7t59 -3h4q10 -2 11 -2h5q10 2 21.5 4t21.5 4q16 4 25.5 6.5t27.5 2.5h27q37 0 63.5 -3.5t55.5 -7.5t56.5 -6t49.5 -2q8 0 19.5 1t15.5 1l8 4l25.5 8.5t17.5 4.5q12 0 39 -17h182q6 0 19.5 -8t27 -19.5t25.5 -23.5t14 -21v-55v-33.5 t-6 -33t-22.5 -25.5t-46.5 -10h-19q-6 0 -26.5 3t-44 5t-44 4t-24.5 2h-184q-10 0 -23.5 1t-26.5 5l-49 8q-18 2 -65 2h-101h-99t-66 -2h-5q-8 0 -35.5 13.5t-39.5 23.5q-6 16 -9.5 37t-3.5 29zM88 293q0 33 15.5 56.5t58.5 45.5q16 0 40.5 -1t41.5 -1q49 0 99 3t99 12 q51 6 102.5 11t110.5 5q16 0 48 -1t55 -1h24q23 0 64 -9.5t81 -26.5t70.5 -45t30.5 -69q0 -14 -1 -30.5t-10 -30.5t-27.5 -23.5t-53.5 -9.5q-45 10 -90 14.5t-90 8.5q-23 2 -44.5 2t-43.5 4q-10 0 -23.5 2t-30.5 6q-33 6 -43 6q0 -2 -2 -2q-6 0 -10 -2q-10 -4 -19.5 -6 t-19.5 -4q-16 -2 -41.5 -7t-49 -10.5t-41 -8.5t-21.5 -3h-15q-16 0 -35.5 -1t-31.5 -1q-4 0 -15.5 1t-23.5 1h-53q-33 10 -69 40t-36 75z" />
<glyph unicode="&#x3e;" horiz-adv-x="802" d="M49 969h137q61 -51 132 -103.5t146 -102.5t150.5 -95t149.5 -80q23 -25 30 -44.5t7 -43.5q0 -33 -5 -44.5t-36 -33.5q-4 -2 -15.5 -8t-23.5 -15q-12 -6 -28.5 -16t-12.5 -8q-10 -8 -29.5 -24.5t-42.5 -33.5q-27 -23 -54.5 -46t-35.5 -29t-42 -31t-72.5 -53.5t-71.5 -53 t-41 -30.5l4 2l-25 -25l-20 -4q-20 -4 -23 -4q-61 0 -74.5 27.5t-13.5 74.5q0 33 20.5 62t50.5 51.5t61.5 39.5t54.5 28q47 47 96 90t96 90q-12 8 -32.5 21.5t-45 29.5t-50 33.5t-48.5 34.5q-23 16 -42 27.5t-32 21.5q-10 6 -18 11t-23 13q-29 18 -60.5 40t-57 52.5 t-43 73.5t-17.5 105z" />
<glyph unicode="?" horiz-adv-x="825" d="M23 1036v37l4 17q2 4 2 6t2 6t2 6q4 6 10 18.5t8 14.5q8 14 21.5 36.5t27 44t23.5 39t12 19.5q25 33 59.5 51.5t71.5 26.5t74 9t68 1h12q94 0 165.5 -19.5t120 -62.5t73 -111.5t24.5 -168.5v-39q0 -12 -2 -27q-4 -10 -13.5 -31.5t-13.5 -31.5q-35 -57 -80 -98.5 t-94 -80.5v2q-39 -33 -73.5 -63.5t-61.5 -69.5q-6 -6 -13.5 -18t-15.5 -24.5t-13 -22.5t-5 -13q-2 -8 -6 -32.5t-6.5 -52t-3.5 -51t-1 -34.5q-16 -51 -37.5 -60t-48.5 -9q-45 0 -68.5 22.5t-34.5 53t-12 63.5t-1 53q0 74 17 130.5t47 99.5t68 78.5t79 70.5h-2q41 35 82.5 75 t72.5 89q4 8 12.5 20.5t8.5 10.5v6q0 8 1 18.5t1 16.5q0 53 -44 80.5t-98 27.5q-43 0 -87 -8t-76 -37v2q-4 -6 -17.5 -24.5t-23.5 -34.5q0 -4 -1 -6t-3 -10q-4 -20 -12.5 -46t-30.5 -36l8 10q-14 -8 -28.5 -14.5t-25.5 -6.5q-45 0 -62 13.5t-40 44.5q-4 4 -12 13t-10 11z M227 59q0 74 44 101.5t104 27.5q37 0 66.5 -3t51 -15t33 -38t11.5 -71q0 -84 -45.5 -117.5t-116.5 -33.5q-68 0 -108 36.5t-40 112.5z" />
<glyph unicode="@" horiz-adv-x="1296" d="M43 614q0 68 8 131.5t27 124.5q0 8 5 18.5t9 14.5q4 10 8 15q45 70 109.5 143.5t143.5 133.5t167 99t178 39q4 0 13.5 -1t13.5 -1h16q145 -18 243.5 -50t159 -92.5t86 -156.5t25.5 -246q0 -14 -1 -37.5t-1 -39.5v-23q-6 -49 -26.5 -92t-50 -81t-64.5 -72.5t-68 -65.5 q-4 -4 -5 -4t-5 -4q-31 -29 -50 -37t-46 -11q4 -4 12 -4l-2 2q45 -14 52.5 -40.5t7.5 -57.5v-14t-2 -21q-2 -12 -5 -26q-16 -6 -28 -15q-23 -12 -41 -16h4q-106 -41 -209.5 -72.5t-226.5 -31.5q-45 0 -79 8t-62.5 22.5t-55.5 36t-57 47.5q-104 94 -153.5 216t-49.5 261z M293 801l61.5 61.5l40.5 40.5q6 6 20.5 17.5t31 24.5t33 26.5t24.5 19.5l-6 -2q43 35 94 40t100 5h135q59 -23 85 -61.5t26 -95.5q0 -43 -11.5 -80t-25.5 -72q-10 -29 -20.5 -54.5t-10.5 -49.5v-22.5v-29t1 -24.5l1 -10q23 0 51.5 20t53 49t43 62.5t20.5 60.5v27 q0 16 1 37.5t1 33.5v23q0 39 -2 79t-22 68q-4 4 -17.5 11.5t-25.5 17.5q-6 4 -12 10q-47 37 -113 53.5t-127 16.5q-41 0 -75 -3t-68 -24q-12 -6 -39 -23.5t-57.5 -38t-58.5 -39t-38 -28.5q-35 -31 -57.5 -68.5t-36.5 -78.5zM295 440q31 -84 111 -151q29 -27 82 -32t96 -5 q29 0 61 13.5t55 23.5q18 10 39 19t49 18q-20 16 -29 24t-12.5 14.5t-5.5 11.5t-8 15q-8 10 -15 19.5t-11 15.5q-8 -4 -19 -14q-41 -39 -55 -45q-35 -25 -56.5 -28t-52.5 -3h-20q-84 0 -132 27.5t-77 76.5zM471 506q0 8 4 12h-4v-12zM471 522q27 4 54.5 31t51 63.5t40 76.5 t20.5 71h-14l-2 -2q-16 -10 -40 -27.5t-40 -29.5q-8 -8 -19.5 -16.5t-23 -15.5t-19.5 -11l-8 -5v-135z" />
<glyph unicode="A" horiz-adv-x="1353" d="M16 -33q0 6 4.5 21.5t9.5 34t11 36t10 25.5t6 16.5t6 18.5v-2q10 25 21.5 49t21.5 45q8 10 35 52t57.5 90t57.5 91t33 54q4 4 6 12q-14 8 -29 41q0 12 8.5 30.5t20.5 39t25.5 39t23.5 28.5q8 4 25.5 9t29.5 8l9 8q6 10 11 17t7 9l21.5 43t25.5 51.5t21.5 45t11.5 24.5 q4 8 15 37t25.5 66.5t30 80.5t29.5 80q12 33 20.5 54.5t12.5 31.5l-2 -2q12 39 34.5 62.5t71.5 23.5h17q10 -2 51 -11t78 -23q-2 -8 -3 -20.5t-3 -26t-2 -23.5v-14h2q14 -10 29.5 -22.5t25.5 -47.5v2q57 -193 127 -377t152 -371h-3l12.5 -25t14.5 -30v2q27 -57 54.5 -124.5 t27.5 -133.5v-8v-31.5t-6 -32t-22.5 -23.5t-49.5 -9q-31 0 -52.5 12t-37.5 30.5t-27.5 40t-19.5 42.5l-4 8t0 4q-8 6 -16.5 18.5t-10.5 28.5q-2 6 -4 13.5t-4 17.5q-6 20 -10 40.5t-6 24.5t-17.5 40t-34.5 79h3q-10 25 -20.5 49.5t-18.5 40.5v-2l-7 6q-8 4 -14 7.5t-12 13.5 h-8q-12 0 -23.5 1t-17.5 1q-45 0 -90 -5t-93 -12q-35 -4 -69.5 -8t-69.5 -8h-12q-4 0 -10.5 1t-12.5 1h-12q-10 -2 -21.5 -13t-22.5 -26.5t-20.5 -33t-15.5 -29.5q-10 -18 -21.5 -36t-21.5 -36q-31 -57 -66.5 -126t-76.5 -165q-12 6 -13.5 15.5t3.5 15.5q-10 -10 -21 -27 l-2 -2q0 -2 -1 -2t-1 -2t-2 -2q-2 -4 -1 -8t1 -8q0 -29 -8 -54.5t-60 -58.5q-6 -2 -14 -4q-16 -4 -20 -4l-21 4q-8 2 -18 6l-31 31l-10 20q-4 8 -6 17zM655 705h217q-23 53 -47 107t-51 108q-6 -14 -11 -24.5t-9 -16.5q-2 -2 -8.5 -13.5t-12.5 -26t-12 -25.5t-8 -13 q-6 -12 -18.5 -35t-26.5 -45z" />
<glyph unicode="B" horiz-adv-x="907" d="M55 -47q0 14 1 50t2 75t2 73.5t3 47.5q0 10 3.5 35.5t7.5 58.5t9 70.5t9 70.5q6 37 9 65.5t5 39.5v-3q18 135 25.5 268.5t7.5 266.5q0 47 -1 96.5t-3 96.5l17 39q27 31 52 33.5t50 2.5h8q78 0 163 -11t166 -38.5t153.5 -76t123.5 -123.5v-35q0 -8 1 -14.5t1 -10.5v-33 q0 -10 -2 -24q-8 -57 -26.5 -100.5t-44 -76t-61.5 -58t-79 -48.5q20 -18 43 -41.5t44.5 -48.5t39 -51.5t25.5 -52.5v-103q0 -53 -4 -98t-31 -100q-25 -49 -66.5 -90.5t-94 -71t-107.5 -46t-109 -16.5q-10 0 -33.5 11.5t-41.5 25.5q-14 16 -19 31q-10 -6 -18.5 -11t-14.5 -10 q-18 -6 -32 -20q-10 -10 -22.5 -18.5t-33 -14.5t-50.5 -9t-77 -3zM111 84l2 4q-2 -2 -2 -4zM338 143q18 10 43 17.5t51 13.5q20 4 38.5 8t31.5 13l-2 -2q23 14 42 45.5t34.5 69.5t24.5 77t9 68q0 18 -16 31.5t-40 23.5t-50.5 16t-48.5 8h-9h-24t-31 3q-18 2 -39 1l19 -4 q-10 0 -17.5 2.5t-15.5 4.5v-396zM338 762q49 6 106.5 23.5t107.5 44t83 61.5t33 78q0 47 -26 79.5t-65.5 52t-88 28t-91.5 8.5h-35h-10q-4 -10 -9 -17.5t-5 -3.5v-354zM358 1151l7 2h-5q0 -2 -2 -2z" />
<glyph unicode="C" horiz-adv-x="1179" d="M29 596v45q10 51 23.5 97t41.5 96q0 -2 10.5 11t18.5 27q8 10 13 18.5t7 10.5q6 10 16.5 31.5t12.5 25.5l96 97q29 29 52.5 53.5t33.5 34.5l47 47h-2q55 57 114.5 103t150.5 46q8 0 22 -1t25 -1h8q6 0 21.5 -5t31.5 -9q12 -2 28.5 -4t37.5 -4q20 -4 41.5 -6t31.5 -6l-6 4 q31 -6 58.5 -20.5t52 -35t47 -42t41.5 -42.5q8 -6 20.5 -18t14.5 -14q-27 -66 -52 -82q4 -12 8.5 -23.5t4.5 -13.5q0 -27 -10.5 -41t-23.5 -21.5t-27.5 -8.5t-22.5 -1h-39l-23.5 23.5t-15.5 17.5l4 -4q-20 23 -44 48.5t-50.5 46t-53 33.5t-53.5 13q-16 0 -26 -4t-27 -12 q-4 -2 -12 -5t-12 -7l6 2q-100 -49 -170 -131t-111 -191v2q-6 -18 -17.5 -49t-22.5 -61.5t-19 -53t-11 -26.5v-4q0 -6 -1 -15.5t-1 -13.5t1 -9t1 -12v-14v6q10 -49 28 -99t45.5 -93t65.5 -74t85 -41v62q37 0 59.5 -2.5t37.5 -6.5t25.5 -9t20.5 -9q6 -6 21 -6q8 0 16 2 t22.5 11t39 28.5t65.5 52.5v-55l4 4q10 8 19.5 15t33 18.5t65.5 27t115 39.5q-35 -63 -47 -81.5t-16 -20.5q16 -10 25.5 -26.5t9.5 -41.5q0 -16 -2 -24t-2 -15q-2 -2 -12.5 -10t-22.5 -16.5t-23.5 -16.5t-19.5 -12l8 4q-4 -4 -19.5 -15.5t-33.5 -27.5q-12 -8 -25.5 -18.5 t-23 -17.5t-12.5 -9t6 6q-53 -39 -103.5 -50t-105.5 -11q-82 0 -155 20.5t-146 61.5l-9 6q-55 49 -114.5 104t-106.5 119.5t-77.5 139.5t-30.5 159zM117 504v-6q0 -22 14 -31l4 -2q-8 4 -11 14t-2 22.5t5 23t10 14.5q-18 -8 -20 -35zM776 1321q4 0 5 -1t3 -1q-2 0 -3 1t-5 1 z" />
<glyph unicode="D" horiz-adv-x="1200" d="M63 117q0 14 2.5 68.5t4.5 117t5 116.5t3 68v39q-1 15 -1 30q0 30 3 62q4 46 26 87q-2 25 -1 62.5t1 78.5v95t3 63q0 10 2 27.5t6 33.5q2 16 3 31.5t3 11.5q-2 8 -7 32.5t-7 30.5v35q6 16 25.5 53t47.5 58q12 4 42 7t62.5 6t62.5 5t40 2q10 -2 33.5 -6t48.5 -10t47.5 -10 t28.5 -6l-8 2q6 0 34.5 -4.5t60.5 -9.5t60.5 -9t36.5 -6q82 -20 146.5 -70.5t113.5 -116t83 -138t56 -140.5v2q4 -8 9.5 -24.5t10.5 -35t9 -33.5t6 -26q0 -8 -2 -27.5t-5 -40t-6 -38t-3 -25.5v4q-2 -16 -2 -33.5v-33.5q-4 -78 -17.5 -155t-64.5 -146q-29 -43 -86 -67.5 t-107 -41.5h2q-10 -4 -18 -6t-18 -6q-4 -2 -15.5 -7t-21.5 -12q-10 -4 -22.5 -8t-18.5 -6l14 2q-90 -35 -207.5 -57.5t-224.5 -22.5q-16 0 -18 -1t-17 1q-14 -10 -25.5 -11t-23.5 -1q4 0 4 -4q-8 -6 -23.5 -13.5t-30.5 -13.5t-29.5 -10t-18.5 -4q-8 2 -20.5 11t-26 20.5 t-22.5 24t-11 18.5t-4 24.5t-5 40t-5.5 40t-2.5 26.5zM324 338q0 -14 1 -39t2 -48.5t2 -40.5l1 -17h-2q4 -8 10 -15.5t12 -17.5q0 4 9.5 7t17.5 3q41 0 64.5 5t47.5 9q47 12 97 19h55q4 0 8 1t21 7v-2q39 20 78.5 43.5t73.5 51.5t60.5 61.5t37.5 74.5q4 8 7 26.5t7 40t8 41 t6 30.5q-2 43 -13 92t-28 90q-20 59 -43.5 105t-55.5 82t-75 64.5t-102 53.5q-14 6 -38 15.5t-47.5 17.5t-42 15t-22.5 7q-8 0 -20 1t-19 1q-35 0 -59.5 -6t-58.5 -20v-758z" />
<glyph unicode="E" horiz-adv-x="890" d="M68 88q2 31 6 104.5t8 155.5q4 84 8 155.5t6 100.5v6q-4 8 -9 19.5t-9 17.5q2 18 3 69.5t1 100.5v91t-2 61q0 10 -1 48t-5 83q-2 45 -4 85t-2 50v10q0 31 11 47.5t28.5 24.5t36 8h32.5h2h40.5t33.5 -2t32.5 -6t39.5 -10h458l92 -39l-36 -82q-2 -6 -21.5 -15.5t-43 -16.5 t-48.5 -13t-39 -6h-217q-47 0 -93 -1h-29q-28 0 -52 1q-2 -27 -5 -78t-7 -106.5t-8.5 -107.5t-6.5 -81h103q27 16 54.5 18t49.5 -2h43q10 0 25.5 -1t19.5 -1q41 -20 57.5 -58t16.5 -63v-22q-6 -10 -27.5 -31.5t-34.5 -28.5q-23 4 -52 4.5t-60 0.5h-58.5t-39.5 -3 q-23 -2 -56 -3t-43 3v-374h43q35 0 71 2t75 6q37 4 75.5 7t79.5 3h13q35 0 63.5 -3t73.5 -23q8 -8 14 -17q4 -8 8 -18.5t4 -20.5q0 -29 -22.5 -53.5t-53 -42.5t-62.5 -28.5t-50 -12.5q-14 0 -62.5 -2t-103.5 -6q-51 -4 -99 -4h-61h-6q-2 -18 -19.5 -32.5t-64.5 -14.5 q-49 0 -70.5 30.5t-31.5 65.5q0 6 -4 14q-2 4 -2 8z" />
<glyph unicode="F" horiz-adv-x="1089" d="M59 16q0 4 1 10.5t1 10.5v20q0 2 2.5 14.5t4.5 24.5q4 16 6 29.5t2 9.5q4 31 8 84t9 106.5t8 95.5t3 50q2 39 3.5 131t1.5 199v105t-1.5 97.5t-2.5 80t-1 53.5l25 186q10 -6 18 -20q2 10 2.5 18t0.5 16h294q6 4 15.5 8.5t13.5 6.5h33q16 0 37.5 1t31.5 1q16 0 46 -1 t55 -1h31q4 0 19 -2t32 -7q4 -2 9 -2t9 -2q6 -2 8 -2h119q6 0 22.5 -2t36 -5t41 -5t35.5 -6q39 -14 45.5 -35.5t6.5 -48.5q0 -23 -7.5 -43.5t-35.5 -54.5q-20 -2 -66.5 -4.5t-105 -5.5t-123 -6t-123 -6t-104.5 -5t-66 -4q-8 0 -20.5 1t-22.5 1q-16 2 -36 2t-36 -4 q-10 -51 -13 -107.5t-7 -105.5h10q25 0 53.5 1t54 1h47h31.5h-4q10 0 32.5 -1t50.5 -2t58.5 -3t57.5 -4q25 -2 41 -3t26 -1q6 0 18.5 -6.5t26 -15.5t25.5 -18.5t14 -15.5q2 -2 2 -8v-20q0 -29 -9 -48.5t-32 -48.5q-10 -2 -33.5 -6t-49 -7t-49 -5t-31.5 -2h-115q-12 0 -40 -2 t-59.5 -4t-61.5 -4t-48 -4q-4 0 -6 -1t-4 -1q-2 2 -4 12l-4 20v-448q8 -29 12 -55.5t4 -57.5v-20q0 -6 -2 -9q-4 -10 -11.5 -20t-17.5 -20v-33q0 -25 -16.5 -45.5t-39 -33.5t-48 -21.5t-41.5 -8.5q-47 0 -75 18.5t-28 73.5z" />
<glyph unicode="G" horiz-adv-x="1124" d="M39 528q0 25 1 67t1 71v24q0 4 2 16.5t5 27t5 26.5t4 18q33 111 83 212.5t123 178t172.5 122.5t230.5 46h22q10 0 27.5 -2t32.5 -6q10 -2 18 -2t18 -2l4 2q8 2 17 6q6 4 13 5t9 1q10 0 23 -6q8 -4 16 -6l25 -22q49 -55 93 -119t54 -148q0 -6 -4 -22.5t-8 -26.5 q-4 -8 -8 -15t-12 -16q-8 -8 -13.5 -16t-36.5 -12q-4 -2 -12 -2q-45 0 -61.5 27.5t-20.5 58.5l2 -4q-20 27 -50 52t-61.5 44.5t-66.5 32t-68 12.5q-23 0 -42 -1t-37 -7q-61 -55 -116.5 -118.5t-96.5 -139.5q-12 -23 -29.5 -64t-33 -86t-27 -87t-11.5 -66q0 -51 13.5 -127 t42 -145.5t73.5 -119t107 -49.5q90 0 155.5 39t124.5 113q16 41 27.5 82t17.5 84h-159q-2 0 -10.5 6t-19.5 14t-20.5 18.5t-15.5 18.5q-4 20 -4 33l-20 20q-2 6 -4.5 22.5t-5.5 36t-5 38t-2 26.5q78 0 137.5 -3t102.5 -7q53 -4 110 -8q24 -2 52 -2q44 0 100 4l22 -68v2 q6 -16 14.5 -34.5t8.5 -38.5v-9q0 -10 -5 -25.5t-9 -25.5v-463h-49q-2 -29 -2.5 -54.5t-0.5 -41.5q-37 0 -49 -2t-16 -4q2 0 0 -2q-30 -27 -57 -27q-8 0 -20.5 8.5t-26 20.5t-23.5 25.5t-14 23.5l4 -18q-10 23 -5 43t9 41l-2 -4v6q-74 -35 -155 -53.5t-159 -18.5 q-119 0 -205.5 53t-156.5 146q-2 4 -11.5 20.5t-19.5 36.5t-20.5 40.5t-14.5 31.5l2 -2q-12 18 -13 36.5t-5 32.5q0 4 -1 8.5t-1 6.5v79q0 27 -1 49.5t-1 32.5zM1053 481l2 8l-2 -4v-4z" />
<glyph unicode="H" horiz-adv-x="980" d="M66 61q0 31 3 53.5t11 53.5v803q0 6 2 27.5t5 47t6 49t3 35.5q2 6 6 23.5t9.5 37t10.5 37t7 25.5q8 25 27.5 37.5t44 17.5t51.5 5h49q0 -66 -3 -115t-7 -82t-6 -63.5t-2 -61.5v-35q2 -18 5 -45.5t6 -56.5t7 -54.5t6 -37.5l4 -2l42 -6t56.5 -9.5t52 -9.5t30.5 -4h110h60.5 t44.5 4q8 31 9 65t1 66v35q0 33 -2 68t-6 69q-4 35 -6.5 70t-2.5 72t24 74.5t77 37.5q4 0 16 -5t26.5 -13t27 -16.5t16.5 -12.5q0 -10 1 -37.5t3 -50.5q2 -27 4 -57.5t3 -59t2 -51t1 -33.5v-204q0 -4 2 -19.5t4 -33t5 -32t3 -18.5v-24q0 -6 -3 -24.5t-5 -40t-4 -39t-2 -21.5 v-443q0 -4 -9 -15t-21.5 -23.5t-23.5 -21.5t-16 -9h-8q-29 0 -58.5 10t-54 30.5t-40 48t-15.5 60.5q0 35 7.5 73t11.5 77q4 23 6 43t6 43q2 31 4 50t3 37.5t2 38t1 50.5q-39 0 -80 2t-81 4q-106 6 -211 6q-2 -25 -4.5 -52.5t-4.5 -53t-3 -47t-1 -31.5q0 -25 -2 -50.5 t-4 -52.5l-8 -110q-2 -28 -2 -57.5t2 -61.5q-2 -6 -14.5 -19.5t-27.5 -27.5t-30.5 -26.5t-25.5 -14.5q-4 0 -12.5 -1t-12.5 -1q-47 0 -77.5 26.5t-30.5 79.5z" />
<glyph unicode="I" horiz-adv-x="524" d="M37 1214l2 27l17.5 17.5t25.5 21.5t25.5 18.5t17.5 8.5h237q37 0 77 -25t40 -76q0 -29 -6 -46t-43 -34q-12 -6 -35.5 -16t-34.5 -14v-932q20 -6 42 -10t32 -7v-61q0 -37 -16.5 -57.5t-40 -29.5t-50 -11t-44.5 -2q-41 0 -73 3t-73 13q-41 16 -48 38.5t-7 47.5q0 2 4 23 l4 20q8 8 23.5 18.5t29.5 18.5q0 8 3.5 32.5t5.5 53.5t4 53.5t2 30.5v88v80t1 85t1 79v61v44t-1 59.5t-1 63.5v56v56q-4 33 -6 51t-7 51q-8 4 -14 6l-45 23q-8 4 -21.5 17t-17.5 22q-2 6 -4 14q-2 6 -4 11t-2 9zM328 174q2 0 6 -4q-2 2 -3 2t-3 2z" />
<glyph unicode="J" horiz-adv-x="696" d="M39 12q0 35 24.5 68t67.5 33q27 0 53 -11q12 -4 17 -4q25 0 41 21.5t26.5 51.5t15.5 62.5t9 55.5q2 8 4 28.5t4 42t3 41t1 25.5v709h-133q-10 0 -22.5 10t-23.5 23.5t-18.5 28.5t-7.5 26q0 4 6.5 13t15.5 19.5t19.5 20.5t20.5 14l-15 -4q4 4 19.5 8t32.5 9h2q10 14 20 23 t33 11q6 0 19.5 1t19.5 1q35 0 72.5 -3t72.5 -7q47 -4 94 -7q27 -2 60 -2q21 0 45 1q4 -4 12 -13.5t17 -19.5q8 -10 18 -24v-21q0 -18 -10 -33.5t-23.5 -28t-29 -20.5t-27.5 -10q-16 -4 -44 -10t-42 -11v-763q0 -51 -19.5 -133t-58.5 -161t-94 -135.5t-127 -56.5 q-23 0 -52.5 7.5t-55 23.5t-44 40.5t-18.5 59.5z" />
<glyph unicode="K" horiz-adv-x="1026" d="M61 131q0 53 4.5 104.5t10.5 100.5q6 47 11 92t5 86v61v75t-2 77t-2 83v83q0 88 6 179t29 177q8 31 40 67t73 36q20 0 40.5 -2t38 -11.5t28.5 -28t11 -50.5q0 -2 -1 -6.5t-1 -8.5v-16q-12 -88 -18 -173t-10 -169q98 94 194 187t195 188q18 16 50 28.5t69.5 20.5t75.5 12 t65 4v-98l-78 -76q0 -4 -1 -9t-1 -9q-10 -16 -28.5 -40t-28.5 -28q-4 -2 -11.5 -7l-19.5 -13q-29 -14 -33 -19q-68 -51 -127 -110.5t-113 -120.5q4 -4 8.5 -9.5t8.5 -11.5l8 -12t8 -10q4 -10 18.5 -40t34 -68t41 -82t41 -82t34 -66.5t18.5 -38.5q2 -2 9 -13.5t17 -26.5 t20.5 -32.5t18.5 -30.5h-2q23 -31 46.5 -64.5t42 -64t29.5 -58.5t9 -48q-2 -4 -11 -16.5t-19.5 -24.5t-21.5 -24.5t-20 -16.5h-22q-35 0 -65.5 22.5t-47.5 45.5l2 -2q-53 70 -94 149.5t-82 157.5q-16 35 -31.5 66.5t-31.5 62.5q-8 12 -20.5 33.5t-28 48t-32 54.5t-30.5 50 q-25 -25 -47.5 -48.5t-32.5 -33.5q2 2 2 0t-2 -6q-2 -8 -2 -14t-2 -15q-12 -66 -23.5 -128t-15.5 -126q14 2 29.5 3.5t34.5 1.5q0 -47 -4.5 -99.5t-20.5 -95.5t-50 -70.5t-95 -27.5h-25.5t-27 5t-24.5 19.5t-18 42.5v41q0 10 -1 21.5t-1 15.5z" />
<glyph unicode="L" horiz-adv-x="968" d="M49 115q0 39 12.5 58.5t34.5 41.5q4 25 8.5 69t9.5 91t8 87t3 54q1 13 1 49v42q-1 71 -1 157v252q0 8 2 33.5t4 55.5t5 58.5t5 40.5l-2 -4q10 63 39 100t98 37q55 0 106.5 -47t82.5 -139h-86q-4 0 -8 -1t-6 -1h-13q-2 -18 -6 -64q-2 -27 -5 -57.5t-6 -60t-5 -56t-4 -47.5 q-10 -125 -12.5 -250t-2.5 -247v-82q16 -16 17.5 -43t-2.5 -56q10 0 18 -1t14 -1q10 0 24.5 1t29.5 1h18q18 2 56 6.5t78 8.5t75 9t47 7l-6 -4q4 2 19.5 6t31.5 8q23 8 42.5 13.5t27.5 5.5h14q147 0 148 -144q0 -4 -1 -11t-1 -13v-49q-55 -41 -102.5 -50.5t-88.5 -9.5 q-29 0 -55.5 5.5t-55.5 13.5q-20 4 -39.5 8t-41.5 4q-23 2 -78.5 2h-118.5h-118.5t-78.5 -2h-10q-18 2 -39.5 10t-41 22.5t-32 35t-12.5 47.5zM322 168v2v-2z" />
<glyph unicode="M" horiz-adv-x="1306" d="M66 377v65q0 10 3 43t5 70t4 68.5t2 38.5q0 25 1 77t2 120.5t1 143t1 143t1 122v75.5q16 0 43 -1t55.5 -4t55 -10t41.5 -21q70 -72 137 -135.5t139 -129.5q23 -20 46.5 -39.5t45.5 -41.5l6 6t7 6q18 23 41.5 50.5t27.5 33.5q14 16 51 52t78 77t78 77.5t51 51.5 q6 4 21.5 14t35 20.5t38 19.5t28.5 11q4 0 9 1t9 1q27 0 49.5 -6t61.5 -45v-98v-86v-131v-31q0 -6 -2 -33.5t-5 -59.5t-5 -61.5t-4 -42.5v-14v-33.5v-38t-1 -33t-1 -18.5q-2 -6 -4 -51t-7 -90q-6 -53 -10 -102.5t-6 -61.5v-10q29 -23 29 -64q0 -33 -8.5 -57.5t-20.5 -46.5v2 q-4 -10 -8 -22.5t-6 -24.5q-2 -10 -1 -14.5t1 -14.5q2 -25 1 -49.5t-12.5 -43.5t-34 -32.5t-63.5 -13.5h-10h-33q-12 0 -29 2q-8 68 -13 121t-8 101t-3 94v96v34q0 96 4 190.5t10 190.5q4 63 7 125t3 125q-49 -53 -97 -113.5t-87 -111.5q-4 -6 -12 -14q-2 -6 -3 -9.5 t-5 -9.5q-4 -4 -2 -2t0 -2q-4 -10 -13.5 -32.5t-13.5 -32.5q-4 -2 -20.5 -8.5t-32.5 -12.5q-35 -47 -96.5 -75.5t-157.5 -28.5q0 25 1 40t1 25v19v-4q2 4 6 14t6 18q2 4 12 19q-8 8 -4 8q-6 16 -15 31.5t-13 23.5q-4 4 -7.5 8t-3.5 7q-8 12 -26.5 34.5t-40 50t-42 53 t-34.5 44.5q-4 -66 -5 -130.5t-1 -129.5v-154q0 -18 1 -63t1 -95v-137q16 -33 16 -67.5v-63.5v-61q0 -14 -1 -29.5t-1 -19.5q-16 -51 -40.5 -59.5t-53.5 -8.5q-43 0 -68.5 22.5t-35.5 63.5q-23 84 -35 167t-12 169zM1065 1100q6 4 11 9t11 9q-8 -6 -12 -10t-10 -8z" />
<glyph unicode="N" d="M53 1184h86v110q0 4 11.5 15.5t28 24t34.5 21.5t33 11q2 0 4 1t6 1h6q27 0 45.5 -12.5t29.5 -31.5t17 -41.5t11 -43.5q4 -10 10 -24.5t-4 2.5q12 -31 48 -104t76 -154.5t75.5 -154.5t50.5 -102q4 -10 18 -35.5t31.5 -55t34 -58.5t26.5 -45q4 55 5 111.5t1 109.5v49 q0 53 -2 102.5t-6 100.5t-6 104.5t-2 106.5v74q25 43 69 64.5t89 21.5q25 0 47 -5.5t41 -60.5q0 -6 1 -26.5t1 -40.5v-58q0 -16 -1 -43.5t-1 -50.5v-23q0 -6 -2 -38.5t-7 -67.5q-2 -35 -4 -63.5t-2 -36.5v-236v-6q-2 -6 -4 -20.5t-5 -30t-6 -27.5t-3 -16l2 2q-2 -18 -6 -49 q-2 -10 -3 -21.5t-3 -19.5t-2 -19q0 2 2 -2t4 -10q2 -4 3 -10t3 -11q2 -6 2 -12v-22q-2 -10 -6 -29.5t-9.5 -39t-9.5 -37t-4 -21.5l-6 -25q-6 -29 -15 -56.5t-29.5 -50t-58.5 -36t-102 -13.5q0 12 -1 42t-1 61t-1 57.5t-1 32.5v2q-2 -4 -4 0q-8 12 -25.5 40t-25.5 40h22 l-38 16q0 -2 -11 4q-8 6 -19 15.5t-20 17.5q-2 4 -7 21.5t-5 27.5q-4 8 -12 17.5t-12 13.5l-21.5 21.5t-15.5 17.5l2 -4q-20 23 -37 48.5t-33 53.5q-6 10 -13 21.5t-13.5 21.5t-9.5 16.5t-3 4.5q-6 12 -26.5 37.5t-42.5 56.5q-2 -31 -3.5 -56.5t-1.5 -35.5v-21 q0 -20 -1 -47.5t-1 -42.5q0 -4 1 -20.5t1 -32.5v-41q12 -29 14.5 -55.5t2.5 -53.5v-10v-33v-77h-30.5t-16.5 -4v-21q0 -27 6 -49q4 -16 8 -33.5t4 -40.5v-26q0 -8 -1 -16.5t-1 -12.5q-6 -27 -17.5 -41t-23.5 -20.5t-25.5 -7.5t-25.5 -1q-23 0 -50.5 8.5t-43.5 59.5v88 q0 92 2 184t6 185q4 92 6 183t2 183v100q0 25 -1 47.5t-1 38.5q-4 8 -2 9l-2 2q-4 4 -12.5 12t-16.5 18t-20 21q-4 10 -8 29.5t-9 40.5q-4 23 -8 51zM133 995q2 -4 3 -4t3 -2q-2 2 -3 2t-3 4zM272 1006q6 -4 19 -5z" />
<glyph unicode="O" horiz-adv-x="1187" d="M41 639q0 104 31.5 192.5t84 164t120 141t139.5 125.5q0 2 4 8t6 8q14 25 30.5 42t63.5 17h23q6 -2 14 -4q6 -2 13.5 -3t11.5 -5l8 -4q6 0 18.5 -2t24.5 -4q16 -4 29.5 -5t17.5 -3q23 -4 41 -15q4 -4 12 -9t4 -1q90 -53 165 -112.5t128 -133t84 -164t31 -204.5 q0 -129 -30 -255t-95.5 -224.5t-171 -159t-256.5 -60.5q-10 0 -26.5 1t-28.5 1h-15q-8 0 -31.5 6.5t-52 14.5t-55.5 15t-39 11h2q-104 37 -164.5 104.5t-91.5 152.5t-40 179.5t-9 184.5zM242 588q0 -80 14 -156t50 -133t95.5 -92t149.5 -35q59 0 117.5 10.5t99.5 46.5 q43 41 85 88.5t65 100.5q6 14 15 33.5t9 17.5v8q0 14 1 41t1 43q0 78 -19.5 160t-60.5 154.5t-102.5 127t-145.5 78.5l-16 4q-6 2 -14 3.5t-23 1.5q-2 2 -6 9t-2 7q-41 0 -64.5 -22.5t-48.5 -57.5q-6 -8 -12 -16.5t-12 -18.5q-35 -49 -67 -95t-56.5 -94t-38.5 -100.5 t-14 -113.5z" />
<glyph unicode="P" horiz-adv-x="845" d="M61 227q0 6 1 18.5t1 22.5v8q0 4 2.5 19.5t4.5 34t4 36t4 23.5q10 141 13 272.5t3 266.5v159t-2 162q18 14 28.5 32.5t18.5 41.5h13.5t24.5 1t26.5 1h19.5h43q12 0 35 -1t39 -1h16q18 -2 63.5 -6t96.5 -8t96 -9.5t62 -7.5q59 -16 92 -55t49 -87t20.5 -98.5t4.5 -86.5v-35 v-44.5t-3 -39t-10.5 -42t-21.5 -50.5q-4 -4 -20.5 -22.5t-26.5 -26.5q-123 -100 -275 -130l2 3q-8 -2 -29.5 -7.5t-49.5 -9.5q-31 -4 -61 -8t-38 -6l-2 -2q-16 -133 -30.5 -274.5t-14.5 -307.5q-59 0 -82.5 3t-34.5 5q-16 0 -24 3t-12.5 7.5t-5.5 9.5t-5 9l-2 2l-16 31 q-8 59 -12.5 98t-4.5 96zM295 741q16 2 31.5 4.5t25.5 2.5l-8 -3q55 10 105.5 29t89.5 47.5t61.5 70.5t22.5 99q0 53 -43 78t-97 41q-6 2 -33.5 12.5t-39.5 12.5h-39q-29 0 -52.5 -4.5t-23.5 -26.5v-363z" />
<glyph unicode="Q" horiz-adv-x="1300" d="M45 467v39q0 74 8 167t30.5 187t66 179t110.5 139q51 41 110.5 62.5t116.5 37.5q10 4 17.5 5t17.5 5q4 2 16.5 7t28 10.5t29.5 10.5t18 7q14 2 25 2h35q74 0 154.5 -18.5t140.5 -73.5l180 -180q0 -10 2 -13q4 -16 8 -24q8 -18 20.5 -46t22.5 -54.5t19.5 -48t11.5 -27.5 q16 -47 17 -79t1 -73v-33q0 -78 -12 -153.5t-57 -151.5q-2 -4 -15.5 -22.5t-28 -41t-28.5 -43t-20 -30.5l-9 -12v2q-4 -6 -8 -14.5t-8 -14.5l14 -14q16 -23 45 -53.5t41 -45.5q-4 -6 -17 -20t-28.5 -28.5t-31 -27t-21.5 -14.5h-33q-41 14 -72.5 42t-54.5 57q-8 -4 -16 -9.5 t-17 -9.5l7 2q-10 -6 -17.5 -11t-5.5 -3q-47 -27 -105.5 -42t-107.5 -26q-4 0 -9 -1t-9 -1h-15q-6 0 -12 2l-37.5 7.5t-59.5 12.5t-61.5 14t-44.5 11h6q-8 2 -20 7v-3q-16 4 -41 14.5t-41 24.5q-12 10 -30.5 30t-38 38t-35 34.5t-19.5 20.5l-65 99q-2 2 -6.5 15t-8.5 28 q-10 10 -19 26.5t-11 20.5q-8 8 -13 22l6 -6l2 -2l-16 39q0 6 -1 18.5t-1 24.5zM49 408q2 -4 3 -7.5t3 -7.5q-6 6 -6 15zM92 334l6 -10q-2 8 -4 14t-2 10v-14zM246 573q0 -78 12 -141t55 -123l-2 2q29 -39 62 -75.5t76 -53.5q27 -8 50 -10q11 -1 24 -1t28 1h127q12 4 22 10 q10 4 20.5 9.5t18.5 9.5h-2l47 18q0 8 -9 21.5t-23 27.5q-23 25 -40.5 55.5t-17.5 71.5q0 88 86 88q25 0 46.5 -6t56.5 -22q4 -16 21.5 -48t33.5 -55q18 14 37.5 54t35 95.5t22.5 118.5q4 35 4 68q0 28 -3 55q0 88 -46 169t-101 157q2 -2 2 -4t1 -2t1 -2q-14 8 -38 18.5 t-34 14.5l-24 12h-220q-2 0 -6 -2t-5 -3t-5 -3t-23.5 -9.5t-35.5 -13.5q-6 -2 -13.5 -4t-13.5 -4q-8 -2 -14 -4l-4 -2q-14 -4 -18.5 -4t-8.5 -2q-47 -37 -81 -95.5t-56.5 -125t-33.5 -134.5t-11 -127zM948 332l2 -2z" />
<glyph unicode="R" horiz-adv-x="1032" d="M68 395v64t1 80t1 82v71v58q0 10 2 48t4 84t4 90t4 64q0 4 2 25.5t6 42.5q4 23 5 41t1 22q0 10 2 34t4 28q8 20 45 37.5t80 31t84 20.5t60 7q4 0 12 -1t14 -1h13q72 -16 155.5 -51t155.5 -88.5t120 -125t48 -163.5q0 -102 -47 -189.5t-131 -152.5q-8 -4 -22.5 -11 t-26.5 -16q18 -23 43.5 -53.5t33.5 -36.5l52 -52t81.5 -81t81 -81t52.5 -52v-55q0 -20 -1 -41t-10.5 -38.5t-28 -27.5t-53.5 -10q-25 0 -46 5t-52 34q-14 18 -49 64t-76 100q-39 53 -74.5 98t-50.5 63q-14 14 -20 31q-25 33 -52.5 64.5t-58.5 31.5q-41 0 -76.5 -4t-78.5 -10 q-4 -27 -7.5 -70t-3.5 -57q-2 -18 -2 -61v-97q0 -53 1 -104t3 -70q-4 -6 -14 -17t-22.5 -23.5t-24.5 -22.5t-21 -12h-14q-41 0 -71.5 26.5t-34.5 65.5v186q0 57 -1 107.5t-1 68.5zM285 633q4 18 35.5 21t48.5 3h8q27 0 65.5 4.5t76.5 13.5t72 24.5t48 37.5q29 47 47.5 84 t18.5 84q0 29 -23 64t-54.5 66.5t-67.5 56t-62 30.5q-33 6 -88.5 9.5t-102.5 3.5q-6 0 -6 4v-27q0 -8 -3 -38t-5 -63.5t-4 -63t-2 -36.5v-22q0 -23 -1 -57.5t-1 -53.5q0 -8 1 -26.5t1 -40.5v-64z" />
<glyph unicode="S" horiz-adv-x="776" d="M39 309v21q0 4 1 17t1 26q2 14 2 27.5v17.5q12 37 57 73.5t123 36.5q0 -59 4 -124.5t21.5 -120t51.5 -90t93 -35.5q39 0 62.5 19.5t37 50t17.5 68.5t4 73q0 61 -38 105t-85 87l-51 45l2 -2q-10 10 -31.5 30.5t-46 45.5t-50.5 50.5t-44 43.5l-25 27q-35 39 -41 68.5 t-6 66.5v10q0 141 52.5 230.5t183.5 146.5h31q16 -2 42.5 -8t52 -11.5t45 -10.5t21.5 -5v2q35 -10 59.5 -29.5t42 -44t30 -52t22.5 -56.5q8 -23 16 -41l-2 2q2 -4 7.5 -15.5t11.5 -21.5q4 -10 8 -22.5t6 -18.5l-2 10q2 -2 4 -8t2 -16q0 -12 -6 -25l-6 -12q-2 -2 -10.5 -8 t-17.5 -12.5t-18 -11.5t-16 -7h2q-4 0 -12 -2t-12 -2q-29 0 -50.5 23.5t-39.5 62.5q-12 23 -27.5 49.5t-35 49t-44 39t-55.5 16.5q-20 0 -34.5 -12.5t-25 -32t-15.5 -42t-5 -42.5q0 -35 13.5 -65t36 -54.5t50 -46t58.5 -41.5q53 -35 105 -80t83 -111q31 -72 48.5 -143.5 t17.5 -142.5q0 -154 -81 -246t-247 -92q-102 0 -171 45t-132 123q-35 43 -40 77.5t-5 77.5z" />
<glyph unicode="T" horiz-adv-x="1085" d="M16 1229q0 4 2 10t5 12q2 8 4 15q4 6 15 17t25.5 21.5t26.5 20.5t21 12h32q29 0 49.5 -5t43.5 -11h-2q18 -6 35.5 -10t37.5 -4h693q16 0 37.5 -16.5t25.5 -26.5q4 -6 6 -15q4 -16 4 -20q0 -8 -6 -24.5t-14 -24.5t-12.5 -18.5t-32.5 -10.5q-20 -4 -55 -9t-71 -9.5 l-68 -8.5t-44 -4h-61q-20 4 -33 -2v-213v-148.5t-2 -99.5q-2 -16 -5 -50t-9 -68q-6 -39 -10.5 -75t-4.5 -46v-94q0 -23 -6 -32t-10 -18l-6 -8q-4 -10 -6.5 -23.5t-2.5 -15.5q-2 -10 -2 -32.5v-49.5v-51t2 -33q1 -11 1 -21q-1 -40 -21 -54q-26 -16 -63 -17q-37 0 -57.5 13.5 t-30 34t-11.5 45t-2 47.5q0 4 -1 9t-1 9q-4 16 -9 36.5t-5 24.5v15q0 16 -1 35.5t-1 31.5q0 68 4 130.5t12 123.5q6 63 11.5 124t5.5 120q0 39 -2.5 75t-6.5 75q-2 39 -5 78.5t-3 80.5v39l2 4q-16 -2 -48 -2h-64h-69t-50 2q-6 0 -19.5 2t-29 4t-28.5 5.5t-22 5.5 q-12 4 -26.5 12t-28.5 20.5t-23.5 27.5t-9.5 32z" />
<glyph unicode="U" horiz-adv-x="1067" d="M55 657q0 10 1 32t1 36v8q0 6 2 24.5t4.5 39t4.5 39t4 26.5q0 10 1 29.5t3 48.5q2 31 4 67.5t3 69.5t2 57.5t1 32.5q2 10 8 36t10 36q4 16 28 42t40 26h74q6 0 20.5 -15.5t31.5 -38t32.5 -48t25.5 -44.5q-31 0 -49 -4t-27.5 -11t-12.5 -15.5t-5 -14.5q-2 -4 -2 -9t-2 -9 v-156q0 -53 -1 -99t-1 -65v-60.5t1 -74.5t1 -76v-65v-47q0 -63 5 -117.5t24.5 -94.5t58.5 -63.5t107 -23.5h20q33 0 66 22l16 17q31 41 60.5 91t54 104t42 109.5t21.5 106.5q4 66 6 136.5t4 136.5q2 104 6.5 204.5t14.5 194.5q14 25 39.5 40t54.5 23.5t59.5 10.5t53.5 2 q0 -61 -1 -131t-3 -141.5t-4 -141.5t-5 -129q-4 -121 -8 -238.5t-4 -240.5v-205l64 -64q-14 -20 -35 -42.5t-43.5 -40t-46 -28.5t-41.5 -11h-15q-6 2 -18 12t-24.5 22.5t-21.5 22.5t-9 14v148q-39 -55 -88.5 -101.5t-112.5 -72.5q-6 0 -25.5 -1t-35.5 -1h-50q-66 0 -126 8 t-119 47q-33 25 -55.5 63.5t-38 81.5t-22.5 85t-11 75q-2 14 -4 44t-3.5 61.5t-3.5 62.5t-4 47v33q0 16 -1 35.5t-1 29.5z" />
<glyph unicode="V" horiz-adv-x="1142" d="M16 1243q0 14 2 30.5t10.5 31t25 23.5t42.5 9q16 0 30.5 -6t31.5 -16q6 -4 15 -6t38 -2q2 -8 7 -26.5t10 -38t10.5 -36l7.5 -22.5q2 -4 9 -15.5t13 -21.5q2 -4 4 -11.5t4 -13.5l-4 19q20 -41 39 -84t39 -86q66 -147 133.5 -288.5t153.5 -274.5q10 35 25.5 87t35 113.5 t41 130t41.5 135.5q29 88 53.5 167t43.5 139q2 4 3 11t3 15q4 25 9 45.5t18.5 37t36 25.5t61.5 9h32.5t30.5 -7t23.5 -23.5t9.5 -49.5v-12q-2 -4 -7 -22.5t-10 -32.5q-4 -14 -3 -12.5t-1 -4.5q12 -10 21.5 -20.5t13.5 -14.5q-104 -172 -180 -343t-117 -339q-2 -4 -6 -20 t-10 -36.5t-13.5 -42t-11.5 -38.5h109l-94 -94q4 -8 10 -17.5t6 -33.5q0 -49 -11.5 -69.5t-31.5 -24.5q0 -20 -7 -39t-28 -39q-2 -4 -13 -12.5t-24.5 -17.5t-26 -18.5t-18.5 -13.5h-22q-53 0 -76 32t-39 65l-4 4q-16 41 -30.5 91t-26.5 91q-16 59 -35 116.5t-41 106.5 q-4 12 -25.5 57.5t-46 96.5t-47 96t-29.5 57q-2 4 -6 15.5t-8 23.5q-6 14 -10 23.5t-6 13.5q-4 12 -25.5 57.5t-46.5 97.5t-46.5 97t-27.5 57q-8 16 -21.5 51t-13.5 52q0 4 -1 8t-1 8zM276 1122l3 -2zM772 186q-1 -2 -1 -2.5t2 0.5q3 2 8 6.5t5 2.5q6 6 7 16 q-19 -19 -21 -23z" />
<glyph unicode="W" horiz-adv-x="1736" d="M35 1343l166 -47q16 -27 26.5 -59.5t16.5 -56.5l10 -31q31 -94 66.5 -188.5t70.5 -186.5q47 -117 92 -238.5t80 -248.5q12 27 27.5 57.5t29 59t24.5 52t18 33.5q-2 -2 1 7.5t7 25t10 33.5t10 33q10 29 18.5 56.5t12.5 37.5l-2 -4q2 8 11 28.5t21.5 44t22.5 43t17 27.5 q4 2 16 7.5t25.5 9.5t25.5 8t19 4q29 0 57.5 -25.5t55 -63.5t50 -79t41.5 -72q8 -16 13 -22q4 -6 6 -13q4 -6 14 -22t20.5 -33.5t18.5 -32t10 -20.5q6 -16 19.5 -44t29.5 -56q8 25 19.5 58.5t23 69t21.5 68.5t16 55q4 14 18.5 64.5t31 111t32 118t23.5 87.5q4 12 10 38 t12 55q8 33 15.5 69.5t9.5 44.5q2 6 7 19.5t10 28t10.5 26.5t7.5 18q4 4 26.5 23.5t48.5 28.5q29 0 54.5 -4.5t46 -15.5t33 -31.5t12.5 -55.5q0 -29 -1 -34t-7 -19q-2 -4 -4 -7t-7 -14q-6 -16 -18 -43.5t-23.5 -53t-19.5 -44.5l-8 -20q-6 -14 -19.5 -60.5t-33 -109t-40 -132 t-39 -132t-31.5 -108.5t-17 -60q-2 -4 -7.5 -15.5t-11.5 -23.5q-4 -12 -8 -24.5t-6 -16.5q-6 -16 -17.5 -48t-23.5 -67t-23.5 -66.5t-17.5 -50.5v2q-2 -4 -4 -10t-2 -8q-2 -4 -2 -7t-2 -8h2q-8 -23 -17.5 -44t-25 -38.5t-39 -28.5t-60.5 -11h-30.5t-30.5 6t-24.5 22.5 t-10.5 48.5q0 16 4 29.5t8 24.5q4 12 4 20v2q0 4 -2 4q-8 16 -24.5 42t-32.5 53.5t-30.5 50t-20.5 32.5v-2q-8 10 -19.5 33t-25.5 45h2q-10 18 -19.5 36t-13.5 26q-2 4 -8 11t-10 17l2 -2q-4 10 -9.5 20.5t-11.5 22.5q-4 -14 -12 -36.5t-18 -49.5q-12 -33 -22.5 -60.5 t-14.5 -35.5l-15 -29q-4 -8 -10 -27.5t-16 -43.5q-8 -25 -18.5 -51.5t-19.5 -50t-16.5 -40t-9.5 -22.5l-2 -8q-6 -14 -14 -33t-20.5 -35t-31 -26.5t-42.5 -10.5q-47 0 -74 34t-37 62q-35 84 -62.5 171.5t-56.5 170.5q-16 43 -29.5 87.5t-29.5 89.5q-25 72 -54.5 141.5 t-58.5 138.5q-16 39 -32.5 80t-30.5 80v-2q-4 10 -9.5 21.5t-9.5 21.5q-12 33 -23.5 64.5t-20.5 68.5t-14 83t-5 107z" />
<glyph unicode="X" horiz-adv-x="1185" d="M59 10v2q0 23 11 47q2 2 2 7v4q0 2 -2 14t-7 20q127 131 226.5 269.5t179.5 275.5q-4 16 -16.5 39t-16.5 29q-4 4 -19.5 25.5t-31.5 43.5q-12 16 -23.5 30.5t-13.5 19.5l2 -2q-12 18 -45 66t-69.5 103.5t-70.5 105.5t-48 75l4 35q4 6 6 12q2 4 2 6t2 4t2 4v6q-2 16 -2 37 t6 38t22.5 29.5t49.5 12.5q6 0 22 -4q8 -2 17 -6q45 -33 74.5 -76t52.5 -84q6 -14 14 -29.5t23 -33.5q4 -6 19 -28t33.5 -46.5t36 -48t25.5 -33.5q6 -8 12.5 -17.5t14.5 -19.5h-2q14 -20 29.5 -45t33.5 -43q55 55 103.5 127t91.5 141q-25 -31 -26 -29.5t9.5 14.5t23.5 31.5 t18 24.5q2 8 8 17q6 10 9 20t5 14q10 16 48 36t84 36.5t91 27.5t70 11q0 -49 -3 -78.5t-5 -40.5q-4 -8 -13.5 -23.5t-17.5 -21.5q-14 -16 -34.5 -40.5t-40 -48t-33 -41t-15.5 -19.5l-67.5 -92.5t-79.5 -106.5t-67 -87l-28 -36v-45q0 -2 15.5 -32.5t38 -72.5t46 -87t40.5 -74 q10 -18 38.5 -62.5t60.5 -94.5t60.5 -94t40.5 -62q0 -4 1 -13.5t1 -11.5q0 -86 -90 -86q-45 0 -66.5 18.5t-39.5 44.5q-4 4 -6 9.5t-6 9.5l-56 74v-2q-33 41 -63.5 84t-59.5 83q-14 23 -25 45.5t-22 49.5v-2q-12 29 -26.5 54.5t-30.5 47.5q-14 -20 -41 -60t-55.5 -81 t-53 -77t-34.5 -50q-4 -6 -16.5 -27.5t-28.5 -48.5q-12 -20 -21.5 -35.5t-17.5 -28.5q-2 -4 -3 -8t-3 -8v-2q0 -2 -1.5 -2t-1.5 -2v-6q-2 -2 -10 -12.5t-10 -10.5q-10 -10 -21.5 -18t-29.5 -8h-17q-12 -20 -29.5 -41t-49.5 -21q-4 0 -21 4q-8 2 -16 6q-10 4 -23.5 21.5 t-23.5 34.5l8 -17q-10 10 -12.5 18.5t-4.5 18.5z" />
<glyph unicode="Y" horiz-adv-x="958" d="M8 1323h133q6 0 25.5 -14.5t42 -34t44 -41t34.5 -33.5l-2 2q4 -4 13 -18.5t19.5 -29.5t20.5 -29.5t14 -20.5q8 -12 21.5 -29.5t26 -34t21.5 -30t11 -15.5q10 -10 35 -35.5t51 -52.5q4 4 5 6t-3 -6q27 47 51.5 92t49.5 93q18 35 36.5 70.5t38.5 70.5l6.5 13t6.5 9 q18 41 39.5 61.5t80.5 20.5q35 0 60.5 -13t48.5 -73q-33 -88 -74 -156.5t-82 -133.5q-35 -53 -67.5 -109.5t-59.5 -116.5q-2 -18 -4 -58t-4 -84t-4 -83t-2 -55v-23q0 -37 2 -71.5t4 -71.5q4 -37 6 -77t2 -77q0 -31 -3 -62.5t-16 -58t-40 -43t-72 -16.5q-8 0 -24 -1h-7 q-13 0 -27 3q-17 4 -29.5 19.5t-12.5 50.5v544q0 8 -4 36t-8 38q-20 76 -65.5 143.5t-98.5 133.5v-2q-8 10 -15.5 22t-17.5 23q-6 10 -28.5 38.5t-49 62.5t-51.5 64.5t-37 45.5q0 4 -4 7t-6 7l8 -12q-16 16 -27.5 42.5t-11.5 102.5z" />
<glyph unicode="Z" horiz-adv-x="1200" d="M33 -82q0 49 6 83t17.5 57.5t25.5 40t29 32.5q6 6 10 12.5t10 12.5l-4 -2q10 10 26.5 27.5t32.5 39.5q25 31 47.5 57.5t28.5 34.5l-2 -2q20 27 61 82.5t93.5 125t112 149.5t117.5 158.5t111.5 149.5t92.5 124q-102 10 -205.5 17t-206.5 7q-35 0 -65.5 -1t-63.5 -3 q-8 0 -20.5 7.5t-22.5 16.5t-19 19.5t-12 16.5l-2 18q0 39 30 61.5t48 34.5q12 10 21.5 11.5t23.5 1.5q53 0 107.5 -2t107.5 -5q53 -4 102.5 -7t102.5 -3q18 0 50 1t53 1h16q4 0 16.5 2t26.5 4t27.5 5.5t15.5 3.5h20q12 0 38 -7.5t52.5 -22.5t47 -37.5t20.5 -53.5 q-2 -6 -6 -15.5t-10 -19.5t-10.5 -18.5t-6.5 -10.5l-16 -16q-12 -12 -28.5 -27.5t-32 -31t-26.5 -27.5t-15 -16t-16.5 -20.5t-16.5 -27.5q-6 -10 -25.5 -43.5t-42 -72.5t-42 -73t-25.5 -44q-31 -55 -68 -99t-76 -85q-23 -27 -46 -54.5t-48 -62.5l-6 -10q-8 -12 -19.5 -28.5 t-23.5 -34t-21.5 -33t-13.5 -21.5q-4 -8 -15.5 -25.5t-23.5 -38t-24.5 -41t-20.5 -32.5q106 12 225 21t232 9h39q12 0 26 -2q23 -2 41 -12q6 -2 13.5 -4t13.5 -2q20 -2 44 -5t44 -12.5t33.5 -25.5t13.5 -45v-25q-4 -6 -13 -16t-20.5 -20.5t-21.5 -20.5t-15 -12 q-14 0 -45.5 1t-70.5 1h-84h-88h-163t-110 -2q-53 0 -103 -10.5t-99 -22.5q-57 -14 -124 -24.5t-167 -10.5z" />
<glyph unicode="[" horiz-adv-x="763" d="M57 252v27q0 16 1 44.5t1 49.5v22q0 10 2 49t5 82q4 43 5 78t1 45q2 29 2 99.5v148.5v80v73.5t-1 62.5t-1 42q8 23 18 50.5t31 62.5q8 4 27.5 10t42 12t43 11.5t30.5 5.5q4 0 12.5 1t12.5 1q49 0 92 -5.5t84 -13.5t85 -13t122 -5v-94q0 -8 -25.5 -22.5t-62.5 -28 t-76 -24.5t-66 -13q-18 0 -49 10q-4 2 -6 2t-4 2t-4 2h-6q-10 0 -21.5 1t-17.5 1q-27 0 -45 -12q-2 -10 -4 -21.5t-4 -23.5q-2 -18 -3.5 -32.5t-3.5 -23.5q-10 -152 -13 -306t-3 -308q0 -10 1 -39t1 -59v-76q2 0 2 -1t2 -1t4 -2q80 -8 163 -15.5t161 -13.5q25 -2 46 -21.5 t36.5 -47t25 -60.5t9.5 -63q-162 0 -310.5 6t-285.5 45l-39 39q-14 47 -15.5 91t-1.5 89z" />
<glyph unicode="\" horiz-adv-x="1015" d="M0 1204q0 20 1 40t10 34t27.5 22.5t51.5 8.5q53 0 81 -29t50 -61l15 -23q23 -29 45 -55.5t45 -55.5q35 -43 67.5 -85t55.5 -72q2 -2 13 -21.5t24.5 -43t27.5 -47t23 -36.5q92 -160 198 -319q20 -33 39 -62.5t39 -58.5q8 -12 25.5 -39t37 -54.5t35 -52t21.5 -32.5 q14 -12 29 -33q12 -16 21 -28.5t13 -18.5l-12 14l16 -22q6 -10 11.5 -20.5t5.5 -24.5v-9q0 -31 -9.5 -46t-23.5 -23t-30.5 -9t-32.5 -1h-37q-6 2 -17.5 12t-24 22.5t-23.5 24.5t-15 20q-20 31 -41 67t-43 75q-35 61 -71 123.5t-77 122.5l-12 12q-53 72 -97 138.5t-87 131.5 q-31 47 -61.5 93t-65.5 96l-2 2q-4 4 -13.5 11t-19.5 11q0 12 -6 23.5t-12 19.5q-8 6 -18.5 12.5t-14.5 8.5q-6 4 -23.5 22.5t-23.5 30.5q-8 12 -15 22q-6 10 -10 20.5t-2 8.5q-2 4 -8 8t-17 15q-18 16 -37.5 36.5t-23.5 43.5q0 4 -1 15t-1 15z" />
<glyph unicode="]" horiz-adv-x="739" d="M41 59l113 144h274h4v209q-14 25 -14 43q2 6 6 14q4 6 7 14.5t7 12.5l4 20t4 19q-6 10 -10 24q-2 8 -4 14v27q23 70 26 143.5t3 145.5v45l-15 14v51q-2 2 -2 5q0 6 -2 10q-6 23 -10 37q-2 6 -4 11t-4 13q-16 0 -30.5 1t-20.5 1q-2 -2 -17 -6q-23 -8 -45 -8h-6 q-10 0 -21.5 -1t-17.5 -1h-8h-25.5t-30 6t-37 21.5t-50.5 46.5l6 6q-20 10 -32.5 28.5t-12.5 53.5q0 33 26.5 66.5t67.5 33.5h18q10 -2 29 -4t35 -6q10 -2 24.5 -4t10.5 -2q4 -2 27.5 -8.5t27.5 -6.5h260l60 -43l16 -26q2 -12 3 -30.5t1 -31.5v-25.5t-2 -35.5 q0 -10 -1 -17.5t-1 -11.5q0 -10 -5 -50t-10.5 -85t-9.5 -85t-6 -50v-49v-32t-1 -56.5t-2 -71.5t-3 -78q-2 -80 -4 -148.5t-2 -86.5v-203q-10 -31 -25.5 -47.5t-34 -23.5t-38 -7t-37.5 2h-21l-6 -4q-23 -8 -49 -8q-74 0 -173 17.5t-210 53.5zM184 1192q11 8 25 12l-6 3 t-19 -15z" />
<glyph unicode="^" horiz-adv-x="991" d="M61.5 679q8.5 52 33 112.5t60 124t68.5 118.5q16 23 26.5 43.5t20.5 36.5q4 10 13.5 25.5t13.5 25.5q20 41 42.5 83t53.5 76t71 55.5t93 19.5h6q43 -6 81 -42t67.5 -83t51 -96.5t36.5 -81.5q6 -12 9 -19.5t5 -11.5q4 -10 12.5 -23.5t18.5 -29.5q18 -31 40.5 -68t42 -75 t33 -72.5t13.5 -63.5q0 -41 -22.5 -67.5t-76.5 -26.5q-59 0 -76.5 19.5t-29.5 50.5l-5 10t-15 16q-25 78 -69 155t-85 144h2q-16 23 -29.5 47.5t-25.5 44.5q-6 10 -9.5 18.5t-7.5 14.5q-4 -4 -7 -10l-7 -14q-12 -23 -27.5 -55.5t-36.5 -75.5q-33 -74 -72.5 -157 t-85.5 -147.5t-99.5 -97.5t-112.5 -8q-23 33 -14.5 85z" />
<glyph unicode="_" horiz-adv-x="1116" d="M47 -287q0 45 33 66.5t74 38.5h73q23 0 41.5 1t26.5 1q16 0 48 -1t56 -1h35q4 -2 27.5 -8.5t46.5 -12.5q10 -4 18.5 -5t16.5 -3l16 -4h10q12 0 36 -1t34 -1h53.5t41 2t43 5t57.5 9q4 0 13 2t19 6q6 2 23 7q8 2 12 4h31q20 0 41.5 -5.5t40 -15.5t31 -29.5t12.5 -46.5 q0 -53 -40 -81.5t-93.5 -41t-108.5 -14.5t-84 -2h-43q-2 0 -13 2t-23.5 5t-23 5.5t-12.5 2.5h-153q-10 0 -29.5 2t-40.5 6q-20 2 -43.5 5t-21.5 3h-17h-75q-23 0 -48 2l11 -2q-25 2 -51.5 6t-49 14.5t-37 29.5t-14.5 50z" />
<glyph unicode="`" />
<glyph unicode="a" horiz-adv-x="884" d="M45 545q2 86 47 141t94 96q12 14 29 25q18 16 30.5 24.5t23 12.5t22.5 5t31 1h12q39 0 85 -3t85 -13q49 -14 103.5 -48t98.5 -80.5t73.5 -102.5t29.5 -116q0 -43 -7 -86t-18 -88q-10 -35 -15 -68.5t-7 -70.5q31 -2 54.5 -16t23.5 -72q0 -35 -10.5 -53.5t-26 -26.5 t-34.5 -8h-38h-10q-53 0 -80 18.5t-47 36.5l-6 6q-16 0 -34.5 -10t-39.5 -20q-29 -16 -60.5 -30.5t-68.5 -14.5q-4 0 -9 1t-11 1q-51 10 -103.5 29.5t-94.5 51t-67.5 79t-25.5 110.5q0 4 1 13.5t1 15.5v10q14 78 54 141.5t97.5 108.5t127 71.5t143.5 28.5q-31 10 -75 14.5 t-65 4.5q-20 0 -40.5 -12.5t-41 -31t-38 -40t-33.5 -39.5q-2 -2 -5 -6.5t-5 -8.5q-6 -10 -24.5 -21t-31.5 -16h8q-2 0 -8 -2t-16 -2q-6 0 -22.5 5.5t-24.5 15.5q-2 4 -8.5 10t-10.5 12zM260 220.5q0 -7.5 4 -11.5t11.5 -13.5t11.5 -13.5q18 -2 50 -6t46 -4q18 0 44 8 t50.5 21.5t46 30t31.5 32.5q4 8 13.5 24.5t17.5 35t15 34t9 21.5q-2 -2 -2 2v8q0 8 6 4q-2 4 -8 15.5t-14 24.5t-17.5 24.5t-15.5 17.5q0 -2 -7 -2h-13h-9q-51 0 -100 -14.5t-87 -42t-60.5 -68.5t-22.5 -94v-16v-17.5z" />
<glyph unicode="b" horiz-adv-x="1032" d="M33 1124q0 35 28.5 52.5t67.5 33.5h-2q12 6 25.5 12.5t23.5 10.5q12 6 25 10l16 35v-2q16 37 43 71.5t80 34.5t69.5 -23.5t16.5 -68.5v-30q-10 -111 -18.5 -218.5t-8.5 -216.5q35 6 58.5 8.5t52.5 2.5q55 0 105.5 -4.5t101.5 -10.5q53 -10 87 -33.5t64 -58.5h-2 q8 -8 26.5 -27.5t40 -43t40 -44t24.5 -30.5q16 -43 19.5 -70t3.5 -68q0 -57 -14.5 -118.5t-44 -117.5t-74.5 -103.5t-105 -75.5h-53q-14 0 -26.5 -1t-16.5 -1q-55 0 -103 7t-102 23q-6 0 -10 1t-14 6l8 -3q-6 4 -13.5 5.5t-15.5 5.5t-16 6q-4 2 -12.5 5t-20.5 7 q-6 -20 -18.5 -39.5t-40.5 -38.5h-39q-8 0 -22.5 5.5t-29 10.5t-25.5 10t-13 7q-25 29 -29 70.5t-4 68.5q0 98 5 197.5t11 198.5q4 98 9.5 193t5.5 194v80q0 8 4 12q-10 0 -21 -6q-14 -4 -24.5 -7.5t-28.5 -3.5q-33 0 -63.5 12.5t-30.5 67.5zM412 504q2 -12 4 -29.5t4 -34.5 q6 -45 6 -73l-2 10q2 -6 2 -12v-19l4 -2q10 -10 23.5 -26.5t17.5 -26.5v-10q2 -2 2 -5.5t2 -5.5t2 -4q16 -27 47 -39t62 -12q10 0 18 2t27 10l-4 -2q41 18 77.5 38t64.5 44.5t44 56t16 76.5q0 31 -16 68t-43 68.5t-59.5 52t-67.5 20.5q-4 0 -16 -4q-10 -4 -20.5 -8t-31.5 -4 q-25 0 -36 5t-21 11h-8q-51 0 -74.5 -45t-23.5 -98v-2zM426 344v2v-2z" />
<glyph unicode="c" horiz-adv-x="851" d="M43 387q0 55 10 115.5t34 117t59.5 105.5t84.5 84q41 29 94.5 35t92.5 6q123 0 220 -59.5t153 -180.5q0 -4 1 -13t1 -11q0 -49 -29 -67.5t-68 -18.5q-12 0 -24 6l-13 6l-81 78q-18 4 -35 11t-35 15h2q-10 6 -21.5 11.5t-9.5 5.5q-4 0 -12 2q-16 4 -23 4q-6 2 -12 2l-24 6 q18 -8 6.5 -9t-21.5 -3q-8 -2 -16 -2h-10q-29 0 -47.5 -33t-28.5 -78t-14.5 -90t-4.5 -70q0 -10 -1 -27.5t-3 -12.5q2 -4 9.5 -18.5t17.5 -33.5q10 -16 14 -21t10 -30q4 -10 8.5 -16t8.5 -17q14 -12 49 -17t64 -5h8q10 0 17 -1t13 -1q14 -2 25.5 -1t24.5 7h-2 q12 6 29.5 23.5t33.5 35.5q29 31 54.5 54.5t58.5 23.5q53 0 75.5 -18.5t22.5 -75.5q0 -37 -23.5 -77t-58.5 -73.5t-77 -55t-79 -21.5q-61 0 -120.5 5t-106.5 11q-63 8 -118.5 47t-96.5 94.5t-63.5 121t-22.5 124.5z" />
<glyph unicode="d" horiz-adv-x="950" d="M49 399v13q0 76 34 151.5t89 137t128 99.5t153 38q37 0 83 -8.5t80 -38.5l-4 2q18 -16 34 -29.5t38 -36.5q8 78 10 159t2 158q-10 -2 -31.5 -3t-70.5 -1v93q0 6 11 25.5t27.5 41t34 42t27.5 28.5q10 4 42 13t48 9q35 0 57.5 -18.5t35 -45t17.5 -53t5 -42.5q0 -8 -3 -22.5 t-9 -29.5q2 -31 2 -85v-113q0 -66 -1 -126.5t-3 -84.5q0 -10 -2 -34t-6 -52q-4 -25 -6.5 -54.5t-6.5 -54.5q-4 -29 -8 -57q-2 -16 -2 -56v-88v-90t2 -59q-2 -18 -6 -41t-14.5 -42t-29 -32.5t-52.5 -13.5q-35 0 -63.5 21.5t-41.5 50.5q-43 -35 -93 -60.5t-110 -25.5 q-223 0 -356 188l-2 6q-29 53 -34 110.5t-5 110.5zM279 292q0 -26 5 -48.5t14 -39t28 -20.5q31 -4 66.5 -9t70.5 -5q25 0 48.5 15.5t46 39t43 50t36.5 49.5q2 4 4 6l6 6q6 6 15 18q4 6 6 11q2 4 3 21t1 28q0 29 -17.5 70.5t-43 81.5t-58.5 69t-64 29q-23 0 -58.5 -9.5 t-55.5 -23.5q-27 -20 -46.5 -52t-29.5 -69t-15 -76t-5 -74v-22v-46z" />
<glyph unicode="e" horiz-adv-x="890" d="M41 403q0 80 28.5 161t81 144.5t124 103.5t159.5 40q25 0 74 -7t98 -25.5t87 -49.5t38 -78q0 -45 -22.5 -73.5t-57.5 -45.5q-16 -18 -58 -58t-88 -84t-88 -82t-59 -54q-4 -4 -15 -12.5t-21 -16.5q12 -27 44.5 -53.5t55.5 -26.5q27 0 59.5 7.5t65.5 20.5t60.5 31.5 t43.5 41.5q4 8 9.5 18t7.5 19q6 4 20 15t31.5 23.5t34 23.5l22.5 15q14 -8 29.5 -22t28 -29.5t20.5 -31t8 -25.5q0 -47 -29.5 -88t-52.5 -64l-6 -6q-27 -27 -62.5 -56.5t-76.5 -54t-84 -40t-84 -15.5h-164l31 35q-6 4 -14.5 6t-14.5 6h-2l-8 4h2q-115 51 -185.5 155 t-70.5 228zM276 506q25 18 54.5 40.5t58.5 45t52.5 41t35.5 26.5v3v2q-8 2 -26 2q-20 0 -46 -14.5t-49.5 -37t-45 -51t-34.5 -57.5z" />
<glyph unicode="f" horiz-adv-x="667" d="M29 592q0 66 33.5 87t76.5 28v366q0 4 5.5 15.5t13.5 25.5t15 27.5t13 21.5q4 4 6.5 9.5t4.5 7.5q23 35 47 69.5t49 44.5q4 2 25.5 9.5t31.5 11.5q16 6 38 11t34 9h18q63 0 105.5 -22.5t68 -61.5t35.5 -87t10 -101q0 -43 -16 -67.5t-72 -24.5q-37 0 -58 11t-35.5 30.5 t-20.5 43t-13 48.5v-2q-4 10 -6 21.5t0 11.5q-14 0 -30.5 -13.5t-28.5 -32t-20.5 -39t-8.5 -34.5v-314h90q16 0 40 -27.5t32 -45.5v-76q-8 -2 -26.5 -5l-37 -6t-34.5 -5l-15 -2q-6 -2 -19 -5.5t-26 -7.5q-14 -4 -30 -8l-13 -29v-428q0 -53 -35.5 -84.5t-82.5 -31.5 q-12 0 -25.5 1t-26 7t-21.5 20.5t-16 40.5v92q0 29 -1 52.5t-1 33.5q0 98 7 187q0 29 1 57.5t1 56.5q-35 0 -58.5 18.5t-23.5 84.5z" />
<glyph unicode="g" horiz-adv-x="970" d="M57 301q0 72 17.5 110t40.5 72q10 12 18 24.5t21 33.5q33 55 69.5 104t82.5 85t103.5 56.5t129.5 20.5q10 0 26.5 -1t26.5 -1h14q6 -2 35 -8t55 -17h-2q23 -6 47.5 -12t12.5 -6q10 -4 20 -4h17q23 -2 39 -4t29 -11.5t24.5 -29t23.5 -56.5v-59q0 -16 1 -32.5t1 -22.5 q0 -14 -1 -41t-1 -45v-17q0 -16 -2 -26.5t-4 -26.5q-4 -14 -6 -28.5t-2 -10.5q0 -8 -1 -27.5t-3 -46.5q-2 -29 -3 -62.5t-3 -63t-3 -53t-1 -29.5q0 -12 -6.5 -40t-13.5 -61t-15 -64.5t-13 -50.5q-2 -8 -10 -26.5t-20.5 -39t-23.5 -37.5t-19 -23h2q-10 -12 -37 -40t-57.5 -59 t-58 -57.5t-40.5 -36.5q-41 -29 -66.5 -31t-54.5 -2h-16q-98 0 -181 47t-136 125q-8 12 -16.5 35t-8.5 27q0 43 26.5 78.5t68.5 61.5t90.5 41t91.5 15v-10t-1.5 -22.5t-1.5 -23.5v-13v-15q-2 -4 -8 -29.5t-14 -47.5q-6 -16 -11 -32t-10 -26l11 1q12 1 25.5 1h27.5h20 q10 0 25.5 -1t11.5 -3q4 0 18.5 7t34 16.5t38 19.5t28.5 17h-2q10 6 18.5 24.5t14.5 41t9 44t3 33.5v16q0 23 1 56.5t1 52.5v26q-23 -14 -48.5 -28.5t-35.5 -18.5l17 6q-12 0 -25 -2q-10 -2 -21.5 -3t-21.5 -1h-6q-10 -10 -24.5 -18t-24.5 -10h6q-4 -2 -8 -2h-15q-4 0 -13 1 t-13 1q-55 16 -111.5 42.5t-100.5 65.5t-73 90.5t-29 116.5zM272 352q0 -86 47 -155q0 4 9 4q29 0 77 15t97 40t87 55.5t44 61.5q2 6 4 21.5t3 35t3 37.5t4 31v59q0 2 2 10t6 19l-18 -2q0 16 -8 22h-4q-23 0 -48.5 -11t-46.5 -26q-12 -8 -45.5 -30.5t-70.5 -48t-71 -48 t-46 -32.5q-25 -19 -25 -58zM682 180v2v-2zM705 145q36 -55 54 -55q3 0 5 1q18 9 18 54q0 43 -18 53q-3 1 -6 1q-18 0 -53 -54z" />
<glyph unicode="h" horiz-adv-x="835" d="M61 0v27q0 8 1 22t1 25v12q0 29 7 61q4 16 6 31t2 12q0 16 2 56.5t3 91.5t3 109.5t3 111.5t2 97t1 67q2 31 2 106.5v163.5v168t-2 109l21 139q14 6 28 10q12 4 24.5 6t16.5 2q37 0 57.5 -6t30 -18t10.5 -33.5t1 -52.5q0 -104 -2.5 -206.5t-6.5 -207.5q-4 -66 -5 -131 t-3 -133q4 10 8 15t9 10q4 8 12 20t16 23q10 12 17.5 26.5t9.5 18.5q29 35 71 39q28 3 50 3q11 0 20 -1h10q53 0 97.5 -3.5t83.5 -18.5t70.5 -48t56.5 -92q0 -2 -1 -2t-6 8q4 -8 10.5 -24.5t8.5 -26.5v8q2 -6 5 -18.5t6 -25.5t5 -23.5t2 -12.5v-473q0 -25 -14 -44.5 t-34.5 -31.5t-44 -18t-42.5 -6q-10 4 -23.5 14t-25.5 23.5t-21.5 25.5t-11.5 19q2 23 2 76v112v110.5t-2 73.5q0 6 -2 15q-2 6 -2 13t-2 15q-4 14 -6 32.5t-2 27.5q-2 25 -9 51t-22 26q-10 0 -17 -3t-22 -9l2 2q-47 -23 -79.5 -42t-61.5 -58q-8 -16 -20.5 -40t-14.5 -32 q-4 -8 -14 -41t-20.5 -70.5t-20.5 -73.5t-14 -52q-2 -4 -5.5 -24.5t-7.5 -43.5q0 -4 -1 -7t-1 -7t-2 -4q-2 -10 -7 -27.5t-10 -34t-9.5 -30t-4.5 -15.5q-4 -8 -24.5 -29.5t-28.5 -29.5q-8 -4 -16 -6q-16 -4 -23 -4q-4 0 -20 6q-8 4 -19 6l-22 22l-17 39q0 4 -1 13.5t-1 19.5 z" />
<glyph unicode="i" horiz-adv-x="524" d="M27 63q0 51 29.5 70t66.5 31q16 6 16 -4v561q0 8 11.5 41t15.5 49l-4 -12q4 6 12 17t18.5 21.5t22.5 18.5t25 8q10 0 31.5 -10t42 -25.5t36 -33t15.5 -31.5v-617q2 2 7 -4t13 -10q-2 2 9.5 -11t19.5 -24q4 -23 -2 -51.5t-15 -38.5q-39 -51 -84 -59t-96 -8h-35l-20 20 q-4 2 -12 2q-20 2 -43 5t-40.5 14.5t-28.5 29.5t-11 51zM133 999q0 78 50 113t112 35q18 0 51 -2t63.5 -12.5t53 -33t22.5 -63.5q0 -43 -22.5 -69.5t-55 -42t-68.5 -21.5t-60 -6q-18 0 -43 1t-48.5 10.5t-39 30.5t-15.5 60zM170 -39l12 -4q-4 2 -6 2t-6 2z" />
<glyph unicode="j" horiz-adv-x="636" d="M6 -324q0 45 23.5 86t87.5 41q47 0 88 -28.5t49 -79.5q23 18 35 61t22 80q4 10 4 21.5t4 19.5q4 10 9.5 35t5.5 29q2 18 4 69t4 111.5t4 117t2 85.5v276l-25.5 51t-19.5 41v51l29 29l33.5 33.5t21.5 19.5v-2q16 10 36.5 12.5t31.5 2.5q23 0 44 -3.5t39.5 -14.5t30 -30.5 t11.5 -54.5q0 -23 -5.5 -41t-13.5 -37q-10 -27 -10 -47v-155q0 -10 -2 -48t-6 -81q-4 -41 -5 -80t-3 -49v-129q0 -10 -2.5 -33t-4.5 -47.5t-4 -44t-2 -21.5q-2 -8 -5 -21.5t-7 -25.5q-2 -14 -7 -35.5t-9.5 -42t-7.5 -35t-1 -10.5q-8 -39 -23.5 -85t-43.5 -77 q-6 -8 -21.5 -21t-32 -25.5t-31 -21.5t-18.5 -9h-184l-121 120q0 6 -2 15q-2 6 -2 14v14zM315 1030q0 25 3.5 50.5t14.5 47t32.5 35t60.5 13.5q23 0 52.5 -14.5t56 -36t44 -49t17.5 -54.5q0 -23 -18.5 -45.5t-43 -39.5t-50 -28.5t-42.5 -11.5q-76 0 -101.5 33.5t-25.5 99.5z " />
<glyph unicode="k" horiz-adv-x="1054" d="M61 63q0 10 3.5 26.5t11.5 29.5l-6 -8q8 14 39 43q4 4 7 17t5 26q2 4 3 12t3 12l-4 -10q2 12 4 32.5t4 40t4 36t2 18.5v41v62.5t1 73.5t1 73v57v55.5t-1 67.5t-1 70.5v62.5v55q0 4 -1 19.5t-3 36t-4 43t-4 37.5q-25 8 -43.5 23t-18.5 63q0 2 1.5 3t1.5 3v30q14 16 32 41 q18 20 42 46t30 32l-4 -2q16 18 38.5 33.5t55.5 15.5l33 -2l12 -12t17 -18q8 -10 18 -25v-66q0 -66 -2 -134t-6 -136q-6 -135 -6 -268v-29q0 -16 1 -49t3 -70q18 14 38.5 29.5t43.5 32.5q43 35 78.5 62.5t52.5 37.5l2 23v-2q6 37 23.5 67.5t80.5 44.5h13q6 0 14 -4 q4 -2 6 -4q4 2 15.5 10.5t21.5 18.5q12 8 16 12l8 8q6 0 15 2q8 2 24 2t40 -9t44.5 -24.5t34.5 -36t14 -40.5q0 -35 -34.5 -61.5t-65.5 -41.5q-6 -4 -11 -8t3 6l6 9q-10 -14 -32.5 -33t-26.5 -23h-29q6 0 10 4l4 4q-53 -23 -98 -61.5t-82 -79.5q55 -92 112.5 -174 t125.5 -160q31 -35 73.5 -40t96.5 -5h86q0 -41 -11.5 -66.5t-27.5 -41.5q-18 -18 -39 -27q-49 -12 -76 -14t-70 -2h-30q-31 0 -72 1t-74 21q-27 16 -37 41t-20 53q-4 12 -4 17v8q-8 10 -24.5 36.5t-38 58.5t-43 66t-37.5 58q-6 10 -11.5 19.5t-11.5 15.5q6 -8 -2 -4 q-10 4 -11 -1t-7 5l-54 -55v-84q-2 -29 0 -53.5t13 -51.5l-9 10q10 -14 24.5 -40.5t18.5 -38.5v-11v-8q0 -6 -2 -15t-6 -20q-4 -10 -10 -22q-51 -12 -75.5 -16.5t-59.5 -4.5h-23q-12 0 -39.5 3t-46.5 8q-4 0 -7 1t-5 1t-4 2l-51 30q-4 8 -6.5 25.5t-2.5 21.5zM123 1110v2 q0 -6 2 -10q0 4 -1 5t-1 3z" />
<glyph unicode="l" horiz-adv-x="430" d="M12 1133q0 12 32 45.5t72 69.5t76.5 62.5t49.5 26.5h6q2 0 17.5 -9t33.5 -22.5t33.5 -27.5t15.5 -27v2q4 -45 8 -89t6 -89v-919q-8 -37 -12 -68q-2 -27 -6 -51.5t-18.5 -46t-42 -40t-78.5 -30.5q-6 6 -20.5 19.5t-31 30t-30.5 29.5t-19 19q0 6 -2 15q-2 8 -2 24 q0 20 4.5 30.5t12.5 18.5q-8 4 -13 7q-2 10 -3 33.5t-1 49v49v31.5q0 84 12.5 163t28.5 163q14 74 25.5 148.5t11.5 152.5q0 10 -1 25.5t-1 27.5v13q-2 10 -3 37.5t-5 56.5q-12 -4 -23.5 -9t-15.5 -7h-20q-4 0 -5.5 -1.5t-3.5 -1.5q-88 0 -88 89zM162 406v-5q0 -12 7 -23 q9 -13 28 -20q-14 6 -21.5 19.5t-5.5 29t11.5 28t25.5 16.5q-20 -4 -31.5 -16.5t-13.5 -28.5z" />
<glyph unicode="m" horiz-adv-x="1497" d="M59 57v6q0 35 17.5 52.5t40.5 27.5v308q6 16 17 51t16 51q-4 -4 -5.5 8t-1.5 29q-35 -4 -53 11t-18 83q0 4 1 14.5t1 20.5q4 6 14 21.5t22.5 31.5t23.5 29.5t18 19.5q23 20 57.5 25.5t56.5 5.5q39 0 57.5 -10.5t26.5 -26.5q33 23 69 37t95 14q90 0 152.5 -52t107.5 -122 q31 29 65.5 57.5t49.5 36.5q4 4 24.5 11.5t46 14.5t49 14.5t35.5 9.5t21 2h27q84 0 155.5 -27t112.5 -111q8 -16 21.5 -52t13.5 -46v-446q14 -6 25.5 -11.5t19.5 -9.5v-41q0 -43 -27 -71.5t-64.5 -47t-78.5 -26.5t-70 -8q-6 2 -17.5 11t-24.5 21.5t-24.5 23.5t-15.5 17 l-2 21q0 53 25.5 66.5t56.5 13.5q-4 12 -10 26.5t-17 26.5q31 86 41.5 170t10.5 162q0 10 -1 27.5t-4.5 35t-7.5 31.5t-10 16q-8 4 -27.5 10.5t-39 12.5t-36 11t-20.5 5h2q-5 1 -10 1q-23 0 -53 -16q-36 -18 -60 -34q-4 -4 -8 -7t-8 -7l2 2q-23 -16 -40 -29.5t-28 -40.5 q-2 -2 -5 -15.5t-5 -19.5q-4 -18 -9 -43.5t-11 -44.5v2q-8 -29 -15.5 -55.5t-9.5 -50.5v-219q0 -8 -5 -22.5t-13 -30t-15.5 -29t-11.5 -17.5l6 15q-12 -14 -31.5 -24.5t-29.5 -10.5q-55 0 -68.5 27.5t-17.5 74.5v101q0 41 2 82t6 81q4 39 6 75t2 77q0 59 -28.5 97t-90.5 38 q-20 0 -44.5 -2t-36.5 -14v2l-31 -31h2q-39 -35 -67.5 -64.5t-33.5 -70.5q2 4 1 -8t-2 -32.5t-3 -46.5t-4 -50q-2 -35 -4 -67t-4 -50v-29q0 2 4 7q35 -4 61.5 -18.5t26.5 -68.5q0 -25 -14 -42t-34.5 -28t-39 -16.5t-28.5 -5.5h-17q-12 0 -29.5 -1t-27.5 -1q-6 0 -17.5 1 t-25.5 1h-53q-6 6 -14.5 18.5t-15.5 27t-13.5 25.5t-6.5 15zM469 735q0 -10 17.5 -26.5t27.5 -16.5q4 0 8 4l-28 64zM1217 115h8h-8z" />
<glyph unicode="n" horiz-adv-x="1009" d="M59 741q0 23 26 49.5t59.5 50t67.5 39t52 15.5q66 0 77 -26.5t11 -67.5v-19q0 4 3 6.5t5 4.5l-4 -7q31 31 67 45.5t71 18.5l-11 -2q18 4 42 5t53 5q25 2 45 4t34 4h23q47 0 88 -23.5t72.5 -58t53 -77.5t32.5 -82v-199q0 -59 -1 -113.5t-14 -124.5q4 0 8.5 -1t6.5 -5 q0 -4 2 -6q4 -8 9 -16t13 -25q1 -4 1 -12v-9q-1 -16 -4 -32t-7 -31.5t-8 -21.5q-16 -29 -44 -36t-50 -7q-31 0 -55.5 11t-41.5 58q-2 6 -5 22.5t-5 36t-4 37t-2 25.5q0 12 2 31.5t6 42.5q2 23 3 38t1 19v25q0 27 1 64.5t1 58.5v73q0 25 -1 42.5t-1 27.5q-16 51 -59 82h-80 q-23 0 -45.5 -1t-44.5 -11l2 2q-20 -10 -45 -34t-39 -40q-74 -86 -97.5 -204t-23.5 -234v-84q0 -12 -17.5 -43t-33.5 -47q-12 -8 -31.5 -12.5t-29.5 -4.5q-57 0 -88 28t-31 89q0 4 1 11t1 14v16q2 8 7 38t9 64q6 33 10 54.5t4 25.5v168q0 45 -1 99.5t-11 93.5q-4 6 -10 17 t-12 20q-4 6 -7.5 16t-3.5 14z" />
<glyph unicode="o" horiz-adv-x="1087" d="M43 350q0 35 3 52.5t11 46.5v2q33 102 75 182t103.5 135t145.5 84t201 29q4 0 12 -1t14 -1h17q20 -2 53 -10.5t64.5 -16.5t56 -16.5t26.5 -10.5l72 -71q16 4 31.5 4t27.5 -4q2 -2 9.5 -10.5t15.5 -19.5t15.5 -21.5t9.5 -16.5q4 -4 14 -27.5t20 -46.5q0 -4 1 -22.5 t1 -34.5v-70q0 -41 -2 -85t-18 -85l2 19q-4 -10 -17.5 -38t-23.5 -40l2 4q-39 -55 -88 -109.5t-107.5 -98.5t-126 -70.5t-141.5 -26.5q-66 0 -124 6t-110 26.5t-96.5 58.5t-80.5 101q-27 45 -47.5 95.5t-20.5 107.5zM258 350q0 -72 34 -107.5t105 -58.5q10 -2 28.5 -7 t40 -11t42 -11t33.5 -10q86 27 145 71t125 114h-2q23 25 27 55.5t4 65.5q0 4 -1 12t-1 14v6q-4 14 -13.5 39t-15.5 47q-4 10 -7 19.5t-5 15.5q-31 59 -95.5 82t-136.5 23q-92 0 -152.5 -45.5t-101.5 -128.5l2 4q-4 -16 -12 -29v2q-18 -43 -30.5 -79t-12.5 -83z" />
<glyph unicode="p" horiz-adv-x="1114" d="M45 -416q0 10 1 25.5t8 29t22.5 23.5t42.5 10h74v125v97.5t2 62.5q0 10 1 27.5t5 33.5l8 45v275q0 4 4 25.5t9 51t10.5 60.5t9.5 49q2 14 7 29.5t9 32.5l-2 -2q12 37 12 63q0 14 2 17q-18 0 -34.5 1t-28.5 10t-20.5 27.5t-8.5 53.5t18.5 59.5t44 38.5t55.5 20.5t52 6.5 q39 0 64.5 -19.5t38.5 -44.5q29 20 60.5 34.5t61.5 14.5q27 0 51.5 -6t47.5 -14q8 -4 17 -6t20 -6q70 -18 140.5 -42t126.5 -63t92 -99.5t36 -152.5q0 -61 -26.5 -121.5t-68.5 -117t-91.5 -107.5t-94.5 -94q-4 4 1 13t14 13q-16 -4 -34 -11t-34 -15q-35 -16 -73 -27.5 t-85 -11.5q-4 0 -13 1t-17 1h-17q-12 4 -48 12t-71 19q-8 -39 -14 -83t-6 -54q0 -4 2 -21.5t4 -39t5 -40t3 -22.5v-39q0 -4 1 -19.5t5 -34.5q29 -6 55.5 -25.5t26.5 -60.5v-12q-2 -8 -8 -19.5t-10 -21.5q-6 -12 -12 -26q-10 -4 -41 -13.5t-51 -13.5q-14 -6 -46 -17.5 t-41 -13.5q-2 -2 -6 -2h-18q-2 0 -5 1t-9 1q-12 0 -26.5 6.5t-31.5 16.5q-10 6 -11 7t-5 1h-17q-25 0 -50 2t-46.5 11t-35 29.5t-13.5 55.5zM449 49q4 4 4 10q0 -2 -1 -2t-1 -2t-1 -3t-1 -3zM451 -342q0 -4 1 -4t1 -4q0 4 -1 4t-1 4zM455 285q0 -53 37.5 -77t87.5 -24 q104 0 175.5 45t125.5 138l-2 -2q14 27 33.5 65.5t19.5 61.5q0 45 -25.5 75.5t-64.5 49t-85 26.5t-87 8h-29q-8 0 -16 -2h2q-8 -2 -26.5 -5t-38 -6t-37 -7t-25.5 -6q-6 -6 -11.5 -14.5t-5.5 -14.5q0 -20 6 -39q10 -37 11 -65q0 -29 -7.5 -56.5t-17.5 -58.5h2 q-10 -25 -16 -49.5t-6 -42.5z" />
<glyph unicode="q" horiz-adv-x="1257" d="M39 317v27q20 84 68.5 176t119 169t157.5 127t183 50q43 0 77 -11t65 -26q23 -10 43 -17t36 -7h11q16 4 44.5 10t33.5 6q18 0 36.5 -9t34 -23.5t24.5 -32t9 -35.5q0 -23 -6 -42.5t-14 -39.5v-2q-2 -8 -9.5 -25.5t-3.5 -13.5q0 -10 -1 -34.5t-3 -49.5q-2 -31 -3 -67.5 t-3 -69.5t-3 -57.5t-1 -32.5q-2 -18 -8 -61.5t-13 -84.5q-4 -29 -6 -47t-2 -22v-54v-21t-2 -22q-2 -12 -2 -24l4 16q0 -4 -5 -30.5t-9 -51.5q-4 -31 -10.5 -57.5t-8.5 -32.5q0 2 1 2t1 -2q6 4 12.5 10.5t14.5 12.5q45 37 98.5 70.5t118.5 33.5h31.5t32 -6t25 -22.5 t10.5 -49.5q0 -23 -15.5 -43t-37 -37.5t-46 -32t-45.5 -24.5h-2q-2 0 -2 -1t-2 -1q-82 -43 -149.5 -103.5t-133.5 -131.5h-39q-4 0 -8 -1t-8 -1q-51 0 -72.5 18t-38.5 68l7 47q31 47 41 104t14 117q0 14 2 37.5t4 36.5q0 2 3 11t6 19.5t5 18.5l2 8v16q0 16 1.5 42t1.5 38v19 q-55 -47 -119 -74t-150 -27h-20.5t-30.5 1t-30.5 2t-18.5 1q-57 27 -110.5 56.5t-94.5 69.5t-66.5 93.5t-25.5 126.5zM268 293q0 -20 1 -43t10 -33q10 -16 29.5 -29.5t43 -23.5t48 -16.5t42.5 -6.5q59 0 109.5 33t91.5 80q14 16 34.5 48t24.5 56q8 51 12.5 99.5t4.5 95.5 q0 78 -46 102.5t-126 24.5q-25 0 -34 -11.5t-19 -23.5l-2 -2q-10 -20 -25.5 -38.5t-42.5 -35.5q-10 -10 -18.5 -10t-18.5 -2q-10 0 -14 4l-11 -18q-10 -10 -22 -41q-29 -47 -50.5 -102.5t-21.5 -106.5z" />
<glyph unicode="r" horiz-adv-x="798" d="M41 100q0 78 4 159t10 159t10.5 157.5t4.5 157.5v68q10 29 32.5 45t50 26.5t57.5 13.5t54 3v-125q31 29 60.5 53.5t60.5 48.5h43q41 0 88 -12t91 -33.5t83 -52.5t64 -68l4 -16q2 -8 2 -22t-8.5 -35t-22.5 -39.5t-35.5 -31.5t-50.5 -13q0 2 -2 2h-12q-6 6 -19.5 21.5 t-28 30.5t-27.5 28.5t-17 17.5q-14 12 -18.5 16.5t-6.5 4.5h-10q-18 -4 -50 -14.5t-44 -14.5q-16 -6 -31 -24.5t-25 -35.5q-35 -66 -63.5 -137t-30.5 -149q-2 -14 -2 -45v-68v-64.5t4 -58.5q-2 -14 -9 -36.5t-21.5 -43t-34 -35t-48.5 -14.5q-18 0 -37.5 22.5t-35 52.5 t-24.5 58.5t-9 42.5z" />
<glyph unicode="s" horiz-adv-x="618" d="M47 176q0 18 8 47t24.5 57.5t39 49t53.5 20.5q6 0 22.5 -5t26.5 -15q2 -2 8.5 -13.5t14.5 -21.5q8 -12 18 -29q-14 -12 -25.5 -30.5t-15.5 -30.5q0 -37 19.5 -50.5t54.5 -13.5h8q12 0 26.5 1t22.5 8q8 4 21.5 9t13.5 1v8v43q0 51 -6 85t-41 66q-12 6 -42 23.5t-62.5 36 t-61.5 35t-41 24.5q-37 25 -61.5 62t-24.5 84q0 53 26.5 97t66.5 75.5t90.5 49t95.5 17.5q23 0 54.5 -4t55.5 -26v2q29 -27 57.5 -74t28.5 -137q-39 0 -65.5 4t-44 11t-28.5 16.5t-22 17.5q-10 6 -16 12t-10 6q-29 0 -49.5 -14t-40.5 -43q16 -23 42.5 -37t55.5 -29 q43 -20 72 -39q84 -59 121.5 -137t37.5 -172q0 -78 -21.5 -128t-60 -77.5t-93 -38t-119.5 -10.5q-41 0 -82 14.5t-75 42t-55.5 65.5t-21.5 85zM240 627q4 4 4 6q0 -2 -4 -6zM242 649q2 -4 2 -6t2 -4q0 2 -4 10z" />
<glyph unicode="t" horiz-adv-x="681" d="M23 840q0 29 12 46t30.5 26.5t42 13.5t46.5 6v24v49.5t2 34.5v4q0 20 2 46t12 47.5t29.5 37t56.5 15.5q35 0 53.5 -12.5t27.5 -31t12 -41t5 -44.5q0 -14 2 -19l2 -12q0 12 1 10l3 -6q4 -4 5.5 -7l3.5 -7t2 -6v-29q0 -20 -11 -45h130q4 0 15 -9t23.5 -23.5t21.5 -29 t11 -24.5v-18q-2 -8 -11 -23.5t-20.5 -31t-22.5 -26t-17 -10.5h-173q4 -2 11.5 -11t13.5 -20.5t10 -22.5t4 -19q-2 -14 -2 -28.5t-2 -31.5q-4 -72 -8 -141.5t-4 -140.5q0 -4 1 -20.5t1 -35.5v-49q4 -16 18.5 -28.5t32.5 -12.5q16 0 27.5 4.5t32.5 14.5l14 8q-4 -2 -1 5t7 13 h-2q12 33 30.5 54.5t71.5 21.5q35 0 54.5 -10t29 -26.5t10.5 -38t1 -44.5q0 -43 -35 -79.5t-83 -63.5t-98.5 -42t-80.5 -15h-39q-119 39 -164 114.5t-45 192.5q0 4 1 13t1 18v22q4 29 8 56.5t8 56.5q10 61 19.5 125.5t9.5 122.5q0 14 4 10l-4 12q-16 2 -35.5 5t-27.5 5h2 q-35 10 -61.5 34t-26.5 67z" />
<glyph unicode="u" horiz-adv-x="970" d="M57 463q0 23 1 65.5t1 73.5v31q0 6 1 13t1 13q0 29 2.5 57.5t13.5 57.5t35.5 59.5t67.5 63.5l70 -72q-4 -37 -5 -67.5t-1 -59.5v-65.5t2 -46.5q0 -14 2 -40t4 -54.5t4 -53t4 -35.5q4 -39 13.5 -86t26.5 -89t45 -70.5t67 -28.5q2 2 6 2h2q45 43 93 90t88 100.5t65.5 113 t25.5 124.5q0 2 -2 17.5t-4 34t-5 35t-3 20.5v34q0 47 14.5 61.5t38.5 24.5v-2q4 4 8 7q0 2 1 3t1 3q10 25 27.5 47t60.5 22q8 0 15 -2q6 -2 10 -4q16 -10 33.5 -24.5t21.5 -18.5v-158q0 -70 -5 -136t-9 -134q-6 -68 -12 -135.5t-6 -130.5q0 -4 1 -9t1 -12q14 -14 16 -29.5 t2 -31.5q0 -51 -35 -75.5t-76 -24.5q-55 0 -75.5 26.5t-26.5 65.5q-29 -31 -63.5 -53.5t-69.5 -22.5h-8q-4 0 -3 -2t-3 2l-7 -6q-6 -2 -21 -4t-32.5 -5t-34 -5.5t-24.5 -2.5q-20 0 -60.5 3.5t-56.5 3.5q-10 2 -29.5 11t-41 19.5t-41 20.5t-29.5 16q-43 25 -59.5 71t-24.5 85 q-2 12 -4 32.5t-5.5 41t-5.5 37t-2 18.5v24q0 29 -1 74t-1 72zM397 121q4 0 9 4q-5 0 -9 -4zM758 121q2 2 6 10q-4 -8 -6 -10z" />
<glyph unicode="v" horiz-adv-x="946" d="M31 748q0 68 19.5 85t86.5 17h39q4 -2 15.5 -11.5t23.5 -20.5t23.5 -22.5l17.5 -17.5q2 -6 4 -14q4 -16 4 -23l-2 -65v-2q41 -68 75 -139.5t69 -141.5l34 -71q18 29 40 63.5t43.5 69t38 63.5t24.5 41v-2q4 6 17 31.5t30 58.5q20 41 39.5 79t29.5 52q31 53 83.5 76 t144.5 23q0 -55 -7.5 -94.5t-19.5 -69t-28.5 -52t-32.5 -45.5q-10 -12 -23.5 -28.5t-17.5 -28.5q-10 -16 -39 -64.5t-61.5 -104.5t-63.5 -107.5t-43 -75.5q-4 -6 -9 -26.5t-14 -47.5q-10 -37 -22 -73.5t-31.5 -66.5t-47.5 -48.5t-71 -18.5q-20 0 -45.5 2t-47 12.5t-37 30 t-15.5 56.5v14q0 4 5 25.5t9 37.5v5q0 -2 6 -15q-2 4 -6 17v-2v2q-4 10 -7 18t-5 12v-4q-18 45 -32.5 93.5t-30.5 93.5q-12 41 -25.5 77.5t-30.5 75.5v-2q-6 16 -16 39t-23 45q-25 47 -46 98.5t-21 90.5zM406 272l4 4q0 -2 -2 -2t-2 -2zM432 291l2 -2v2h-2z" />
<glyph unicode="w" horiz-adv-x="1468" d="M41 754v39q14 27 31.5 41t36 20t35 8t28.5 2h29q6 0 18 -9t24.5 -21.5t20.5 -23.5t8 -15q2 0 2 -2t1 -5.5t1 -7.5q4 -18 7.5 -40.5t5.5 -26.5q4 -18 16 -43t27 -52l-2 3q18 -33 28 -56q4 -10 20.5 -51t37.5 -90q12 -29 23.5 -57.5t21.5 -51.5q12 20 25.5 44t17.5 34 q6 10 18.5 35t26.5 52.5t26.5 53t18.5 35.5q4 6 10 20.5t12 31.5q-2 4 -4 6t-4 6q-6 8 -9 15t-1 5q-6 10 -8 26.5l-4 33t-2 31v18.5h161q18 0 30.5 -8.5t21.5 -18.5l12 -12q4 -8 13 -26.5t12 -30.5q2 -12 3 -30t3 -34q0 -8 1 -20.5t2 -22.5t2 -16t1 0q6 -10 8 -23 q8 -20 18.5 -49t21.5 -58.5t21.5 -56t16.5 -43.5q0 -2 1 -3t1 -5v4q2 2 9 13.5t17.5 25.5t19.5 27.5t13 21.5q53 84 98.5 174.5t86.5 180.5q10 16 15 30.5t13 30.5q0 2 1 2t1 2l-2 -4q0 2 1 2t1 2q14 37 49 45q23 5 44 5q10 0 20 -1h4q16 0 32.5 -1t31 -8t28 -25.5 t23.5 -55.5l-56 -114q-33 -49 -65.5 -99.5t-67.5 -97.5q-33 -49 -71.5 -108.5t-78.5 -124t-76 -131t-64 -132.5h-123q-4 68 -17.5 111t-25.5 70q-4 14 -14.5 33.5t-14.5 31.5v-2q-14 37 -21.5 56.5t-13.5 36t-13 35.5t-20 56l-2 -2h2q-4 -10 -10 -19t-10 -20 q-8 -16 -19.5 -33.5t-21.5 -33.5q-12 -18 -23.5 -35.5t-19.5 -40.5v2q-4 -10 -11.5 -26.5t-13.5 -32.5l2 2q-16 -37 -32.5 -77t-20.5 -48q-4 -4 -4 -8.5t-2 -8.5q-6 -18 -11 -27t-12.5 -14.5t-20.5 -5.5h-36q-33 0 -55.5 14.5t-37.5 35t-24.5 46t-15.5 46.5h2l-6 18l2 -8 q-2 4 -4 10q-2 4 -3 11.5t-5 17.5q-10 33 -21.5 71.5t-25.5 69.5q-23 59 -47.5 113.5t-49.5 109.5q-25 53 -51.5 112.5t-48.5 117.5zM442 291l2 -2l2 2h-4zM473 289q2 -10 6 -15q0 9 -4 13zM954 276q5 -8 11 -8q0 4 -11 8z" />
<glyph unicode="x" horiz-adv-x="1122" d="M63 778v94q16 0 53.5 -15t77 -37.5t74.5 -47t47 -45.5l-8 18q12 -12 41 -41.5t60.5 -62.5t61.5 -61.5t42 -40.5l-4 2q4 -4 16.5 -13.5t24.5 -19.5q25 18 53 47q27 23 50.5 43t33.5 31q41 35 76 69q43 39 97 87.5t99 82.5q10 -2 33 -7t45.5 -15t39 -28.5t16.5 -45.5 q0 -6 -2 -10t-3 -8q-2 -6 -7 -18.5t-11 -26t-12 -25.5t-10 -16q-10 -8 -36 -27.5t-53 -40.5h3q-33 -27 -66 -52.5t-51 -35.5l4 2q-18 -14 -47 -37.5t-55.5 -44t-47 -33t-22.5 -4.5v-12q2 2 12 -4t23.5 -17.5t28 -22.5t22.5 -20q6 -6 16 -14t27 -18q27 -20 56.5 -44t54 -50.5 t41 -56.5t16.5 -64q0 -35 -23.5 -69t-70.5 -34h-35q-6 8 -32 37t-44 51q-18 20 -32.5 37t-22.5 25q2 -2 6 -2q-10 8 -29.5 24.5t-41 35t-43 35.5t-36.5 30q-6 4 -11 7t-9 7q-33 -25 -66.5 -58.5t-56.5 -62.5q-10 -10 -23.5 -28.5t-23.5 -34.5q-18 -29 -39 -58.5t-50.5 -52 t-70.5 -37t-102 -14.5q0 25 1 52.5t5 49.5q-16 12 -23.5 30.5t-7.5 49.5q0 29 11.5 49.5t30 36t39 26.5t38.5 21q12 4 16 6l9 5q4 2 16 9t24.5 16t24.5 18.5t16 13.5q6 4 17.5 12t23 17.5t21.5 17.5t14 10t9.5 8.5t11.5 12.5q-18 18 -38 35.5t-42 35.5q-39 35 -79 72t-77 84 l2 -2q-14 16 -33.5 45t-38 58.5t-32 52t-13.5 26.5z" />
<glyph unicode="y" horiz-adv-x="1058" d="M47 745q18 59 42 90t77 31h27q6 0 10 -2q14 -8 26.5 -19t24.5 -24q2 -2 2 -4q12 4 30.5 12.5t28.5 12.5q43 -88 73 -144.5t58 -103.5v2q47 -78 89.5 -154.5t70.5 -167.5q29 51 54.5 105.5t48.5 109.5q4 10 16 46t27.5 79t29 80t15.5 45q12 33 23 54.5t27.5 34t40 17.5 t58.5 5q25 0 46.5 -6t62.5 -43q-4 -78 -33 -128t-57 -91q-10 -16 -18.5 -27.5t-18.5 -26.5q-4 -4 -7 -12t-10 -18q-16 -27 -32.5 -56.5t-22.5 -42.5q-10 -20 -39 -77.5t-61.5 -122t-61 -123t-39.5 -80.5l-12 -6t-8 -6q-4 -6 -17.5 -30t-28 -50.5t-26.5 -50t-16 -29.5 q-8 -16 -17.5 -28.5t-13.5 -22.5q-8 -14 -16 -26.5t-25 -53.5q-2 -2 -4 -10.5t-4 -12.5l2 4q-10 -29 -21.5 -54.5t-44.5 -41.5q-18 -10 -25 -25.5t-13 -31.5q-8 -20 -15.5 -38t-20 -31t-33 -21.5t-50.5 -8.5q-41 0 -72 14t-31 75q0 20 11.5 47.5t29 57.5t38 58.5t38.5 53.5 q14 23 29 41l-2 -5q45 66 83 134.5t70 138.5v10q-6 10 -12 23.5t-10 15.5q-10 25 -20.5 54.5t-20.5 54.5q-25 70 -54.5 142.5t-68.5 144t-89 139t-118 124.5zM592 260l4 -4q0 2 2 4h-6z" />
<glyph unicode="z" horiz-adv-x="1243" d="M63 35q0 2 1.5 3t1.5 3v6q2 16 10 27.5t16 17.5l4 4q14 14 45 35q10 8 24.5 20.5t10.5 8.5q10 10 24.5 25.5t37.5 37.5l69 70q8 6 40 29.5t69 51t69.5 51.5t44.5 30h-2q59 47 109.5 94t101.5 100q-39 10 -77.5 13.5t-79.5 3.5q-10 0 -28.5 -1t-33.5 -1h-14 q-20 -6 -54 -16.5t-71 -22t-67.5 -21.5t-45.5 -16h-28q-88 0 -88 90q0 2 4 22q2 8 4 19q10 6 18 14q16 14 31 21q4 0 7 4t5 4q0 10 -1 29.5t-3 31.5q4 0 19.5 3t34 6.5t37 6.5t26.5 5q37 6 69 6h54q82 0 157 -6q39 -4 75 -6t73 -2q18 0 41.5 2t46.5 6q47 6 100 6h13 q27 0 58.5 -4t72.5 -45v-16.5t2 -10.5q2 -12 2 -20.5v-12.5v-9t-2 -13t-2 -19q-2 -25 -22.5 -38t-45.5 -29q-10 -4 -21.5 -12.5t-13.5 -10.5q-59 -35 -109.5 -80t-101.5 -94v2q-27 -27 -52.5 -51.5t-53.5 -48.5q-6 -6 -31 -26.5t-53 -45.5q-35 -29 -68 -57.5t-41 -32.5 q-12 -10 -20 -12t-13.5 -3t-7.5 -5t-2 -23q68 4 126.5 11.5t127.5 15.5q90 12 178 20t183 8h8q27 4 52.5 -3t47.5 -46q4 -10 11.5 -36.5t7.5 -30.5q0 -6 -8.5 -19.5t-20.5 -27t-24.5 -25.5t-18.5 -14h-78q-6 0 -31.5 3t-55.5 5t-54.5 4t-30.5 2q-72 0 -147.5 -9t-153.5 -22 q-78 -10 -154.5 -19t-162.5 -9h-43h-52q-6 2 -17 10t-22.5 17t-20.5 16.5t-13 11.5l-4 16q-5 17 -5 23zM991 610l2 2q-3 -1 -3 -2h1z" />
<glyph unicode="{" horiz-adv-x="747" d="M12 682q0 31 9.5 50.5t24.5 33.5t34.5 24.5t40.5 20.5q14 8 25.5 14t17.5 13q4 6 16.5 13t12.5 5v223q0 4 7 22.5t18 41t22.5 46t17.5 36.5q6 8 16.5 21.5t22.5 27.5t23.5 27.5t17.5 21.5q4 6 15.5 17.5t24.5 23.5t24.5 23.5t15.5 13.5l-2 -2q10 6 30.5 16t34.5 15h-4 q6 0 28.5 1t50.5 2t54.5 2t36.5 1q0 -51 -3 -85t-12 -55.5t-28.5 -33t-52.5 -17.5l-28.5 -28.5l-33 -33t-28.5 -29.5t-19 -19q-16 -18 -32.5 -48t-16.5 -53q0 -18 4 -36.5t11 -39.5q6 -27 11 -50t5 -52q0 -35 -13.5 -58.5t-29.5 -43.5q-12 -18 -21 -27q4 2 19 -6 q29 -18 52.5 -41t23.5 -72q0 -35 -11.5 -55.5t-25.5 -42.5q-4 -6 -7 -12t-8 -17v2q-23 -53 -37 -111.5t-18 -119.5q14 -23 31.5 -38t42.5 -21q41 -10 80 -13.5t73 -3.5h32t44 4l51 -51v-31q0 -39 -33.5 -64.5t-77.5 -42t-86 -23.5t-59 -7q-59 0 -115.5 25.5t-101.5 67.5 t-71.5 96.5t-26.5 111.5q0 41 3 79t13 77q4 6 13.5 28.5t19.5 47.5q6 16 13.5 35.5t11.5 29.5q-4 6 -11.5 13.5t-17.5 9.5q-2 0 -23.5 3t-49 6t-53 5t-36.5 4v64q0 6 -1 10t-1 8zM360 725v2v-2z" />
<glyph unicode="|" horiz-adv-x="337" d="M49 1128l2 7v8q0 12 2 43t5 66.5t6.5 67.5t5.5 44q14 53 36.5 62.5t47.5 9.5q39 0 59 -16.5t43 -73.5v-76v-126t2 -138q0 -53 1 -97.5t1 -64.5q0 -4 2 -18.5t4 -32t4 -33t2 -19.5q2 -14 4.5 -38.5t3.5 -49t2 -45t1 -24.5v-27v-57.5t-1 -65.5t-1 -53q-2 -53 -4.5 -115.5 t-6.5 -115.5q-4 -49 -7 -100.5t-5 -98.5v-2q0 -10 2 -36t4 -53.5t3 -53t1 -33.5v-15q0 -8 1 -19t1 -15q0 -16 -1 -37t-9 -38.5t-25.5 -28.5t-50.5 -9q-37 2 -61.5 28.5t-39.5 63.5t-21.5 76t-6.5 65v2q4 125 13 252q4 66 8 138.5t6 138.5v200q-4 25 -7 66t-5 89t-3 97.5 t-1 92.5v64.5t-3 43.5q-2 6 -4 20.5t-4 31t-4 30.5t-2 18z" />
<glyph unicode="}" horiz-adv-x="894" d="M45 90q0 55 24.5 70.5t67.5 15.5h33q4 0 21.5 -3t36 -6t35 -5t18.5 -2q10 0 24 3t21 5q14 12 38.5 37.5t34.5 38.5l2 -4q-2 18 -8 35.5t-16 35.5q-12 27 -24.5 56.5t-12.5 70.5t10 73t28.5 57.5t41 47t47.5 41.5q6 4 7 3l1 -1l2 3l10 10q-4 2 -8 2t-8 2q-27 6 -52.5 16 t-46 28.5t-32.5 49.5t-12 78q0 18 8 39.5t20.5 41t25.5 38t24 30.5q2 2 4 7q16 23 49 55h-2q23 23 44 48.5t21 41.5q0 29 -30.5 42t-67.5 21q-12 0 -39 11l-20 4q-14 2 -43 2h-62h-63.5t-42.5 -2q-57 0 -76 24.5t-19 61.5q0 2 1 10t1 16q4 10 15.5 22.5t26 25t27.5 20.5 t20 8h305q16 -8 30.5 -11t28.5 -7h-2q49 -14 97 -34t73 -65q6 -8 14.5 -25.5t16.5 -35.5t14 -32.5t8 -18.5v-12q0 -8 1 -18.5t1 -14.5q0 -27 -3 -67t-23 -70l2 2q-12 -23 -29.5 -40.5t-38.5 -35.5q-23 -20 -41 -40t-18 -42q0 -2 2 -4q2 0 2 -4v-2l239 -90h-2 q43 -14 50.5 -36t7.5 -48q0 -4 -1 -13.5t-3 -19.5l-4 -25q-45 -12 -101.5 -31.5t-104.5 -47t-81 -63.5t-33 -81q0 -4 1 -5t1 -11q4 -16 19.5 -44t25.5 -49q2 0 5 -5t7 -9v-49q-27 -72 -62.5 -118t-79.5 -72.5t-100.5 -37t-123.5 -10.5h-10q-25 0 -57.5 1t-63.5 12.5 t-52.5 35t-21.5 68.5z" />
<glyph unicode="~" horiz-adv-x="980" d="M45 221q0 74 15.5 130.5t42 101.5t59.5 79.5t69 67.5q23 20 60.5 32.5t66.5 12.5q55 0 89 -35t67 -75q23 -31 46.5 -57.5t45.5 -26.5q29 0 57.5 33.5t57.5 68.5q20 29 43.5 54.5t60.5 49.5q6 2 13 2h18q57 0 73.5 -24.5t16.5 -71.5v-11t-2 -15t-2 -17q-8 -10 -29.5 -32.5 t-31.5 -32.5q-6 -8 -13.5 -15.5t-13.5 -17.5q-25 -31 -51.5 -61.5t-58 -55t-68.5 -40t-82 -15.5t-83 18.5t-69.5 46t-57.5 62.5t-46 65q-23 0 -43.5 -20.5t-42.5 -46.5l2 2q-4 -4 -9 -14.5t-14 -20.5v2q-16 -29 -41.5 -67.5t-33.5 -55.5h-111z" />
<glyph />
<glyph />
<glyph />
<glyph />
<glyph unicode="&#xa2;" horiz-adv-x="854" d="M18 264q0 6 1 17.5t1 25.5v58q23 43 34.5 57t25.5 27l-2 -5l22 23q4 8 11 14q6 8 17 21.5t23.5 28t21.5 25.5t13 13q27 23 50.5 37.5t50.5 28.5l10 5t5 2t11.5 5t26.5 17q10 12 14 50t6 79q2 39 6.5 75.5t15.5 66.5t33.5 47t59.5 17q8 0 22.5 -1t28 -8t23.5 -21.5 t10 -42.5v-197q23 0 42.5 -2t37.5 -11t37.5 -26.5t40.5 -48.5l4 -12q2 -4 2 -9.5v-9.5q0 -37 -26.5 -54t-67.5 -28q-35 -10 -76 -29.5t-53 -58.5q-16 -59 -31.5 -131.5t-24.5 -136.5q53 23 111.5 59.5t91.5 73.5q8 20 12 29q6 6 15.5 16t20 20.5l18.5 18.5l10 10q8 4 16 7 q16 4 23 4q33 0 49 -10.5t23.5 -27t8.5 -35t1 -36.5q0 -23 -4 -56.5t-27 -62.5h2q-70 -86 -159 -138t-189 -97l12 8q-8 -4 -18 -8t-17 -8q-4 -2 -11 -4.5t-13 -4.5q-14 -12 -18.5 -59t-4.5 -94q0 -35 -1 -67t-9 -55.5t-25.5 -37.5t-48.5 -14q-14 0 -33.5 11t-38 28.5 t-30.5 36t-12 30.5v17q0 10 4 48t10 79v-3q4 23 5 48.5t3 42.5l-16 4q-59 23 -96 54.5t-56.5 71.5t-27 89t-7.5 104zM221 176q0 -20 27 -20q2 6 6 22q6 20 11 41t7 31v-2q2 8 6.5 29.5t6.5 35.5q-29 -35 -46.5 -72.5t-17.5 -64.5zM246 131v6v-6z" />
<glyph unicode="&#xa3;" horiz-adv-x="1058" d="M18 35v14l15 35q2 6 2 14t2 15q2 8 2 14q2 4 12 12t21.5 17.5t21.5 16.5t12 7q31 27 56.5 51.5t44 52t31 61.5t14.5 77l-148 37q-20 4 -34.5 23.5t-23.5 46t-14 54t-5 50.5q61 0 87.5 -1t36 -2t9.5 -3t10 -4q20 -4 36.5 -6.5t33.5 -2.5q12 0 20 13v-2q10 25 19.5 59.5 t17.5 69.5q10 33 17.5 63.5t17.5 54.5l-2 -4q8 20 22 33q0 2 1 5t1 5q4 12 4 0q0 2 6.5 18.5t16.5 26.5v5q0 2 2 2q8 10 15.5 21t17.5 22q27 35 59.5 71.5t69.5 69.5t80 53.5t88 20.5q14 0 31.5 -1t32 -9.5t24.5 -25t10 -46.5q0 -47 -31.5 -71t-66.5 -40q-4 -2 -9.5 -4 t-9.5 -4l-8 -4q-31 -25 -66.5 -64t-66.5 -83t-50.5 -89t-19.5 -86q0 -27 4.5 -44t24.5 -19q-2 0 0 1t6 1q10 4 24.5 7t18.5 3h152l-39 -39q37 -4 65.5 -22.5t28.5 -75.5q0 -63 -30.5 -77.5t-80.5 -14.5h-12q-2 0 -13 3t-22.5 5t-21.5 4l-10 2q-12 0 -49 -3t-66 -7 q-14 -29 -22.5 -66t-14.5 -71q-4 -16 -7 -32t-7 -30h18h48.5t33.5 -2q8 -2 30.5 -6t48 -8t49.5 -9.5t32 -7.5q10 0 29.5 -2t43.5 -4q25 -4 49.5 -7t30.5 -3l-12 2q4 0 16.5 -2t28.5 -6q10 -4 19.5 -5t11.5 -1q10 -2 16 -1t15 1q23 2 43 1t35.5 -10.5t24.5 -31t9 -58.5 q0 -25 -8 -50t-59 -38q-4 0 -14.5 -1t-20.5 -1h-31q-61 0 -116.5 7.5t-110.5 15.5q-55 10 -110.5 17t-102.5 7q-86 0 -162 -28h4l-45 -17q-25 -10 -57.5 -20t-67.5 -10q-18 0 -37.5 3t-37 12t-28 27.5t-10.5 51.5zM279 416q4 -2 12 -2z" />
<glyph unicode="&#xa4;" horiz-adv-x="907" d="M41 898v11q0 41 20.5 65.5t65.5 24.5q31 0 52.5 -9t43.5 -21h6q4 -4 9.5 -5t9.5 -6q4 -2 7 -3t7 -3h-2q53 -23 104.5 -41t110.5 -18q63 0 121.5 41t114.5 94h55q6 -4 19.5 -17.5t25.5 -27.5t22.5 -27.5t12.5 -17.5q0 -4 2 -10t2 -15q0 -2 -1 -9t-1 -13q-10 -20 -19 -41 q-8 -16 -16 -33.5t-12 -28.5q0 2 2 5q-29 -61 -37 -130t-8 -128q0 -29 3 -57.5t15 -45.5q2 -2 15 -18q16 -18 32.5 -39t26.5 -51v-15q0 -45 -36 -73.5t-73 -28.5h-22q-35 16 -55.5 27.5t-34.5 21.5h2q-43 27 -85 47.5t-93 20.5q-35 0 -56.5 -15.5t-46.5 -34.5 q-10 -10 -23.5 -19t-31.5 -24q-6 -4 -20.5 -10l-29 -12t-26.5 -11t-16 -5q-6 0 -19.5 8t-27 19t-24.5 23.5t-15 18.5v8q0 4 -1 10.5t-1 12.5q0 2 1 12t1 19q33 51 60.5 108t27.5 111q-4 12 -6 24q-2 10 -3 20.5t-3 16.5v-2q-16 59 -44 118.5t-63 117.5v-7q-10 8 -23.5 22.5 t-17.5 18.5q0 4 -2 13q-2 6 -2 13zM393 682q4 -18 6 -39.5t4 -42.5q2 -10 2.5 -22.5t2.5 -16.5v-10q0 -6 -1 -13.5t-4 -17.5q10 4 25.5 6t34.5 2q31 0 55.5 -6t46.5 -12q-4 18 -6 37.5t-2 38.5q0 25 2 46t8 46v6q-14 -2 -29.5 -4t-31.5 -2h-56.5t-56.5 4zM803 793l2 4 q0 -2 -1 -2t-1 -2z" />
<glyph unicode="&#xa7;" horiz-adv-x="630" d="M33 565q0 41 13 96.5t38 90.5q4 0 16.5 11t27.5 23.5t28.5 24.5t17.5 14l8 4q-2 8 -10 25q-8 16 -15 36.5t-7 45.5q0 45 26.5 95t68.5 92t92 70t97 28q37 0 72 -7.5t98 -23.5v-64q0 -23 -5 -50t-36 -50q-4 -2 -26.5 -6t-32.5 -4q-47 -6 -85 -23.5t-63 -52.5q-2 -2 -2 -6 q16 -18 31.5 -32.5t32.5 -31.5v2q27 -27 50.5 -51t40.5 -53t27.5 -65.5t10.5 -86.5q0 -31 -2 -66.5t-11.5 -68t-29 -59.5t-53.5 -41l2 -2q8 -23 14 -43.5t6 -42.5q0 -31 -20.5 -84t-51 -105.5t-69.5 -91.5t-76 -41q-12 -2 -25 -2h-38h-27q-10 0 -24.5 1t-18.5 1 q-53 23 -64.5 48.5t-11.5 60.5v76q84 4 139.5 30.5t55.5 87.5q0 37 -5.5 48.5t-15.5 17.5q-8 4 -17 9t-26 16v-3q-27 16 -53.5 36t-47 44.5t-32.5 54t-12 68.5zM84 752l6 4zM248 573q0 -4 8 -8t19.5 -6t23.5 -3t20 -1q6 0 8.5 7t2.5 18q0 12 -1 40.5t-10 45.5 q-8 -6 -17 -11.5t-19 -11.5q-10 -20 -21.5 -41.5t-13.5 -28.5zM287 647l4 4l2 2q2 2 2 6q-6 -6 -8 -12z" />
<glyph unicode="&#xa9;" horiz-adv-x="2267" d="M0 616q0 129 40 247t103 227q2 4 4.5 7t8.5 15q8 16 17 32.5t26 33.5q41 35 87 59.5t95 40.5q18 4 48 12t60.5 15.5t55 12.5t28.5 5q12 0 40 -4t58.5 -9t58.5 -11.5t40 -10.5l-10 2q10 -2 27.5 -10t38 -17.5t39 -18.5t30.5 -15q61 -35 110.5 -94.5t88.5 -114.5 q8 -12 19 -26.5t24 -30.5q14 -18 31.5 -52t33 -73t25.5 -76t10 -64q0 -98 -31.5 -183t-81.5 -165q-57 -86 -138 -143t-163 -109q-6 -4 -14 -9t-14 -7q-47 -29 -102.5 -34t-102.5 -5q-80 0 -160 22.5t-150.5 65.5t-127 104.5t-86.5 139.5v-2q-8 16 -18.5 44.5t-21 58.5 t-17.5 53.5t-7 29.5v6q0 10 -1 26.5t-1 24.5zM217 580q4 -12 13.5 -37t13.5 -33q47 -109 134 -179.5t204 -70.5q53 0 101 25.5t97 60.5l-4 -4q12 8 17 12q49 33 85.5 66t62.5 70.5t38 84t12 107.5q0 6 -1 18.5t-1 26.5v10q-16 23 -25.5 50.5t-15.5 52.5q-10 31 -12 32l2 -4 q-37 59 -74 103.5t-81 74t-98 45t-126 15.5l-31 -16h-57q-2 0 -6 -1.5t-8 -1.5l-31 -10l27 6q-51 -27 -95.5 -83t-75 -124.5t-48 -141t-17.5 -132.5v-22zM236 676q0 70 21.5 131t61 107.5t97 74t131.5 27.5q37 0 90 -12.5t101 -39t82 -67.5t34 -96q0 -33 -12.5 -63.5 t-67.5 -30.5h-31q-6 8 -22 23t-34.5 31.5t-34 30t-21.5 15.5q-6 4 -20.5 5t-28.5 1h-9q-63 0 -91.5 -52t-28.5 -114v-55q4 -12 15 -23.5t26.5 -21.5t32 -15.5t28.5 -5.5q51 4 96 28t86 77q2 0 19.5 1t21.5 1h8q45 0 78 -25.5t33 -79.5v-18q-2 -6 -9 -16.5t-16.5 -20.5 t-17.5 -20.5t-14 -14.5l16 13q-55 -74 -121.5 -108t-165.5 -34q-82 0 -144.5 29t-104 79t-63 116.5t-21.5 142.5zM2066 426v129h201v-129h-201zM2066 -625h201v-129h-201v129zM2095 -14v127h172v-127h-172zM2095 -1155h172v-127h-172v127z" />
<glyph unicode="&#xad;" horiz-adv-x="913" d="M45 539q0 41 29.5 64.5t66.5 35.5h56q16 0 31.5 1t21.5 1q16 0 40.5 -1t43.5 -1h20q10 0 27.5 -5t40.5 -13q10 -4 17 -7.5t18 -3.5h6q10 0 27.5 -1t27.5 -1h41t31.5 2t32 4t41.5 9l14 2q-2 0 2 2t10 4q4 2 10.5 3t10.5 3q6 2 12 2h22q18 0 37 -4t35.5 -14.5t26.5 -29 t10 -46.5q0 -53 -33 -81t-76 -40t-87 -14t-68 -2h-35q-2 0 -11 3t-18.5 5t-18.5 4t-11 2h-113q-16 0 -28.5 2t-28.5 6q-18 4 -34 6t-13 2h-15q-10 0 -27.5 1t-33.5 1h-39l10 -2q-18 2 -40.5 5t-42 13.5t-33 30t-13.5 52.5zM465 608q18 -6 16 -4z" />
<glyph unicode="&#xae;" horiz-adv-x="1327" d="M39 670q0 61 25.5 131.5t69.5 143.5t103.5 140.5t126 118.5t137 83t138.5 32q4 0 14.5 -1t18.5 -1h14q4 0 18.5 -3t24.5 -7q12 -4 6 -4h88q4 0 17.5 -5.5t28 -10.5t27.5 -10t19 -9q90 -41 160 -92.5t117 -117t71.5 -148.5t24.5 -187q0 -78 -35.5 -158t-90 -153.5 t-118 -136t-118.5 -105.5q-53 -35 -131 -60.5t-138 -25.5q-70 0 -131 16.5t-118.5 45t-109.5 65.5t-105 76q-33 29 -62 78t-49.5 104t-31.5 109.5t-11 91.5zM256 641l2 -4q4 -8 6 -16h-2q6 -16 12.5 -35t10.5 -29q16 -51 39.5 -84t60.5 -59v110q-14 14 -18.5 31.5t-4.5 42.5 q0 20 2.5 32.5t12.5 28.5v109v76t2 53t3 34.5t5 35.5q-59 -66 -95 -150t-36 -162v-14zM575 311q37 -12 74 -12h29q35 10 72.5 27.5t60.5 44.5q-6 8 -15.5 17t-15.5 18q-10 10 -25.5 28.5t-13.5 14.5q-2 4 -10 16t-17 26.5t-17.5 27.5t-12.5 16q-2 2 -4 3t-4 5q-4 0 -5 -1 t-3 -1q-20 -4 -48 -5t-32 13v-187q0 -33 -13 -51zM580 748l24 8t23 8q25 8 48 16t43.5 19.5t33 25t12.5 31.5q0 10 -19.5 15.5t-45 7.5t-52 3t-41.5 1h-26v-135zM598 1098q61 0 129 -11.5t123 -41t92 -81t37 -133.5q0 -72 -30.5 -124t-86.5 -84q6 -16 19.5 -40t29 -44.5 t30.5 -35t24 -14.5q-2 0 2 8.5t10 19.5t12 23.5t12 20.5l7 12l-4 -6q6 12 15 28.5t17 32t14.5 27t6.5 13.5v73q0 12 1 23.5t1 21.5q2 25 1 43.5t-11 40.5q-27 57 -53.5 93t-60.5 60t-79 37t-108 27q-6 2 -41 12.5t-62 14.5q-2 -2 -8 -2t-10 -2q-4 0 -6 -2t-23 -10zM623 1118 l10 -2h2q-4 0 -7 1t-5 1z" />
<glyph unicode="&#xb0;" horiz-adv-x="690" d="M37 991q0 49 29 119q25 53 62.5 97t82.5 77t95 51.5t100 18.5q86 0 149 -56.5t82 -185.5v-2q2 -16 3 -30.5t1 -30.5q0 -82 -26.5 -141.5t-69.5 -97.5t-97.5 -56.5t-111.5 -18.5q-55 0 -109.5 17.5t-96.5 50.5t-67.5 81t-25.5 107zM270 991q2 -29 12.5 -40t26.5 -11 q23 0 48.5 11.5t45 30.5t30.5 45.5t7 57.5q-6 37 -16 52.5t-25 15.5q-23 0 -46 -13.5t-41.5 -37t-31 -52t-10.5 -59.5z" />
<glyph unicode="&#xb1;" horiz-adv-x="802" d="M23 176q0 4 7 19.5t13 31.5q10 10 28.5 24.5t28.5 20.5q10 0 39 1t45 1h13q8 0 37.5 2.5t66.5 6.5q18 2 41 3t41 3t30.5 2t8.5 0q29 0 53.5 2t46.5 6q29 2 57.5 4t61.5 2h8q25 0 47.5 -2t39 -11t26.5 -29.5t10 -59.5q0 -51 -24.5 -78t-60.5 -39t-77 -14t-75 0h-27 q-43 0 -86 3t-84 7q-53 4 -106.5 7t-106.5 -1l-23 4q-20 10 -39 23q-16 10 -28 25.5t-12 35.5zM66 586q0 33 11 51t29.5 29.5t40 15.5t39.5 6q10 2 33 2h45h37q10 39 18.5 92.5t14.5 94.5q12 12 40.5 27.5t39.5 19.5l10 2q16 0 22 -2t11 -4q10 -6 32.5 -33t28.5 -49 q0 -31 -1 -50.5t-5 -39.5t-7 -42t-3 -30q2 -2 2 -4v-8v-11v-4q2 6 7 17.5t9 17.5l-6 -2l8 4l2 2h2q12 4 30.5 10.5t25.5 6.5q16 0 42.5 -10.5t52 -27t45 -37t19.5 -42.5q0 -10 -1 -23.5t-7 -27t-20.5 -22.5t-38.5 -13h2q-51 -8 -96 -14.5t-97 -14.5q0 -4 2 -6t2 -6l5 -10 q2 -16 3 -35t-3.5 -37.5t-17.5 -36.5t-42 -33l-20 -2q-4 0 -10.5 2t-12.5 4l-16 4q-6 4 -15.5 13.5t-19.5 20.5t-18.5 21.5t-12.5 14.5q-2 6 -7 36t-9 52l-160 27q-25 4 -38 13t-19 21.5t-7 26t-1 23.5zM293 664q0 4 4 12l-4 -2q2 0 2 -2zM317 471h7h-7z" />
<glyph unicode="&#xb6;" horiz-adv-x="868" d="M27 801v55q-6 102 26.5 178t87 128t123 81t131.5 35h21h71h84h23q14 0 39.5 -4t51.5 -9t44.5 -10.5t20.5 -7.5l14 -16q4 -2 9 -32t10 -67.5t9.5 -78.5t4.5 -66v-35v-43.5t1 -51.5t1 -49.5v-39.5v-37.5t-1 -49.5t-1 -52.5v-44.5v-41q0 -12 -1 -68.5t-3 -128.5 q-2 -66 -4.5 -147.5t-4.5 -155.5t-4 -129t-2 -66q-63 12 -98 31t-52.5 42.5t-20.5 51t-1 56.5q0 6 1 16t1 16v169t2 231t2 228.5v166.5v58.5t-2 50t-5 52t-9 62.5q-2 -4 -10 -3t-17 1q-4 -29 -6 -49t-2 -43v-20q2 -16 0 -44t-6 -53v2l-4 -32v-56.5t-2 -91.5v-56.5t-1 -54 t-1 -38t0 -4.5v2q0 -8 -1 -36t-1 -67v-87v-97v-99.5v-88t1 -67.5t1 -36q-2 -35 -34 -67.5t-67 -32.5q-20 0 -43.5 23.5t-27.5 43.5l-19 301v103v104v111q-63 4 -115.5 15t-93.5 38t-70.5 74t-49.5 127z" />
<glyph unicode="&#xb7;" />
<glyph unicode="&#xdc;" />
<glyph unicode="&#x153;" />
<glyph unicode="&#x2000;" horiz-adv-x="723" />
<glyph unicode="&#x2001;" horiz-adv-x="1446" />
<glyph unicode="&#x2002;" horiz-adv-x="723" />
<glyph unicode="&#x2003;" horiz-adv-x="1446" />
<glyph unicode="&#x2004;" horiz-adv-x="482" />
<glyph unicode="&#x2005;" horiz-adv-x="361" />
<glyph unicode="&#x2006;" horiz-adv-x="241" />
<glyph unicode="&#x2007;" horiz-adv-x="241" />
<glyph unicode="&#x2008;" horiz-adv-x="180" />
<glyph unicode="&#x2009;" horiz-adv-x="289" />
<glyph unicode="&#x200a;" horiz-adv-x="80" />
<glyph unicode="&#x2010;" horiz-adv-x="913" d="M45 539q0 41 29.5 64.5t66.5 35.5h56q16 0 31.5 1t21.5 1q16 0 40.5 -1t43.5 -1h20q10 0 27.5 -5t40.5 -13q10 -4 17 -7.5t18 -3.5h6q10 0 27.5 -1t27.5 -1h41t31.5 2t32 4t41.5 9l14 2q-2 0 2 2t10 4q4 2 10.5 3t10.5 3q6 2 12 2h22q18 0 37 -4t35.5 -14.5t26.5 -29 t10 -46.5q0 -53 -33 -81t-76 -40t-87 -14t-68 -2h-35q-2 0 -11 3t-18.5 5t-18.5 4t-11 2h-113q-16 0 -28.5 2t-28.5 6q-18 4 -34 6t-13 2h-15q-10 0 -27.5 1t-33.5 1h-39l10 -2q-18 2 -40.5 5t-42 13.5t-33 30t-13.5 52.5zM465 608q18 -6 16 -4z" />
<glyph unicode="&#x2011;" horiz-adv-x="913" d="M45 539q0 41 29.5 64.5t66.5 35.5h56q16 0 31.5 1t21.5 1q16 0 40.5 -1t43.5 -1h20q10 0 27.5 -5t40.5 -13q10 -4 17 -7.5t18 -3.5h6q10 0 27.5 -1t27.5 -1h41t31.5 2t32 4t41.5 9l14 2q-2 0 2 2t10 4q4 2 10.5 3t10.5 3q6 2 12 2h22q18 0 37 -4t35.5 -14.5t26.5 -29 t10 -46.5q0 -53 -33 -81t-76 -40t-87 -14t-68 -2h-35q-2 0 -11 3t-18.5 5t-18.5 4t-11 2h-113q-16 0 -28.5 2t-28.5 6q-18 4 -34 6t-13 2h-15q-10 0 -27.5 1t-33.5 1h-39l10 -2q-18 2 -40.5 5t-42 13.5t-33 30t-13.5 52.5zM465 608q18 -6 16 -4z" />
<glyph unicode="&#x2012;" horiz-adv-x="913" d="M45 539q0 41 29.5 64.5t66.5 35.5h56q16 0 31.5 1t21.5 1q16 0 40.5 -1t43.5 -1h20q10 0 27.5 -5t40.5 -13q10 -4 17 -7.5t18 -3.5h6q10 0 27.5 -1t27.5 -1h41t31.5 2t32 4t41.5 9l14 2q-2 0 2 2t10 4q4 2 10.5 3t10.5 3q6 2 12 2h22q18 0 37 -4t35.5 -14.5t26.5 -29 t10 -46.5q0 -53 -33 -81t-76 -40t-87 -14t-68 -2h-35q-2 0 -11 3t-18.5 5t-18.5 4t-11 2h-113q-16 0 -28.5 2t-28.5 6q-18 4 -34 6t-13 2h-15q-10 0 -27.5 1t-33.5 1h-39l10 -2q-18 2 -40.5 5t-42 13.5t-33 30t-13.5 52.5zM465 608q18 -6 16 -4z" />
<glyph unicode="&#x2013;" />
<glyph unicode="&#x2014;" horiz-adv-x="2152" d="M45 539q0 41 74.5 64.5t168.5 35.5h142q40 0 79.5 1t54.5 1q40 0 102.5 -1t110.5 -1h50q26 0 70 -5t102 -13q26 -4 43.5 -7.5t45.5 -3.5h15q25 0 69.5 -1t69.5 -1h104.5t79.5 2t81 4t105 9l35 2q-5 0 5.5 2t25.5 4q10 2 26.5 3t26.5 3q15 2 30 2h56q46 0 94 -4 t89.5 -14.5t67 -29t25.5 -46.5q0 -53 -83.5 -81t-192.5 -40t-220.5 -14t-171.5 -2h-89q-5 0 -28 3t-47 5t-46.5 4t-27.5 2h-286q-41 0 -72.5 2t-72.5 6q-45 4 -85.5 6t-33.5 2h-38q-25 0 -69.5 1t-84.5 1h-99l26 -2q-46 2 -103 5t-106.5 13.5t-83.5 30t-34 52.5zM1108 608 q46 -6 41 -4z" />
<glyph unicode="&#x2018;" horiz-adv-x="370" d="M49 1343l211 -40q0 -2 14.5 -22.5t16.5 -33.5q4 -18 7 -40.5t-3 -43.5l4 8q-2 -8 -1 -24.5t5 -36.5q2 -29 3 -58.5t-3 -50.5q-10 -41 -36.5 -50t-55.5 -9q-4 0 -11 1t-14 1h-16q-6 6 -15.5 17.5t-17.5 25.5t-13 25.5t-5 17.5q0 4 -6.5 24.5t-16.5 45.5q-12 37 -22.5 71.5 t-10.5 51.5q0 -2 0 4t-4 12q-4 12 -7 31.5t-3 72.5z" />
<glyph unicode="&#x2019;" horiz-adv-x="354" d="M51 1008q-4 18 2 52t15 70q4 23 8 43.5t4 30.5q0 8 1 19.5t1 25.5q0 6 1 19.5t1 27v25.5v16h231q0 -14 -3 -42.5t-6 -58.5t-7 -51.5t-4 -25.5q-4 -16 -12.5 -45t-18.5 -53v2q-8 -20 -12 -35.5t-8 -26.5q-12 -41 -38 -50t-54 -9q-6 0 -13.5 1t-15.5 1h-19l-6 8 q-16 10 -30.5 20.5t-16.5 35.5z" />
<glyph unicode="&#x201a;" />
<glyph unicode="&#x201c;" horiz-adv-x="645" d="M49 1333l211 -39q0 -4 14.5 -23.5t16.5 -33.5q4 -18 6 -39.5t-2 -42.5l2 6q-2 -6 -1 -22.5t5 -38.5q4 -29 5 -58.5t-3 -50.5q-10 -41 -36.5 -50t-55.5 -9h-11t-14 2q-8 2 -16 2q-6 4 -15.5 16.5t-17.5 25.5t-13 25.5t-5 16.5t-7.5 25.5t-15.5 44.5q-12 37 -22.5 71.5 t-10.5 50.5q0 -2 -1 4.5t-5 14.5q-4 12 -6 30.5t-2 71.5zM324 1343l211 -40q0 -2 14 -22.5t16 -33.5q4 -18 7 -40.5t-3 -43.5l4 8q-2 -8 -1 -24.5t6 -36.5q4 -29 5 -58.5t-3 -50.5q-12 -41 -39 -50t-56 -9q-4 0 -11 1t-13 1h-17q-6 6 -15 17.5t-17.5 25.5t-13.5 25.5 t-5 17.5q0 4 -6 24.5t-16 45.5q-12 37 -21.5 71.5t-9.5 51.5q0 -2 -1 4t-5 12q-4 12 -7 31.5t-3 72.5z" />
<glyph unicode="&#x201d;" horiz-adv-x="665" d="M56 1050.5q3 22.5 7 47.5q4 18 6.5 33.5t2.5 17.5q0 4 3 26.5t9 51.5q0 8 1 24.5t2 32.5t2 31.5t1 21.5h232q0 -14 -3.5 -42.5t-7.5 -58.5t-8 -51.5t-4 -25.5q-4 -16 -11 -45t-18 -53v2q-6 -16 -11 -31.5t-9 -25.5q-4 -37 -14.5 -50.5t-23.5 -15.5t-28.5 5t-31.5 13 q-4 0 -6.5 1.5t-6.5 1.5q-16 -14 -30.5 -25.5t-25.5 -9.5t-18.5 20.5t-7.5 61.5q-4 20 -1 42.5zM106 971q10 -4 17.5 -6t11.5 -2q-8 4 -16.5 5t-12.5 3zM141 963q8 0 9.5 4t5.5 8zM250 999v5v-5zM367 1008q-4 18 2 52t14 70q10 51 10 74q0 8 1 19.5t3 25.5q0 6 1 19.5t1 27 v25.5v16h232q0 -14 -3 -42.5t-7.5 -58.5t-8.5 -51.5t-4 -25.5q-4 -16 -11 -45t-17 -53v2q-8 -20 -13.5 -35.5t-7.5 -26.5q-12 -41 -38.5 -50t-55.5 -9q-4 0 -12.5 1t-16.5 1h-16l-6 8q-16 10 -30.5 20.5t-16.5 35.5z" />
<glyph unicode="&#x2022;" horiz-adv-x="528" d="M45 582q0 43 16.5 86t46 76.5t69.5 54t87 20.5q41 0 81 -15.5t70.5 -43t50 -65.5t19.5 -85q0 -55 -22.5 -98t-59 -72.5t-85 -45t-99.5 -15.5q-43 0 -74.5 18.5t-54 48t-34 65.5t-11.5 71z" />
<glyph unicode="&#x2026;" horiz-adv-x="1579" d="M59 147q0 23 7.5 47.5t23.5 53.5q109 102 209 102q29 0 53.5 -7t46.5 -19l17 -7q29 -16 41 -56t14 -105l-78 -136q-63 -43 -127 -43q-55 0 -108 31q-8 4 -11 6q-88 49 -88 133zM602 158q0 23 7 47t24 53q111 104 211 104q29 0 52.5 -8t45.5 -20l16 -6q55 -29 56 -162 l-76 -133q-68 -45 -129 -45q-25 0 -53.5 8t-53.5 22q-8 4 -12 9q-88 51 -88 131zM1104 152q0 23 7 47t24 53q109 102 213 102q53 0 98 -28l-2 2l14 -4q57 -37 58 -166l-72 -131q-70 -45 -133 -45q-25 0 -53.5 7t-53.5 23q-6 0 -12 6q-88 51 -88 134z" />
<glyph unicode="&#x202f;" horiz-adv-x="289" />
<glyph unicode="&#x203a;" />
<glyph unicode="&#x205f;" horiz-adv-x="361" />
<glyph unicode="&#x20ac;" horiz-adv-x="946" d="M25 795q4 4 5 10t3 14t2 19l237 -2q12 18 33 42.5t49.5 49t66.5 45t85 31.5q57 12 79.5 11t43.5 -7h-11h9q27 -6 45 -10.5t26 -8.5h-2q84 -31 100.5 -59.5t2.5 -50.5q-16 -27 -66 -50q-27 -16 -57.5 -13t-61.5 9q-10 0 -21 1t-20 1q-6 0 -10 -2h15q41 -16 50 -44.5 t9 -51.5q0 -63 -13.5 -79.5t-64.5 -16.5q25 -10 43.5 -29.5t18.5 -54.5t-19.5 -64.5t-66.5 -29.5q-14 0 -17.5 -1t-11.5 -1q-8 -2 -20.5 -2h-28.5q12 -6 36.5 -7.5t47.5 0.5h20q8 2 23.5 5.5t32 6.5t29.5 8t18 9v-2q31 41 59.5 47t51 -7t35.5 -42t11 -57q-4 -43 -40 -72 t-83 -47.5t-94 -26.5t-74 -8h-18q-23 -2 -52.5 1t-68.5 20q-39 18 -60.5 35.5t-35.5 31.5q-2 2 -4 6t-4 4q-41 55 -47 88h-19l12 2q-6 0 -18 -1t-18 -1h-19h-10q-4 0 -9 1t-12 1h5q-8 2 -17.5 2.5t-17.5 0.5t-17 2q-25 0 -38 25.5t-15 58t5 62.5t22 36q23 4 51.5 3t52.5 -1 h27q4 0 10 -1t12 -1v4l-2 4v4h-14q-29 0 -59.5 1t-55 9.5t-41 24.5t-20.5 45q-2 10 -5 34.5t-5 35.5zM236 457v6v-6z" />
<glyph unicode="&#x2122;" horiz-adv-x="1540" d="M20 1006q0 43 21.5 66.5t57.5 34.5t82 14t95 5q51 2 100.5 7.5t78.5 25.5h276q16 18 41 20.5t45 2.5h6q45 0 88 -4t88 -21q47 -12 63.5 -48t29.5 -77v2q8 -20 13 -35.5t9 -17.5q8 -2 20.5 20.5t28.5 51.5t35 58.5t42.5 53t55 39t74.5 15.5q29 0 48.5 -12.5t31.5 -30 t17.5 -39t5.5 -39.5v-23q0 -8 -3 -16q-4 -20 -6 -42t-6 -42q-10 -59 -17 -117.5t-7 -116.5q0 -29 3 -59.5t7 -63.5t7 -66.5t3 -74.5v-28.5t-6 -32t-22.5 -26.5t-49.5 -11q-35 0 -58.5 19.5t-39.5 47t-25.5 57t-13.5 50.5q0 6 -2 21.5t-4 35.5q-4 35 -7 72.5t-3 60.5 q0 2 -1 3.5t-1 5.5q-12 -20 -32 -30.5t-61 -10.5q-51 0 -93 40t-77 87v-49t3 -60q0 -16 1 -25.5t1 -13.5t5 -30.5t9 -43.5l-2 5q4 -12 5 -18.5t1 -10.5v-8q0 -29 -9 -46.5t-23.5 -26.5t-31 -12t-32.5 -3q-20 0 -48 15t-51.5 38.5t-40 51.5t-16.5 52v238h-121 q-2 -72 -4 -149.5t-2 -147.5q-4 -4 -7 -15.5t-5 -17.5q4 -16 10 -36.5t8 -24.5v-15q0 -57 -31.5 -72.5t-66.5 -15.5h-10t-13 2q-8 2 -16 2q-6 4 -18.5 15.5t-26.5 26t-25.5 27.5t-17.5 24q-2 12 -6 35.5t-8 49t-7.5 50t-3.5 37.5q-2 18 0 72.5t4 105.5q2 20 2.5 23t0.5 14 h-244q-6 0 -21.5 10t-31 25.5t-27.5 31t-14 23.5q0 4 -2 12q-4 16 -5 23z" />
<glyph unicode="&#x25fc;" horiz-adv-x="870" d="M0 0v870h870v-870h-870z" />
</font>
</defs>
</svg>
